<svg width="230" height="249" viewBox="0 0 230 249" fill="none" xmlns="http://www.w3.org/2000/svg">
<rect x="0.5" y="0.5" width="229" height="248" rx="5.5" stroke="black"/>
<g filter="url(#filter0_i_534_595)">
<path d="M53.5 216.625L48.35 234H45.125L41.475 220.85L37.6 234L34.4 234.025L29.475 216.625H32.5L36.1 230.775L40 216.625H43.2L46.825 230.7L50.45 216.625H53.5ZM58.7006 216.625V234H55.8506V216.625H58.7006ZM71.4674 234L67.4674 227.05H65.2924V234H62.4424V216.625H68.4424C69.7757 216.625 70.9007 216.858 71.8174 217.325C72.7507 217.792 73.4424 218.417 73.8924 219.2C74.3591 219.983 74.5924 220.858 74.5924 221.825C74.5924 222.958 74.2591 223.992 73.5924 224.925C72.9424 225.842 71.934 226.467 70.5674 226.8L74.8674 234H71.4674ZM65.2924 224.775H68.4424C69.509 224.775 70.309 224.508 70.8424 223.975C71.3924 223.442 71.6674 222.725 71.6674 221.825C71.6674 220.925 71.4007 220.225 70.8674 219.725C70.3341 219.208 69.5257 218.95 68.4424 218.95H65.2924V224.775ZM81.0883 218.925V224.025H87.0883V226.35H81.0883V231.675H87.8383V234H78.2383V216.6H87.8383V218.925H81.0883ZM101.574 216.625V218.95H94.1986V224.075H99.9486V226.4H94.1986V234H91.3486V216.625H101.574ZM113.24 234L109.24 227.05H107.065V234H104.215V216.625H110.215C111.548 216.625 112.673 216.858 113.59 217.325C114.523 217.792 115.215 218.417 115.665 219.2C116.132 219.983 116.365 220.858 116.365 221.825C116.365 222.958 116.032 223.992 115.365 224.925C114.715 225.842 113.707 226.467 112.34 226.8L116.64 234H113.24ZM107.065 224.775H110.215C111.282 224.775 112.082 224.508 112.615 223.975C113.165 223.442 113.44 222.725 113.44 221.825C113.44 220.925 113.173 220.225 112.64 219.725C112.107 219.208 111.298 218.95 110.215 218.95H107.065V224.775ZM130.486 230.45H123.211L121.961 234H118.986L125.211 216.6H128.511L134.736 234H131.736L130.486 230.45ZM129.686 228.125L126.861 220.05L124.011 228.125H129.686ZM155.742 216.625V234H152.892V222.1L147.592 234H145.617L140.292 222.1V234H137.442V216.625H140.517L146.617 230.25L152.692 216.625H155.742ZM162.338 216.625V234H159.488V216.625H162.338ZM180.355 234H177.505L168.93 221.025V234H166.08V216.6H168.93L177.505 229.55V216.6H180.355V234ZM196.673 221.625C196.223 220.758 195.598 220.108 194.798 219.675C193.998 219.225 193.073 219 192.023 219C190.873 219 189.848 219.258 188.948 219.775C188.048 220.292 187.339 221.025 186.823 221.975C186.323 222.925 186.073 224.025 186.073 225.275C186.073 226.525 186.323 227.633 186.823 228.6C187.339 229.55 188.048 230.283 188.948 230.8C189.848 231.317 190.873 231.575 192.023 231.575C193.573 231.575 194.831 231.142 195.798 230.275C196.764 229.408 197.356 228.233 197.573 226.75H191.048V224.475H200.623V226.7C200.439 228.05 199.956 229.292 199.173 230.425C198.406 231.558 197.398 232.467 196.148 233.15C194.914 233.817 193.539 234.15 192.023 234.15C190.389 234.15 188.898 233.775 187.548 233.025C186.198 232.258 185.123 231.2 184.323 229.85C183.539 228.5 183.148 226.975 183.148 225.275C183.148 223.575 183.539 222.05 184.323 220.7C185.123 219.35 186.198 218.3 187.548 217.55C188.914 216.783 190.406 216.4 192.023 216.4C193.873 216.4 195.514 216.858 196.948 217.775C198.398 218.675 199.448 219.958 200.098 221.625H196.673Z" fill="black"/>
</g>
<g filter="url(#filter1_d_534_595)">
<rect x="76.5" y="39.5" width="77" height="148.579" rx="10.5" stroke="black" stroke-width="3"/>
<rect x="76" y="39" width="78" height="149.579" rx="11" stroke="black" stroke-width="2"/>
<rect x="99.0791" y="42.7105" width="32.6842" height="5.73684" rx="2.86842" fill="black" stroke="black"/>
<rect x="103.29" y="96.6053" width="25.1053" height="5.73684" stroke="black"/>
<rect x="131.921" y="122.711" width="10.7895" height="8.26316" stroke="black"/>
<rect x="86.4473" y="96.6053" width="13.3158" height="34.3684" fill="black" stroke="black"/>
<rect x="103.29" y="105.868" width="10.7895" height="25.1053" fill="black" stroke="black"/>
<rect x="117.604" y="105.868" width="10.7895" height="25.1053" fill="black" stroke="black"/>
<rect x="131.921" y="96.6053" width="10.7895" height="22.5789" fill="black" stroke="black"/>
<path d="M81.3955 178.289H148.606V181.526C148.606 182.907 147.487 184.026 146.106 184.026H83.8955C82.5148 184.026 81.3955 182.907 81.3955 181.526V178.289Z" stroke="black"/>
</g>
<defs>
<filter id="filter0_i_534_595" x="29.4746" y="216.4" width="171.148" height="21.75" filterUnits="userSpaceOnUse" color-interpolation-filters="sRGB">
<feFlood flood-opacity="0" result="BackgroundImageFix"/>
<feBlend mode="normal" in="SourceGraphic" in2="BackgroundImageFix" result="shape"/>
<feColorMatrix in="SourceAlpha" type="matrix" values="0 0 0 0 0 0 0 0 0 0 0 0 0 0 0 0 0 0 127 0" result="hardAlpha"/>
<feOffset dy="4"/>
<feGaussianBlur stdDeviation="2"/>
<feComposite in2="hardAlpha" operator="arithmetic" k2="-1" k3="1"/>
<feColorMatrix type="matrix" values="0 0 0 0 0 0 0 0 0 0 0 0 0 0 0 0 0 0 0.25 0"/>
<feBlend mode="normal" in2="shape" result="effect1_innerShadow_534_595"/>
</filter>
<filter id="filter1_d_534_595" x="71" y="38" width="88" height="159.579" filterUnits="userSpaceOnUse" color-interpolation-filters="sRGB">
<feFlood flood-opacity="0" result="BackgroundImageFix"/>
<feColorMatrix in="SourceAlpha" type="matrix" values="0 0 0 0 0 0 0 0 0 0 0 0 0 0 0 0 0 0 127 0" result="hardAlpha"/>
<feOffset dy="4"/>
<feGaussianBlur stdDeviation="2"/>
<feComposite in2="hardAlpha" operator="out"/>
<feColorMatrix type="matrix" values="0 0 0 0 0 0 0 0 0 0 0 0 0 0 0 0 0 0 0.25 0"/>
<feBlend mode="normal" in2="BackgroundImageFix" result="effect1_dropShadow_534_595"/>
<feBlend mode="normal" in="SourceGraphic" in2="effect1_dropShadow_534_595" result="shape"/>
</filter>
</defs>
</svg>
