<svg width="1138" height="224" viewBox="0 0 1138 224" fill="none" xmlns="http://www.w3.org/2000/svg">
<path d="M267.111 135.24C267.951 135.28 268.831 135.3 269.751 135.3C270.671 135.3 271.551 135.28 272.391 135.24L272.451 135.82C271.811 135.953 271.385 136.073 271.171 136.18C270.958 136.273 270.838 136.44 270.811 136.68C270.705 137.467 270.651 138.893 270.651 140.96C270.651 144.307 270.691 146.387 270.771 147.2L270.811 147.62C270.838 147.86 270.965 148.033 271.191 148.14C271.418 148.233 271.858 148.347 272.511 148.48L272.451 149.06C271.611 149.02 270.698 149 269.711 149C268.725 149 267.811 149.02 266.971 149.06L266.911 148.48C267.591 148.347 268.051 148.227 268.291 148.12C268.531 148.013 268.665 147.847 268.691 147.62C268.798 146.913 268.851 145.187 268.851 142.44C268.331 142.373 267.365 142.34 265.951 142.34C263.871 142.34 262.458 142.367 261.711 142.42L261.431 142.44C261.431 144.907 261.471 146.507 261.551 147.24L261.591 147.62C261.618 147.86 261.745 148.033 261.971 148.14C262.198 148.233 262.638 148.347 263.291 148.48L263.231 149.06C262.391 149.02 261.478 149 260.491 149C259.505 149 258.591 149.02 257.751 149.06L257.691 148.48C258.371 148.347 258.831 148.227 259.071 148.12C259.311 148.013 259.445 147.847 259.471 147.62C259.578 146.833 259.631 145.407 259.631 143.34C259.631 139.993 259.591 137.907 259.511 137.08L259.471 136.68C259.445 136.44 259.325 136.273 259.111 136.18C258.898 136.073 258.471 135.953 257.831 135.82L257.891 135.24C258.731 135.28 259.611 135.3 260.531 135.3C261.451 135.3 262.331 135.28 263.171 135.24L263.231 135.82C262.591 135.953 262.165 136.073 261.951 136.18C261.738 136.273 261.618 136.44 261.591 136.68C261.498 137.32 261.445 138.867 261.431 141.32C261.951 141.387 262.911 141.42 264.311 141.42C266.405 141.42 267.825 141.393 268.571 141.34L268.851 141.32C268.851 139.133 268.811 137.7 268.731 137.02L268.691 136.68C268.665 136.44 268.545 136.273 268.331 136.18C268.118 136.073 267.691 135.953 267.051 135.82L267.111 135.24ZM278.986 144.8C277.893 144.827 277.059 145.033 276.486 145.42C275.913 145.807 275.626 146.227 275.626 146.68C275.626 147.133 275.739 147.467 275.966 147.68C276.206 147.88 276.586 147.98 277.106 147.98C277.626 147.98 278.253 147.76 278.986 147.32V144.8ZM280.446 149.18C279.646 149.18 279.179 148.747 279.046 147.88C277.873 148.747 276.859 149.18 276.006 149.18C275.433 149.18 274.946 149.007 274.546 148.66C274.146 148.3 273.946 147.747 273.946 147C273.946 146.253 274.339 145.58 275.126 144.98C275.926 144.38 277.213 144.02 278.986 143.9V142.04C278.986 141.667 278.846 141.38 278.566 141.18C278.299 140.98 277.919 140.88 277.426 140.88C276.933 140.88 276.539 141.02 276.246 141.3C275.953 141.567 275.806 141.913 275.806 142.34C275.806 142.5 275.826 142.68 275.866 142.88L275.426 143.08C275.159 142.933 274.906 142.733 274.666 142.48C274.439 142.227 274.326 142.047 274.326 141.94C274.326 141.82 274.413 141.653 274.586 141.44C274.773 141.213 275.019 140.973 275.326 140.72C275.633 140.467 276.039 140.253 276.546 140.08C277.066 139.893 277.646 139.8 278.286 139.8C278.926 139.8 279.446 139.96 279.846 140.28C280.246 140.587 280.446 141.153 280.446 141.98C280.446 142.793 280.486 144.52 280.566 147.16C280.579 147.8 280.819 148.12 281.286 148.12C281.486 148.12 281.693 148.067 281.906 147.96L282.106 148.48C281.599 148.947 281.046 149.18 280.446 149.18ZM289.067 142.6C289.067 141.987 288.893 141.533 288.547 141.24C288.2 140.933 287.813 140.78 287.387 140.78C286.76 140.78 286.22 141.027 285.767 141.52C285.313 142.013 285.013 142.62 284.867 143.34L289.007 143.18C289.047 142.98 289.067 142.787 289.067 142.6ZM287.327 149.18C285.913 149.18 284.847 148.78 284.127 147.98C283.407 147.167 283.047 146.093 283.047 144.76C283.047 143.413 283.44 142.253 284.227 141.28C285.027 140.293 286.227 139.8 287.827 139.8C288.64 139.8 289.347 140.087 289.947 140.66C290.56 141.233 290.867 142.087 290.867 143.22L290.187 144.04C290.107 144.027 289.473 144.02 288.287 144.02C287.113 144.02 285.933 144.067 284.747 144.16V144.34C284.747 145.553 285 146.467 285.507 147.08C286.013 147.68 286.707 147.98 287.587 147.98C288.467 147.98 289.393 147.767 290.367 147.34L290.607 147.94C289.58 148.767 288.487 149.18 287.327 149.18ZM295.386 149.18C294 149.18 293.306 148.513 293.306 147.18C293.32 146.007 293.326 144.933 293.326 143.96C293.326 142.973 293.313 141.947 293.286 140.88L292.006 140.9L291.946 140.68L292.406 139.9C292.593 139.94 292.873 139.967 293.246 139.98L293.166 138.14L294.486 136.96L294.866 137.14C294.84 138.127 294.826 139.067 294.826 139.96L297.766 139.94L297.866 140.18L297.146 140.98C296.693 140.927 295.92 140.893 294.826 140.88V143.56C294.826 145.227 294.846 146.42 294.886 147.14C294.926 147.74 295.28 148.04 295.946 148.04C296.48 148.04 297.066 147.887 297.706 147.58L297.946 148.24C297 148.867 296.146 149.18 295.386 149.18ZM301.929 149.18C300.543 149.18 299.849 148.513 299.849 147.18C299.863 146.007 299.869 144.933 299.869 143.96C299.869 142.973 299.856 141.947 299.829 140.88L298.549 140.9L298.489 140.68L298.949 139.9C299.136 139.94 299.416 139.967 299.789 139.98L299.709 138.14L301.029 136.96L301.409 137.14C301.383 138.127 301.369 139.067 301.369 139.96L304.309 139.94L304.409 140.18L303.689 140.98C303.236 140.927 302.463 140.893 301.369 140.88V143.56C301.369 145.227 301.389 146.42 301.429 147.14C301.469 147.74 301.823 148.04 302.489 148.04C303.023 148.04 303.609 147.887 304.249 147.58L304.489 148.24C303.543 148.867 302.689 149.18 301.929 149.18ZM311.332 142.6C311.332 141.987 311.159 141.533 310.812 141.24C310.466 140.933 310.079 140.78 309.652 140.78C309.026 140.78 308.486 141.027 308.032 141.52C307.579 142.013 307.279 142.62 307.132 143.34L311.272 143.18C311.312 142.98 311.332 142.787 311.332 142.6ZM309.592 149.18C308.179 149.18 307.112 148.78 306.392 147.98C305.672 147.167 305.312 146.093 305.312 144.76C305.312 143.413 305.706 142.253 306.492 141.28C307.292 140.293 308.492 139.8 310.092 139.8C310.906 139.8 311.612 140.087 312.212 140.66C312.826 141.233 313.132 142.087 313.132 143.22L312.452 144.04C312.372 144.027 311.739 144.02 310.552 144.02C309.379 144.02 308.199 144.067 307.012 144.16V144.34C307.012 145.553 307.266 146.467 307.772 147.08C308.279 147.68 308.972 147.98 309.852 147.98C310.732 147.98 311.659 147.767 312.632 147.34L312.872 147.94C311.846 148.767 310.752 149.18 309.592 149.18ZM317.212 141.66L317.192 144.42C317.192 146.14 317.245 147.26 317.352 147.78L317.392 148.04C317.405 148.133 317.552 148.227 317.832 148.32C318.125 148.4 318.405 148.453 318.672 148.48L318.612 149.06C317.972 149.02 317.239 149 316.412 149C315.585 149 314.852 149.02 314.212 149.06L314.272 148.48C314.525 148.453 314.792 148.4 315.072 148.32C315.365 148.227 315.519 148.133 315.532 148.04C315.639 147.573 315.692 146.64 315.692 145.24C315.692 142.973 315.639 141.587 315.532 141.08L314.252 140.7L314.212 140.18C315.065 140.18 315.945 140.06 316.852 139.82L317.232 140V140.96C318.712 140.187 319.999 139.8 321.092 139.8C321.759 139.8 322.265 139.933 322.612 140.2C322.959 140.467 323.132 140.967 323.132 141.7V144.42C323.132 146.14 323.179 147.26 323.272 147.78L323.332 148.04C323.345 148.133 323.492 148.227 323.772 148.32C324.065 148.4 324.345 148.453 324.612 148.48L324.552 149.06C323.912 149.02 323.179 149 322.352 149C321.525 149 320.792 149.02 320.152 149.06L320.212 148.48C320.465 148.453 320.732 148.4 321.012 148.32C321.305 148.227 321.459 148.133 321.472 148.04C321.579 147.573 321.632 146.367 321.632 144.42V142.48C321.632 141.96 321.479 141.6 321.172 141.4C320.865 141.2 320.345 141.1 319.612 141.1C318.879 141.1 318.079 141.287 317.212 141.66ZM331.143 140.16L331.423 140.3C331.423 141.167 331.463 141.827 331.543 142.28L331.023 142.46C330.85 141.78 330.603 141.307 330.283 141.04C329.977 140.773 329.583 140.64 329.103 140.64C328.623 140.64 328.243 140.767 327.963 141.02C327.683 141.273 327.543 141.573 327.543 141.92C327.543 142.52 327.89 143.013 328.583 143.4L330.623 144.52C331.503 145.013 331.943 145.727 331.943 146.66C331.943 147.34 331.67 147.933 331.123 148.44C330.59 148.933 329.823 149.18 328.823 149.18C327.823 149.18 326.797 149.013 325.743 148.68C325.903 147.747 325.983 146.98 325.983 146.38L326.503 146.2C326.623 146.68 326.71 147.007 326.763 147.18C326.83 147.353 326.937 147.567 327.083 147.82C327.243 148.073 327.443 148.24 327.683 148.32C327.923 148.4 328.277 148.44 328.743 148.44C329.21 148.44 329.597 148.307 329.903 148.04C330.21 147.773 330.363 147.453 330.363 147.08C330.363 146.52 330.05 146.067 329.423 145.72L327.263 144.52C326.383 144.053 325.943 143.34 325.943 142.38C325.943 141.7 326.203 141.1 326.723 140.58C327.243 140.06 327.97 139.8 328.903 139.8C329.837 139.8 330.583 139.92 331.143 140.16ZM341 147.86C339.893 148.74 338.687 149.18 337.38 149.18C336.073 149.18 335.067 148.767 334.36 147.94C333.653 147.113 333.3 146.04 333.3 144.72C333.3 143.387 333.707 142.233 334.52 141.26C335.347 140.287 336.493 139.8 337.96 139.8C338.56 139.8 339.093 139.9 339.56 140.1C340.04 140.287 340.38 140.48 340.58 140.68C340.78 140.88 340.88 141.04 340.88 141.16C340.88 141.693 340.72 142.18 340.4 142.62H339.92C339.76 142.18 339.487 141.78 339.1 141.42C338.727 141.06 338.24 140.88 337.64 140.88C336.813 140.88 336.173 141.253 335.72 142C335.28 142.733 335.06 143.64 335.06 144.72C335.06 145.787 335.32 146.6 335.84 147.16C336.36 147.72 337.087 148 338.02 148C338.953 148 339.867 147.733 340.76 147.2L341 147.86ZM346.207 149.06C345.567 149.02 344.834 149 344.007 149C343.181 149 342.447 149.02 341.807 149.06L341.867 148.48C342.121 148.453 342.387 148.4 342.667 148.32C342.961 148.227 343.114 148.133 343.127 148.04C343.221 147.173 343.267 145.507 343.267 143.04C343.267 139.027 343.227 136.68 343.147 136L343.107 135.66L341.827 135.28L341.787 134.76C342.641 134.76 343.521 134.64 344.427 134.4L344.807 134.58C344.781 136.14 344.767 138.267 344.767 140.96C346.247 140.187 347.581 139.8 348.767 139.8C349.434 139.8 349.941 139.933 350.287 140.2C350.634 140.467 350.807 140.967 350.807 141.7V144.42C350.807 146.14 350.861 147.26 350.967 147.78L351.007 148.04C351.021 148.133 351.167 148.227 351.447 148.32C351.741 148.4 352.021 148.453 352.287 148.48L352.227 149.06C351.587 149.02 350.854 149 350.027 149C349.201 149 348.467 149.02 347.827 149.06L347.887 148.48C348.141 148.453 348.407 148.4 348.687 148.32C348.981 148.227 349.134 148.133 349.147 148.04C349.254 147.573 349.307 146.367 349.307 144.42V142.48C349.307 141.96 349.154 141.6 348.847 141.4C348.541 141.2 348.174 141.1 347.747 141.1C347.321 141.1 346.974 141.12 346.707 141.16C346.454 141.187 346.221 141.227 346.007 141.28C345.474 141.427 345.127 141.533 344.967 141.6L344.767 141.66C344.767 145.62 344.841 147.747 344.987 148.04C345.001 148.133 345.147 148.227 345.427 148.32C345.721 148.4 346.001 148.453 346.267 148.48L346.207 149.06ZM364.76 141.08C364.76 140.773 364.34 140.567 363.5 140.46L363.44 139.88C364 139.92 364.533 139.94 365.04 139.94L367.08 139.88L367.14 140.46C366.46 140.553 366.04 140.8 365.88 141.2L363.56 149L362.08 149.18L359.88 143.42L357.76 149L356.26 149.18L353.94 141.28C353.82 140.84 353.413 140.567 352.72 140.46L352.66 139.88C353.58 139.92 354.286 139.94 354.78 139.94L357.02 139.88L357.08 140.46C356.453 140.54 356.04 140.687 355.84 140.9C355.773 140.98 355.74 141.047 355.74 141.1C355.74 141.153 356.28 143.4 357.36 147.84L360.04 140H360.48L363.16 147.84C364.226 143.413 364.76 141.16 364.76 141.08ZM373.852 142.6C373.852 141.987 373.678 141.533 373.332 141.24C372.985 140.933 372.598 140.78 372.172 140.78C371.545 140.78 371.005 141.027 370.552 141.52C370.098 142.013 369.798 142.62 369.652 143.34L373.792 143.18C373.832 142.98 373.852 142.787 373.852 142.6ZM372.112 149.18C370.698 149.18 369.632 148.78 368.912 147.98C368.192 147.167 367.832 146.093 367.832 144.76C367.832 143.413 368.225 142.253 369.012 141.28C369.812 140.293 371.012 139.8 372.612 139.8C373.425 139.8 374.132 140.087 374.732 140.66C375.345 141.233 375.652 142.087 375.652 143.22L374.972 144.04C374.892 144.027 374.258 144.02 373.072 144.02C371.898 144.02 370.718 144.067 369.532 144.16V144.34C369.532 145.553 369.785 146.467 370.292 147.08C370.798 147.68 371.492 147.98 372.372 147.98C373.252 147.98 374.178 147.767 375.152 147.34L375.392 147.94C374.365 148.767 373.272 149.18 372.112 149.18ZM379.771 134.58C379.745 136.247 379.731 138.687 379.731 141.9C379.731 145.113 379.805 147.16 379.951 148.04C379.965 148.133 380.138 148.227 380.471 148.32C380.805 148.413 381.098 148.467 381.351 148.48L381.291 149.06C380.651 149.02 379.878 149 378.971 149C378.065 149 377.291 149.02 376.651 149.06L376.711 148.48C376.991 148.453 377.285 148.4 377.591 148.32C377.911 148.227 378.078 148.133 378.091 148.04C378.185 147.173 378.231 145.507 378.231 143.04C378.231 139.027 378.191 136.68 378.111 136L378.071 135.66L376.791 135.28L376.751 134.76C377.605 134.76 378.485 134.64 379.391 134.4L379.771 134.58ZM385.221 134.58C385.194 136.247 385.181 138.687 385.181 141.9C385.181 145.113 385.254 147.16 385.401 148.04C385.414 148.133 385.587 148.227 385.921 148.32C386.254 148.413 386.547 148.467 386.801 148.48L386.741 149.06C386.101 149.02 385.327 149 384.421 149C383.514 149 382.741 149.02 382.101 149.06L382.161 148.48C382.441 148.453 382.734 148.4 383.041 148.32C383.361 148.227 383.527 148.133 383.541 148.04C383.634 147.173 383.681 145.507 383.681 143.04C383.681 139.027 383.641 136.68 383.561 136L383.521 135.66L382.241 135.28L382.201 134.76C383.054 134.76 383.934 134.64 384.841 134.4L385.221 134.58ZM393.93 142.6C393.93 141.987 393.757 141.533 393.41 141.24C393.063 140.933 392.677 140.78 392.25 140.78C391.623 140.78 391.083 141.027 390.63 141.52C390.177 142.013 389.877 142.62 389.73 143.34L393.87 143.18C393.91 142.98 393.93 142.787 393.93 142.6ZM392.19 149.18C390.777 149.18 389.71 148.78 388.99 147.98C388.27 147.167 387.91 146.093 387.91 144.76C387.91 143.413 388.303 142.253 389.09 141.28C389.89 140.293 391.09 139.8 392.69 139.8C393.503 139.8 394.21 140.087 394.81 140.66C395.423 141.233 395.73 142.087 395.73 143.22L395.05 144.04C394.97 144.027 394.337 144.02 393.15 144.02C391.977 144.02 390.797 144.067 389.61 144.16V144.34C389.61 145.553 389.863 146.467 390.37 147.08C390.877 147.68 391.57 147.98 392.45 147.98C393.33 147.98 394.257 147.767 395.23 147.34L395.47 147.94C394.443 148.767 393.35 149.18 392.19 149.18ZM402.73 139.68C402.836 139.68 403.01 139.84 403.25 140.16C403.503 140.467 403.67 140.773 403.75 141.08L403.45 141.46C402.97 141.273 402.47 141.18 401.95 141.18C401.43 141.18 400.956 141.4 400.53 141.84C400.103 142.267 399.89 142.96 399.89 143.92C399.903 146.267 399.963 147.633 400.07 148.02C400.083 148.127 400.27 148.227 400.63 148.32C401.003 148.4 401.39 148.453 401.79 148.48L401.73 149.06C401.09 149.02 400.276 149 399.29 149C398.316 149 397.51 149.02 396.87 149.06L396.93 148.48C397.196 148.453 397.476 148.4 397.77 148.32C398.063 148.227 398.216 148.133 398.23 148.04C398.336 147.573 398.39 146.64 398.39 145.24C398.39 142.973 398.336 141.587 398.23 141.08L396.95 140.7L396.91 140.18C397.763 140.18 398.643 140.06 399.55 139.82L399.93 140C399.903 140.2 399.89 140.747 399.89 141.64C400.276 141 400.763 140.513 401.35 140.18C401.95 139.847 402.41 139.68 402.73 139.68Z" fill="black"/>
<path d="M528.415 136.3H531.455C532.922 136.3 534.042 136.653 534.815 137.36C535.588 138.067 535.975 138.967 535.975 140.06C535.975 141.14 535.495 142.133 534.535 143.04C533.575 143.947 532.295 144.4 530.695 144.4C530.255 144.4 529.782 144.36 529.275 144.28L529.435 148.62C529.462 148.86 529.588 149.033 529.815 149.14C530.042 149.233 530.482 149.347 531.135 149.48L531.075 150.06C530.235 150.02 529.322 150 528.335 150C527.348 150 526.435 150.02 525.595 150.06L525.535 149.48C526.215 149.347 526.675 149.227 526.915 149.12C527.155 149.013 527.288 148.847 527.315 148.62C527.422 147.833 527.475 146.407 527.475 144.34C527.475 140.993 527.435 138.907 527.355 138.08L527.315 137.68C527.288 137.44 527.168 137.273 526.955 137.18C526.742 137.073 526.315 136.953 525.675 136.82L525.735 136.24C526.575 136.28 527.468 136.3 528.415 136.3ZM530.375 143.56C531.522 143.56 532.422 143.287 533.075 142.74C533.728 142.193 534.055 141.367 534.055 140.26C534.055 139.14 533.775 138.34 533.215 137.86C532.655 137.38 531.815 137.14 530.695 137.14C530.202 137.14 529.888 137.173 529.755 137.24C529.622 137.307 529.528 137.5 529.475 137.82C529.342 138.513 529.275 140.407 529.275 143.5C529.662 143.54 530.028 143.56 530.375 143.56ZM540.627 141.78C540.08 141.78 539.607 141.92 539.207 142.2C538.807 142.467 538.514 142.807 538.327 143.22C537.967 143.98 537.787 144.707 537.787 145.4C537.787 146.493 538.007 147.407 538.447 148.14C538.887 148.86 539.58 149.22 540.527 149.22C541.034 149.22 541.48 149.107 541.867 148.88C542.254 148.64 542.547 148.333 542.747 147.96C543.134 147.267 543.34 146.573 543.367 145.88C543.367 143.147 542.454 141.78 540.627 141.78ZM540.727 140.8C542.247 140.8 543.354 141.187 544.047 141.96C544.74 142.733 545.087 143.813 545.087 145.2C545.087 146.573 544.687 147.747 543.887 148.72C543.1 149.693 541.947 150.18 540.427 150.18C538.907 150.18 537.8 149.8 537.107 149.04C536.414 148.267 536.067 147.193 536.067 145.82C536.067 144.447 536.46 143.267 537.247 142.28C538.047 141.293 539.207 140.8 540.727 140.8ZM550.993 149.12C552.06 149.12 552.86 148.767 553.393 148.06C553.926 147.34 554.193 146.487 554.193 145.5C554.193 144.513 553.96 143.693 553.493 143.04C553.04 142.387 552.353 142.06 551.433 142.06C551.073 142.06 550.66 142.127 550.193 142.26C549.726 142.393 549.38 142.533 549.153 142.68V148.78C549.793 149.007 550.406 149.12 550.993 149.12ZM550.613 155.26C549.973 155.22 549.2 155.2 548.293 155.2C547.386 155.2 546.613 155.22 545.973 155.26L546.033 154.68C546.926 154.6 547.386 154.473 547.413 154.3C547.573 153.54 547.653 151.92 547.653 149.44C547.653 145.44 547.613 143.1 547.533 142.42L547.493 142.08L546.213 141.7L546.173 141.18C547.013 141.18 547.886 141.06 548.793 140.82L549.173 141V141.98C550.213 141.193 551.273 140.8 552.353 140.8C553.433 140.8 554.306 141.16 554.973 141.88C555.64 142.6 555.973 143.733 555.973 145.28C555.973 146.813 555.553 148.013 554.713 148.88C553.873 149.747 552.846 150.18 551.633 150.18C550.753 150.18 549.926 149.967 549.153 149.54C549.166 152.527 549.206 154.113 549.273 154.3C549.3 154.473 549.766 154.6 550.673 154.68L550.613 155.26ZM561.911 149.12C562.978 149.12 563.778 148.767 564.311 148.06C564.844 147.34 565.111 146.487 565.111 145.5C565.111 144.513 564.878 143.693 564.411 143.04C563.958 142.387 563.271 142.06 562.351 142.06C561.991 142.06 561.578 142.127 561.111 142.26C560.644 142.393 560.298 142.533 560.071 142.68V148.78C560.711 149.007 561.324 149.12 561.911 149.12ZM561.531 155.26C560.891 155.22 560.118 155.2 559.211 155.2C558.304 155.2 557.531 155.22 556.891 155.26L556.951 154.68C557.844 154.6 558.304 154.473 558.331 154.3C558.491 153.54 558.571 151.92 558.571 149.44C558.571 145.44 558.531 143.1 558.451 142.42L558.411 142.08L557.131 141.7L557.091 141.18C557.931 141.18 558.804 141.06 559.711 140.82L560.091 141V141.98C561.131 141.193 562.191 140.8 563.271 140.8C564.351 140.8 565.224 141.16 565.891 141.88C566.558 142.6 566.891 143.733 566.891 145.28C566.891 146.813 566.471 148.013 565.631 148.88C564.791 149.747 563.764 150.18 562.551 150.18C561.671 150.18 560.844 149.967 560.071 149.54C560.084 152.527 560.124 154.113 560.191 154.3C560.218 154.473 560.684 154.6 561.591 154.68L561.531 155.26ZM571.229 138.44C571.029 138.64 570.782 138.74 570.489 138.74C570.196 138.74 569.949 138.64 569.749 138.44C569.549 138.227 569.449 137.973 569.449 137.68C569.449 137.373 569.549 137.12 569.749 136.92C569.949 136.72 570.196 136.62 570.489 136.62C570.782 136.62 571.029 136.72 571.229 136.92C571.429 137.12 571.529 137.373 571.529 137.68C571.529 137.973 571.429 138.227 571.229 138.44ZM571.309 141L571.269 145.42C571.269 147.14 571.322 148.26 571.429 148.78L571.469 149.04C571.482 149.133 571.649 149.227 571.969 149.32C572.302 149.4 572.609 149.453 572.889 149.48L572.829 150.06C572.189 150.02 571.409 150 570.489 150C569.569 150 568.789 150.02 568.149 150.06L568.209 149.48C568.489 149.453 568.789 149.4 569.109 149.32C569.429 149.227 569.596 149.133 569.609 149.04C569.716 148.573 569.769 147.64 569.769 146.24C569.769 143.973 569.716 142.587 569.609 142.08L568.329 141.7L568.289 141.18C569.142 141.18 570.022 141.06 570.929 140.82L571.309 141ZM576.677 142.66L576.657 145.42C576.657 147.14 576.71 148.26 576.817 148.78L576.857 149.04C576.87 149.133 577.017 149.227 577.297 149.32C577.59 149.4 577.87 149.453 578.137 149.48L578.077 150.06C577.437 150.02 576.703 150 575.877 150C575.05 150 574.317 150.02 573.677 150.06L573.737 149.48C573.99 149.453 574.257 149.4 574.537 149.32C574.83 149.227 574.983 149.133 574.997 149.04C575.103 148.573 575.157 147.64 575.157 146.24C575.157 143.973 575.103 142.587 574.997 142.08L573.717 141.7L573.677 141.18C574.53 141.18 575.41 141.06 576.317 140.82L576.697 141V141.96C578.177 141.187 579.463 140.8 580.557 140.8C581.223 140.8 581.73 140.933 582.077 141.2C582.423 141.467 582.597 141.967 582.597 142.7V145.42C582.597 147.14 582.643 148.26 582.737 148.78L582.797 149.04C582.81 149.133 582.957 149.227 583.237 149.32C583.53 149.4 583.81 149.453 584.077 149.48L584.017 150.06C583.377 150.02 582.643 150 581.817 150C580.99 150 580.257 150.02 579.617 150.06L579.677 149.48C579.93 149.453 580.197 149.4 580.477 149.32C580.77 149.227 580.923 149.133 580.937 149.04C581.043 148.573 581.097 147.367 581.097 145.42V143.48C581.097 142.96 580.943 142.6 580.637 142.4C580.33 142.2 579.81 142.1 579.077 142.1C578.343 142.1 577.543 142.287 576.677 142.66ZM590.608 141.16L590.888 141.3C590.888 142.167 590.928 142.827 591.008 143.28L590.488 143.46C590.315 142.78 590.068 142.307 589.748 142.04C589.442 141.773 589.048 141.64 588.568 141.64C588.088 141.64 587.708 141.767 587.428 142.02C587.148 142.273 587.008 142.573 587.008 142.92C587.008 143.52 587.355 144.013 588.048 144.4L590.088 145.52C590.968 146.013 591.408 146.727 591.408 147.66C591.408 148.34 591.135 148.933 590.588 149.44C590.055 149.933 589.288 150.18 588.288 150.18C587.288 150.18 586.262 150.013 585.208 149.68C585.368 148.747 585.448 147.98 585.448 147.38L585.968 147.2C586.088 147.68 586.175 148.007 586.228 148.18C586.295 148.353 586.402 148.567 586.548 148.82C586.708 149.073 586.908 149.24 587.148 149.32C587.388 149.4 587.742 149.44 588.208 149.44C588.675 149.44 589.062 149.307 589.368 149.04C589.675 148.773 589.828 148.453 589.828 148.08C589.828 147.52 589.515 147.067 588.888 146.72L586.728 145.52C585.848 145.053 585.408 144.34 585.408 143.38C585.408 142.7 585.668 142.1 586.188 141.58C586.708 141.06 587.435 140.8 588.368 140.8C589.302 140.8 590.048 140.92 590.608 141.16ZM507.971 168.18C507.971 169.553 508.225 170.96 508.731 172.4C509.251 173.84 510.018 175.147 511.031 176.32L510.411 176.9C508.878 175.647 507.771 174.253 507.091 172.72C506.425 171.173 506.091 169.66 506.091 168.18C506.091 164.953 507.531 162.167 510.411 159.82L511.031 160.38C508.991 162.78 507.971 165.38 507.971 168.18ZM523.841 165.16L524.121 165.3C524.121 166.167 524.161 166.827 524.241 167.28L523.721 167.46C523.547 166.78 523.301 166.307 522.981 166.04C522.674 165.773 522.281 165.64 521.801 165.64C521.321 165.64 520.941 165.767 520.661 166.02C520.381 166.273 520.241 166.573 520.241 166.92C520.241 167.52 520.587 168.013 521.281 168.4L523.321 169.52C524.201 170.013 524.641 170.727 524.641 171.66C524.641 172.34 524.367 172.933 523.821 173.44C523.287 173.933 522.521 174.18 521.521 174.18C520.521 174.18 519.494 174.013 518.441 173.68C518.601 172.747 518.681 171.98 518.681 171.38L519.201 171.2C519.321 171.68 519.407 172.007 519.461 172.18C519.527 172.353 519.634 172.567 519.781 172.82C519.941 173.073 520.141 173.24 520.381 173.32C520.621 173.4 520.974 173.44 521.441 173.44C521.907 173.44 522.294 173.307 522.601 173.04C522.907 172.773 523.061 172.453 523.061 172.08C523.061 171.52 522.747 171.067 522.121 170.72L519.961 169.52C519.081 169.053 518.641 168.34 518.641 167.38C518.641 166.7 518.901 166.1 519.421 165.58C519.941 165.06 520.667 164.8 521.601 164.8C522.534 164.8 523.281 164.92 523.841 165.16ZM532.037 167.6C532.037 166.987 531.864 166.533 531.517 166.24C531.171 165.933 530.784 165.78 530.357 165.78C529.731 165.78 529.191 166.027 528.737 166.52C528.284 167.013 527.984 167.62 527.837 168.34L531.977 168.18C532.017 167.98 532.037 167.787 532.037 167.6ZM530.297 174.18C528.884 174.18 527.817 173.78 527.097 172.98C526.377 172.167 526.017 171.093 526.017 169.76C526.017 168.413 526.411 167.253 527.197 166.28C527.997 165.293 529.197 164.8 530.797 164.8C531.611 164.8 532.317 165.087 532.917 165.66C533.531 166.233 533.837 167.087 533.837 168.22L533.157 169.04C533.077 169.027 532.444 169.02 531.257 169.02C530.084 169.02 528.904 169.067 527.717 169.16V169.34C527.717 170.553 527.971 171.467 528.477 172.08C528.984 172.68 529.677 172.98 530.557 172.98C531.437 172.98 532.364 172.767 533.337 172.34L533.577 172.94C532.551 173.767 531.457 174.18 530.297 174.18ZM543.637 169.42C543.637 171.14 543.684 172.26 543.777 172.78L543.837 173.04C543.85 173.133 543.997 173.227 544.277 173.32C544.57 173.4 544.85 173.453 545.117 173.48L545.057 174.06C544.417 174.02 543.684 174 542.857 174C542.03 174 541.297 174.02 540.657 174.06L540.717 173.48C540.97 173.453 541.237 173.4 541.517 173.32C541.81 173.227 541.964 173.133 541.977 173.04C542.084 172.573 542.137 171.367 542.137 169.42V167.48C542.137 166.96 541.984 166.6 541.677 166.4C541.37 166.2 541.004 166.1 540.577 166.1C540.15 166.1 539.817 166.12 539.577 166.16C539.337 166.187 539.124 166.227 538.937 166.28C538.684 166.347 538.337 166.473 537.897 166.66V169.42C537.897 171.073 537.95 172.193 538.057 172.78L538.117 173.04C538.13 173.133 538.277 173.227 538.557 173.32C538.85 173.4 539.13 173.453 539.397 173.48L539.337 174.06C538.697 174.02 537.964 174 537.137 174C536.31 174 535.577 174.02 534.937 174.06L534.997 173.48C535.25 173.453 535.517 173.4 535.797 173.32C536.09 173.227 536.244 173.133 536.257 173.04C536.35 172.573 536.397 171.64 536.397 170.24C536.397 167.973 536.344 166.587 536.237 166.08L534.957 165.7L534.917 165.18C535.77 165.18 536.65 165.06 537.557 164.82L537.937 165C537.924 165.333 537.917 165.653 537.917 165.96C539.397 165.187 540.657 164.8 541.697 164.8C542.737 164.8 543.357 165.193 543.557 165.98C544.957 165.193 546.224 164.8 547.357 164.8C548.024 164.8 548.53 164.933 548.877 165.2C549.224 165.467 549.397 165.967 549.397 166.7V169.42C549.397 171.14 549.444 172.26 549.537 172.78L549.597 173.04C549.61 173.133 549.757 173.227 550.037 173.32C550.33 173.4 550.61 173.453 550.877 173.48L550.817 174.06C550.177 174.02 549.444 174 548.617 174C547.79 174 547.057 174.02 546.417 174.06L546.477 173.48C546.73 173.453 546.997 173.4 547.277 173.32C547.57 173.227 547.724 173.133 547.737 173.04C547.844 172.573 547.897 171.367 547.897 169.42V167.48C547.897 166.96 547.744 166.6 547.437 166.4C547.13 166.2 546.584 166.1 545.797 166.1C545.024 166.1 544.304 166.287 543.637 166.66V169.42ZM554.735 162.44C554.535 162.64 554.288 162.74 553.995 162.74C553.702 162.74 553.455 162.64 553.255 162.44C553.055 162.227 552.955 161.973 552.955 161.68C552.955 161.373 553.055 161.12 553.255 160.92C553.455 160.72 553.702 160.62 553.995 160.62C554.288 160.62 554.535 160.72 554.735 160.92C554.935 161.12 555.035 161.373 555.035 161.68C555.035 161.973 554.935 162.227 554.735 162.44ZM554.815 165L554.775 169.42C554.775 171.14 554.828 172.26 554.935 172.78L554.975 173.04C554.988 173.133 555.155 173.227 555.475 173.32C555.808 173.4 556.115 173.453 556.395 173.48L556.335 174.06C555.695 174.02 554.915 174 553.995 174C553.075 174 552.295 174.02 551.655 174.06L551.715 173.48C551.995 173.453 552.295 173.4 552.615 173.32C552.935 173.227 553.102 173.133 553.115 173.04C553.222 172.573 553.275 171.64 553.275 170.24C553.275 167.973 553.222 166.587 553.115 166.08L551.835 165.7L551.795 165.18C552.648 165.18 553.528 165.06 554.435 164.82L554.815 165ZM566.723 173.26C567.683 173.26 568.443 172.873 569.003 172.1C569.563 171.313 569.843 170.433 569.843 169.46C569.843 168.473 569.603 167.653 569.123 167C568.643 166.347 567.969 166.02 567.103 166.02C566.449 166.02 565.703 166.233 564.863 166.66C564.863 169.873 564.923 171.96 565.043 172.92C565.629 173.147 566.189 173.26 566.723 173.26ZM564.863 165.96C565.969 165.2 567.036 164.82 568.063 164.82C569.103 164.82 569.956 165.273 570.623 166.18C571.289 167.073 571.623 168.153 571.623 169.42C571.623 170.687 571.189 171.8 570.323 172.76C569.456 173.72 568.189 174.2 566.523 174.2C565.416 174.2 564.309 173.967 563.203 173.5C563.309 172.327 563.363 170.507 563.363 168.04C563.363 164.027 563.323 161.68 563.243 161L563.203 160.66L561.923 160.28L561.883 159.76C562.736 159.76 563.616 159.64 564.523 159.4L564.903 159.58C564.876 161.06 564.863 163.187 564.863 165.96ZM577.785 165.78C577.239 165.78 576.765 165.92 576.365 166.2C575.965 166.467 575.672 166.807 575.485 167.22C575.125 167.98 574.945 168.707 574.945 169.4C574.945 170.493 575.165 171.407 575.605 172.14C576.045 172.86 576.739 173.22 577.685 173.22C578.192 173.22 578.639 173.107 579.025 172.88C579.412 172.64 579.705 172.333 579.905 171.96C580.292 171.267 580.499 170.573 580.525 169.88C580.525 167.147 579.612 165.78 577.785 165.78ZM577.885 164.8C579.405 164.8 580.512 165.187 581.205 165.96C581.899 166.733 582.245 167.813 582.245 169.2C582.245 170.573 581.845 171.747 581.045 172.72C580.259 173.693 579.105 174.18 577.585 174.18C576.065 174.18 574.959 173.8 574.265 173.04C573.572 172.267 573.225 171.193 573.225 169.82C573.225 168.447 573.619 167.267 574.405 166.28C575.205 165.293 576.365 164.8 577.885 164.8ZM586.531 159.58C586.505 161.247 586.491 163.687 586.491 166.9C586.491 170.113 586.565 172.16 586.711 173.04C586.725 173.133 586.898 173.227 587.231 173.32C587.565 173.413 587.858 173.467 588.111 173.48L588.051 174.06C587.411 174.02 586.638 174 585.731 174C584.825 174 584.051 174.02 583.411 174.06L583.471 173.48C583.751 173.453 584.045 173.4 584.351 173.32C584.671 173.227 584.838 173.133 584.851 173.04C584.945 172.173 584.991 170.507 584.991 168.04C584.991 164.027 584.951 161.68 584.871 161L584.831 160.66L583.551 160.28L583.511 159.76C584.365 159.76 585.245 159.64 586.151 159.4L586.531 159.58ZM596.02 172.88C595.1 173.747 594.094 174.18 593 174.18C591.907 174.18 591.007 173.787 590.3 173C589.607 172.2 589.26 171.067 589.26 169.6C589.26 168.12 589.674 166.947 590.5 166.08C591.34 165.213 592.374 164.78 593.6 164.78C594.267 164.78 595.067 165.013 596 165.48C596 163.013 595.96 161.5 595.88 160.94L595.84 160.66L594.56 160.28L594.52 159.76C595.374 159.76 596.254 159.64 597.16 159.4L597.54 159.58C597.514 161.247 597.5 163.607 597.5 166.66C597.5 169.713 597.514 171.46 597.54 171.9C597.567 172.34 597.62 172.62 597.7 172.74C597.794 172.847 597.927 172.927 598.1 172.98C598.38 173.06 598.707 173.113 599.08 173.14L599.02 173.72C598.54 173.76 597.814 173.88 596.84 174.08C596.44 173.907 596.167 173.507 596.02 172.88ZM594.12 166C593.067 166 592.287 166.347 591.78 167.04C591.287 167.72 591.04 168.567 591.04 169.58C591.04 170.593 591.26 171.407 591.7 172.02C592.14 172.62 592.767 172.92 593.58 172.92C594.394 172.92 595.167 172.687 595.9 172.22C595.967 171.153 596 169.2 596 166.36C595.307 166.12 594.68 166 594.12 166ZM609.019 168.18C609.019 165.38 607.999 162.78 605.959 160.38L606.579 159.82C609.459 162.167 610.899 164.953 610.899 168.18C610.899 169.66 610.559 171.173 609.879 172.72C609.213 174.253 608.113 175.647 606.579 176.9L605.959 176.32C606.973 175.147 607.733 173.84 608.239 172.4C608.759 170.96 609.019 169.553 609.019 168.18Z" fill="black"/>
<path d="M740.415 136.3H743.455C744.922 136.3 746.042 136.653 746.815 137.36C747.588 138.067 747.975 138.967 747.975 140.06C747.975 141.14 747.495 142.133 746.535 143.04C745.575 143.947 744.295 144.4 742.695 144.4C742.255 144.4 741.782 144.36 741.275 144.28L741.435 148.62C741.462 148.86 741.588 149.033 741.815 149.14C742.042 149.233 742.482 149.347 743.135 149.48L743.075 150.06C742.235 150.02 741.322 150 740.335 150C739.348 150 738.435 150.02 737.595 150.06L737.535 149.48C738.215 149.347 738.675 149.227 738.915 149.12C739.155 149.013 739.288 148.847 739.315 148.62C739.422 147.833 739.475 146.407 739.475 144.34C739.475 140.993 739.435 138.907 739.355 138.08L739.315 137.68C739.288 137.44 739.168 137.273 738.955 137.18C738.742 137.073 738.315 136.953 737.675 136.82L737.735 136.24C738.575 136.28 739.468 136.3 740.415 136.3ZM742.375 143.56C743.522 143.56 744.422 143.287 745.075 142.74C745.728 142.193 746.055 141.367 746.055 140.26C746.055 139.14 745.775 138.34 745.215 137.86C744.655 137.38 743.815 137.14 742.695 137.14C742.202 137.14 741.888 137.173 741.755 137.24C741.622 137.307 741.528 137.5 741.475 137.82C741.342 138.513 741.275 140.407 741.275 143.5C741.662 143.54 742.028 143.56 742.375 143.56ZM752.627 141.78C752.08 141.78 751.607 141.92 751.207 142.2C750.807 142.467 750.514 142.807 750.327 143.22C749.967 143.98 749.787 144.707 749.787 145.4C749.787 146.493 750.007 147.407 750.447 148.14C750.887 148.86 751.58 149.22 752.527 149.22C753.034 149.22 753.48 149.107 753.867 148.88C754.254 148.64 754.547 148.333 754.747 147.96C755.134 147.267 755.34 146.573 755.367 145.88C755.367 143.147 754.454 141.78 752.627 141.78ZM752.727 140.8C754.247 140.8 755.354 141.187 756.047 141.96C756.74 142.733 757.087 143.813 757.087 145.2C757.087 146.573 756.687 147.747 755.887 148.72C755.1 149.693 753.947 150.18 752.427 150.18C750.907 150.18 749.8 149.8 749.107 149.04C748.414 148.267 748.067 147.193 748.067 145.82C748.067 144.447 748.46 143.267 749.247 142.28C750.047 141.293 751.207 140.8 752.727 140.8ZM762.993 149.12C764.06 149.12 764.86 148.767 765.393 148.06C765.926 147.34 766.193 146.487 766.193 145.5C766.193 144.513 765.96 143.693 765.493 143.04C765.04 142.387 764.353 142.06 763.433 142.06C763.073 142.06 762.66 142.127 762.193 142.26C761.726 142.393 761.38 142.533 761.153 142.68V148.78C761.793 149.007 762.406 149.12 762.993 149.12ZM762.613 155.26C761.973 155.22 761.2 155.2 760.293 155.2C759.386 155.2 758.613 155.22 757.973 155.26L758.033 154.68C758.926 154.6 759.386 154.473 759.413 154.3C759.573 153.54 759.653 151.92 759.653 149.44C759.653 145.44 759.613 143.1 759.533 142.42L759.493 142.08L758.213 141.7L758.173 141.18C759.013 141.18 759.886 141.06 760.793 140.82L761.173 141V141.98C762.213 141.193 763.273 140.8 764.353 140.8C765.433 140.8 766.306 141.16 766.973 141.88C767.64 142.6 767.973 143.733 767.973 145.28C767.973 146.813 767.553 148.013 766.713 148.88C765.873 149.747 764.846 150.18 763.633 150.18C762.753 150.18 761.926 149.967 761.153 149.54C761.166 152.527 761.206 154.113 761.273 154.3C761.3 154.473 761.766 154.6 762.673 154.68L762.613 155.26ZM773.911 149.12C774.978 149.12 775.778 148.767 776.311 148.06C776.844 147.34 777.111 146.487 777.111 145.5C777.111 144.513 776.878 143.693 776.411 143.04C775.958 142.387 775.271 142.06 774.351 142.06C773.991 142.06 773.578 142.127 773.111 142.26C772.644 142.393 772.298 142.533 772.071 142.68V148.78C772.711 149.007 773.324 149.12 773.911 149.12ZM773.531 155.26C772.891 155.22 772.118 155.2 771.211 155.2C770.304 155.2 769.531 155.22 768.891 155.26L768.951 154.68C769.844 154.6 770.304 154.473 770.331 154.3C770.491 153.54 770.571 151.92 770.571 149.44C770.571 145.44 770.531 143.1 770.451 142.42L770.411 142.08L769.131 141.7L769.091 141.18C769.931 141.18 770.804 141.06 771.711 140.82L772.091 141V141.98C773.131 141.193 774.191 140.8 775.271 140.8C776.351 140.8 777.224 141.16 777.891 141.88C778.558 142.6 778.891 143.733 778.891 145.28C778.891 146.813 778.471 148.013 777.631 148.88C776.791 149.747 775.764 150.18 774.551 150.18C773.671 150.18 772.844 149.967 772.071 149.54C772.084 152.527 772.124 154.113 772.191 154.3C772.218 154.473 772.684 154.6 773.591 154.68L773.531 155.26ZM783.229 138.44C783.029 138.64 782.782 138.74 782.489 138.74C782.196 138.74 781.949 138.64 781.749 138.44C781.549 138.227 781.449 137.973 781.449 137.68C781.449 137.373 781.549 137.12 781.749 136.92C781.949 136.72 782.196 136.62 782.489 136.62C782.782 136.62 783.029 136.72 783.229 136.92C783.429 137.12 783.529 137.373 783.529 137.68C783.529 137.973 783.429 138.227 783.229 138.44ZM783.309 141L783.269 145.42C783.269 147.14 783.322 148.26 783.429 148.78L783.469 149.04C783.482 149.133 783.649 149.227 783.969 149.32C784.302 149.4 784.609 149.453 784.889 149.48L784.829 150.06C784.189 150.02 783.409 150 782.489 150C781.569 150 780.789 150.02 780.149 150.06L780.209 149.48C780.489 149.453 780.789 149.4 781.109 149.32C781.429 149.227 781.596 149.133 781.609 149.04C781.716 148.573 781.769 147.64 781.769 146.24C781.769 143.973 781.716 142.587 781.609 142.08L780.329 141.7L780.289 141.18C781.142 141.18 782.022 141.06 782.929 140.82L783.309 141ZM788.677 142.66L788.657 145.42C788.657 147.14 788.71 148.26 788.817 148.78L788.857 149.04C788.87 149.133 789.017 149.227 789.297 149.32C789.59 149.4 789.87 149.453 790.137 149.48L790.077 150.06C789.437 150.02 788.703 150 787.877 150C787.05 150 786.317 150.02 785.677 150.06L785.737 149.48C785.99 149.453 786.257 149.4 786.537 149.32C786.83 149.227 786.983 149.133 786.997 149.04C787.103 148.573 787.157 147.64 787.157 146.24C787.157 143.973 787.103 142.587 786.997 142.08L785.717 141.7L785.677 141.18C786.53 141.18 787.41 141.06 788.317 140.82L788.697 141V141.96C790.177 141.187 791.463 140.8 792.557 140.8C793.223 140.8 793.73 140.933 794.077 141.2C794.423 141.467 794.597 141.967 794.597 142.7V145.42C794.597 147.14 794.643 148.26 794.737 148.78L794.797 149.04C794.81 149.133 794.957 149.227 795.237 149.32C795.53 149.4 795.81 149.453 796.077 149.48L796.017 150.06C795.377 150.02 794.643 150 793.817 150C792.99 150 792.257 150.02 791.617 150.06L791.677 149.48C791.93 149.453 792.197 149.4 792.477 149.32C792.77 149.227 792.923 149.133 792.937 149.04C793.043 148.573 793.097 147.367 793.097 145.42V143.48C793.097 142.96 792.943 142.6 792.637 142.4C792.33 142.2 791.81 142.1 791.077 142.1C790.343 142.1 789.543 142.287 788.677 142.66ZM802.608 141.16L802.888 141.3C802.888 142.167 802.928 142.827 803.008 143.28L802.488 143.46C802.315 142.78 802.068 142.307 801.748 142.04C801.442 141.773 801.048 141.64 800.568 141.64C800.088 141.64 799.708 141.767 799.428 142.02C799.148 142.273 799.008 142.573 799.008 142.92C799.008 143.52 799.355 144.013 800.048 144.4L802.088 145.52C802.968 146.013 803.408 146.727 803.408 147.66C803.408 148.34 803.135 148.933 802.588 149.44C802.055 149.933 801.288 150.18 800.288 150.18C799.288 150.18 798.262 150.013 797.208 149.68C797.368 148.747 797.448 147.98 797.448 147.38L797.968 147.2C798.088 147.68 798.175 148.007 798.228 148.18C798.295 148.353 798.402 148.567 798.548 148.82C798.708 149.073 798.908 149.24 799.148 149.32C799.388 149.4 799.742 149.44 800.208 149.44C800.675 149.44 801.062 149.307 801.368 149.04C801.675 148.773 801.828 148.453 801.828 148.08C801.828 147.52 801.515 147.067 800.888 146.72L798.728 145.52C797.848 145.053 797.408 144.34 797.408 143.38C797.408 142.7 797.668 142.1 798.188 141.58C798.708 141.06 799.435 140.8 800.368 140.8C801.302 140.8 802.048 140.92 802.608 141.16ZM731.26 168.18C731.26 169.553 731.514 170.96 732.02 172.4C732.54 173.84 733.307 175.147 734.32 176.32L733.7 176.9C732.167 175.647 731.06 174.253 730.38 172.72C729.714 171.173 729.38 169.66 729.38 168.18C729.38 164.953 730.82 162.167 733.7 159.82L734.32 160.38C732.28 162.78 731.26 165.38 731.26 168.18ZM747.31 164.68C747.416 164.68 747.59 164.84 747.83 165.16C748.083 165.467 748.25 165.773 748.33 166.08L748.03 166.46C747.55 166.273 747.05 166.18 746.53 166.18C746.01 166.18 745.536 166.4 745.11 166.84C744.683 167.267 744.47 167.96 744.47 168.92C744.483 171.267 744.543 172.633 744.65 173.02C744.663 173.127 744.85 173.227 745.21 173.32C745.583 173.4 745.97 173.453 746.37 173.48L746.31 174.06C745.67 174.02 744.856 174 743.87 174C742.896 174 742.09 174.02 741.45 174.06L741.51 173.48C741.776 173.453 742.056 173.4 742.35 173.32C742.643 173.227 742.796 173.133 742.81 173.04C742.916 172.573 742.97 171.64 742.97 170.24C742.97 167.973 742.916 166.587 742.81 166.08L741.53 165.7L741.49 165.18C742.343 165.18 743.223 165.06 744.13 164.82L744.51 165C744.483 165.2 744.47 165.747 744.47 166.64C744.856 166 745.343 165.513 745.93 165.18C746.53 164.847 746.99 164.68 747.31 164.68ZM754.721 167.6C754.721 166.987 754.548 166.533 754.201 166.24C753.854 165.933 753.468 165.78 753.041 165.78C752.414 165.78 751.874 166.027 751.421 166.52C750.968 167.013 750.668 167.62 750.521 168.34L754.661 168.18C754.701 167.98 754.721 167.787 754.721 167.6ZM752.981 174.18C751.568 174.18 750.501 173.78 749.781 172.98C749.061 172.167 748.701 171.093 748.701 169.76C748.701 168.413 749.094 167.253 749.881 166.28C750.681 165.293 751.881 164.8 753.481 164.8C754.294 164.8 755.001 165.087 755.601 165.66C756.214 166.233 756.521 167.087 756.521 168.22L755.841 169.04C755.761 169.027 755.128 169.02 753.941 169.02C752.768 169.02 751.588 169.067 750.401 169.16V169.34C750.401 170.553 750.654 171.467 751.161 172.08C751.668 172.68 752.361 172.98 753.241 172.98C754.121 172.98 755.048 172.767 756.021 172.34L756.261 172.94C755.234 173.767 754.141 174.18 752.981 174.18ZM765.821 164.08C765.927 164.08 766.101 164.24 766.341 164.56C766.594 164.867 766.761 165.173 766.841 165.48L766.541 165.86C766.301 165.74 766.014 165.68 765.681 165.68C765.347 165.68 765.034 165.753 764.741 165.9C765.207 166.473 765.441 167.227 765.441 168.16C765.441 169.093 765.134 169.893 764.521 170.56C763.907 171.213 763.001 171.54 761.801 171.54C761.494 171.54 761.201 171.52 760.921 171.48C760.427 172.12 760.181 172.56 760.181 172.8C760.181 173.107 760.614 173.26 761.481 173.26H762.981C765.501 173.26 766.761 174.073 766.761 175.7C766.761 176.607 766.254 177.427 765.241 178.16C764.241 178.893 762.894 179.26 761.201 179.26C760.214 179.26 759.361 179.093 758.641 178.76C757.921 178.44 757.561 177.98 757.561 177.38C757.561 176.527 758.247 175.547 759.621 174.44C758.781 174.253 758.361 173.933 758.361 173.48C758.361 173.027 758.961 172.313 760.161 171.34C758.814 170.913 758.141 169.84 758.141 168.12C758.141 167.24 758.447 166.473 759.061 165.82C759.687 165.153 760.561 164.82 761.681 164.82C762.814 164.82 763.661 165.02 764.221 165.42C764.381 165.167 764.627 164.88 764.961 164.56C765.294 164.24 765.581 164.08 765.821 164.08ZM759.241 176.72C759.241 177.24 759.434 177.66 759.821 177.98C760.207 178.3 760.841 178.46 761.721 178.46C762.601 178.46 763.381 178.18 764.061 177.62C764.741 177.073 765.081 176.487 765.081 175.86C765.081 175.46 764.907 175.133 764.561 174.88C764.214 174.627 763.674 174.5 762.941 174.5H760.241C759.574 175.247 759.241 175.987 759.241 176.72ZM761.821 165.64C761.434 165.64 761.094 165.733 760.801 165.92C760.521 166.093 760.314 166.32 760.181 166.6C759.954 167.133 759.841 167.7 759.841 168.3C759.841 168.9 759.987 169.453 760.281 169.96C760.587 170.467 761.074 170.72 761.741 170.72C762.221 170.72 762.614 170.58 762.921 170.3C763.241 170.007 763.447 169.707 763.541 169.4C763.647 169.093 763.707 168.773 763.721 168.44C763.721 166.573 763.087 165.64 761.821 165.64ZM770.685 174.18C769.325 174.18 768.645 173.487 768.645 172.1V169.42C768.645 167.633 768.599 166.52 768.505 166.08L767.325 165.7L767.285 165.18C768.072 165.18 768.919 165.06 769.825 164.82L770.205 165C770.165 167.387 770.145 169.553 770.145 171.5C770.145 172.393 770.685 172.84 771.765 172.84C772.219 172.84 772.705 172.767 773.225 172.62C773.745 172.46 774.159 172.287 774.465 172.1C774.519 171.38 774.545 170.533 774.545 169.56C774.545 167.747 774.492 166.587 774.385 166.08L773.125 165.7L773.085 165.18C773.939 165.18 774.819 165.06 775.725 164.82L776.105 165C776.065 166 776.045 167.653 776.045 169.96L776.105 172.3C776.105 172.527 776.192 172.707 776.365 172.84C776.552 172.96 776.732 173.04 776.905 173.08C777.079 173.107 777.319 173.127 777.625 173.14L777.565 173.72C777.085 173.76 776.359 173.88 775.385 174.08C774.985 173.907 774.712 173.507 774.565 172.88C773.285 173.747 771.992 174.18 770.685 174.18ZM781.441 159.58C781.415 161.247 781.401 163.687 781.401 166.9C781.401 170.113 781.475 172.16 781.621 173.04C781.635 173.133 781.808 173.227 782.141 173.32C782.475 173.413 782.768 173.467 783.021 173.48L782.961 174.06C782.321 174.02 781.548 174 780.641 174C779.735 174 778.961 174.02 778.321 174.06L778.381 173.48C778.661 173.453 778.955 173.4 779.261 173.32C779.581 173.227 779.748 173.133 779.761 173.04C779.855 172.173 779.901 170.507 779.901 168.04C779.901 164.027 779.861 161.68 779.781 161L779.741 160.66L778.461 160.28L778.421 159.76C779.275 159.76 780.155 159.64 781.061 159.4L781.441 159.58ZM789.211 169.8C788.117 169.827 787.284 170.033 786.711 170.42C786.137 170.807 785.851 171.227 785.851 171.68C785.851 172.133 785.964 172.467 786.191 172.68C786.431 172.88 786.811 172.98 787.331 172.98C787.851 172.98 788.477 172.76 789.211 172.32V169.8ZM790.671 174.18C789.871 174.18 789.404 173.747 789.271 172.88C788.097 173.747 787.084 174.18 786.231 174.18C785.657 174.18 785.171 174.007 784.771 173.66C784.371 173.3 784.171 172.747 784.171 172C784.171 171.253 784.564 170.58 785.351 169.98C786.151 169.38 787.437 169.02 789.211 168.9V167.04C789.211 166.667 789.071 166.38 788.791 166.18C788.524 165.98 788.144 165.88 787.651 165.88C787.157 165.88 786.764 166.02 786.471 166.3C786.177 166.567 786.031 166.913 786.031 167.34C786.031 167.5 786.051 167.68 786.091 167.88L785.651 168.08C785.384 167.933 785.131 167.733 784.891 167.48C784.664 167.227 784.551 167.047 784.551 166.94C784.551 166.82 784.637 166.653 784.811 166.44C784.997 166.213 785.244 165.973 785.551 165.72C785.857 165.467 786.264 165.253 786.771 165.08C787.291 164.893 787.871 164.8 788.511 164.8C789.151 164.8 789.671 164.96 790.071 165.28C790.471 165.587 790.671 166.153 790.671 166.98C790.671 167.793 790.711 169.52 790.791 172.16C790.804 172.8 791.044 173.12 791.511 173.12C791.711 173.12 791.917 173.067 792.131 172.96L792.331 173.48C791.824 173.947 791.271 174.18 790.671 174.18ZM798.911 164.68C799.018 164.68 799.191 164.84 799.431 165.16C799.685 165.467 799.851 165.773 799.931 166.08L799.631 166.46C799.151 166.273 798.651 166.18 798.131 166.18C797.611 166.18 797.138 166.4 796.711 166.84C796.285 167.267 796.071 167.96 796.071 168.92C796.085 171.267 796.145 172.633 796.251 173.02C796.265 173.127 796.451 173.227 796.811 173.32C797.185 173.4 797.571 173.453 797.971 173.48L797.911 174.06C797.271 174.02 796.458 174 795.471 174C794.498 174 793.691 174.02 793.051 174.06L793.111 173.48C793.378 173.453 793.658 173.4 793.951 173.32C794.245 173.227 794.398 173.133 794.411 173.04C794.518 172.573 794.571 171.64 794.571 170.24C794.571 167.973 794.518 166.587 794.411 166.08L793.131 165.7L793.091 165.18C793.945 165.18 794.825 165.06 795.731 164.82L796.111 165C796.085 165.2 796.071 165.747 796.071 166.64C796.458 166 796.945 165.513 797.531 165.18C798.131 164.847 798.591 164.68 798.911 164.68ZM809.73 168.18C809.73 165.38 808.71 162.78 806.67 160.38L807.29 159.82C810.17 162.167 811.61 164.953 811.61 168.18C811.61 169.66 811.27 171.173 810.59 172.72C809.924 174.253 808.824 175.647 807.29 176.9L806.67 176.32C807.684 175.147 808.444 173.84 808.95 172.4C809.47 170.96 809.73 169.553 809.73 168.18Z" fill="black"/>
<line x1="453.5" y1="169" x2="453.5" y2="44" stroke="black"/>
<line x1="663.5" y1="169" x2="663.5" y2="44" stroke="black"/>
<path d="M331.262 121H316.027L313.439 102.201H306.555L303.967 121H288.732L300.256 50.9805H319.738L331.262 121ZM312.17 92.4844L309.973 71.5859L307.873 92.4844H312.17ZM366.418 121H354.113V118.803C353.072 120.788 350.093 121.781 345.178 121.781C337.593 121.781 333.801 118.819 333.801 112.895V101.518C333.801 98.9785 334.712 96.765 336.535 94.877C338.391 92.9889 342.102 90.6289 347.668 87.7969C350.891 86.1693 352.502 84.8672 352.502 83.8906V75.4922C352.502 73.6367 351.704 72.709 350.109 72.709C348.286 72.709 347.375 74.9714 347.375 79.4961C347.375 80.3099 347.424 81.5143 347.521 83.1094C347.652 84.7044 347.717 85.9089 347.717 86.7227H334.289V75.3945C334.289 67.7448 339.823 63.9199 350.891 63.9199C361.242 63.9199 366.418 67.9076 366.418 75.8828V121ZM352.502 110.404V95.8047C349.312 96.5859 347.717 98.0182 347.717 100.102V110.404C347.717 112.13 348.547 112.992 350.207 112.992C351.737 112.992 352.502 112.13 352.502 110.404Z" fill="black"/>
<path d="M543.7 107.7H515.9L511.3 121H496.6L521.7 51.1H538L563.1 121H548.3L543.7 107.7ZM539.9 96.5L529.8 67.3L519.7 96.5H539.9ZM568.882 93.1C568.882 87.5 569.982 82.5333 572.182 78.2C574.449 73.8667 577.482 70.5333 581.282 68.2C585.149 65.8667 589.449 64.7 594.182 64.7C598.315 64.7 601.915 65.5333 604.982 67.2C608.115 68.8667 610.615 70.9667 612.482 73.5V65.6H626.582V121H612.482V112.9C610.682 115.5 608.182 117.667 604.982 119.4C601.849 121.067 598.215 121.9 594.082 121.9C589.415 121.9 585.149 120.7 581.282 118.3C577.482 115.9 574.449 112.533 572.182 108.2C569.982 103.8 568.882 98.7667 568.882 93.1ZM612.482 93.3C612.482 89.9 611.815 87 610.482 84.6C609.149 82.1333 607.349 80.2667 605.082 79C602.815 77.6667 600.382 77 597.782 77C595.182 77 592.782 77.6333 590.582 78.9C588.382 80.1667 586.582 82.0333 585.182 84.5C583.849 86.9 583.182 89.7667 583.182 93.1C583.182 96.4333 583.849 99.3667 585.182 101.9C586.582 104.367 588.382 106.267 590.582 107.6C592.849 108.933 595.249 109.6 597.782 109.6C600.382 109.6 602.815 108.967 605.082 107.7C607.349 106.367 609.149 104.5 610.482 102.1C611.815 99.6333 612.482 96.7 612.482 93.3Z" fill="black"/>
<path d="M755.9 105.5H725.5L719.9 121H710.3L735.5 51.7H746L771.1 121H761.5L755.9 105.5ZM753.3 98.1L740.7 62.9L728.1 98.1H753.3ZM778.683 93.4C778.683 87.8 779.816 82.9 782.083 78.7C784.349 74.4333 787.449 71.1333 791.383 68.8C795.383 66.4667 799.816 65.3 804.683 65.3C809.483 65.3 813.649 66.3333 817.183 68.4C820.716 70.4667 823.349 73.0667 825.083 76.2V66.2H834.283V121H825.083V110.8C823.283 114 820.583 116.667 816.983 118.8C813.449 120.867 809.316 121.9 804.583 121.9C799.716 121.9 795.316 120.7 791.383 118.3C787.449 115.9 784.349 112.533 782.083 108.2C779.816 103.867 778.683 98.9333 778.683 93.4ZM825.083 93.5C825.083 89.3667 824.249 85.7667 822.583 82.7C820.916 79.6333 818.649 77.3 815.783 75.7C812.983 74.0333 809.883 73.2 806.483 73.2C803.083 73.2 799.983 74 797.183 75.6C794.383 77.2 792.149 79.5333 790.483 82.6C788.816 85.6667 787.983 89.2667 787.983 93.4C787.983 97.6 788.816 101.267 790.483 104.4C792.149 107.467 794.383 109.833 797.183 111.5C799.983 113.1 803.083 113.9 806.483 113.9C809.883 113.9 812.983 113.1 815.783 111.5C818.649 109.833 820.916 107.467 822.583 104.4C824.249 101.267 825.083 97.6333 825.083 93.5Z" fill="black"/>
<rect x="0.5" y="0.5" width="1137" height="223" rx="58.5" stroke="black"/>
</svg>
