<svg width="1138" height="224" viewBox="0 0 1138 224" fill="none" xmlns="http://www.w3.org/2000/svg">
<path d="M224.15 175.16C224.15 175.907 223.956 176.687 223.57 177.5C223.183 178.313 222.736 179.027 222.23 179.64C221.736 180.24 221.15 180.853 220.47 181.48C219.51 182.333 218.636 183.033 217.85 183.58L217.89 183.68C220.356 183.68 221.93 183.573 222.61 183.36C223.29 183.147 223.783 182.553 224.09 181.58L224.63 181.82C224.39 182.553 224.23 183.613 224.15 185H216.11L215.87 184.2C216.363 183.827 217.036 183.22 217.89 182.38C218.756 181.54 219.47 180.78 220.03 180.1C220.59 179.42 221.096 178.647 221.55 177.78C222.016 176.9 222.25 176.067 222.25 175.28C222.25 174.48 222.01 173.887 221.53 173.5C221.05 173.1 220.423 172.9 219.65 172.9C218.543 172.9 217.503 173.16 216.53 173.68L216.25 173.12C217.503 172.067 218.836 171.54 220.25 171.54C221.33 171.54 222.25 171.86 223.01 172.5C223.77 173.127 224.15 174.013 224.15 175.16ZM229.902 178.46C229.902 180.98 229.955 182.58 230.062 183.26L230.122 183.64C230.242 184.067 230.915 184.28 232.142 184.28C232.755 184.28 233.242 184.26 233.602 184.22C233.975 184.167 234.368 184.053 234.782 183.88C235.555 183.573 236.142 182.807 236.542 181.58L237.082 181.82C236.842 182.553 236.682 183.613 236.602 185H228.602C227.842 185 227.042 185.02 226.202 185.06L226.142 184.48C226.822 184.347 227.282 184.227 227.522 184.12C227.762 184.013 227.895 183.847 227.922 183.62C228.042 182.847 228.102 181.427 228.102 179.36C228.102 176 228.062 173.907 227.982 173.08L227.942 172.68C227.915 172.44 227.795 172.273 227.582 172.18C227.368 172.073 226.942 171.953 226.302 171.82L226.362 171.24C227.202 171.28 228.782 171.3 231.102 171.3C233.422 171.3 235.128 171.26 236.222 171.18V171.48C236.222 172.533 236.302 173.513 236.462 174.42L235.922 174.66C235.575 173.567 235.162 172.873 234.682 172.58C234.202 172.287 233.295 172.14 231.962 172.14C231.362 172.14 230.915 172.167 230.622 172.22C230.328 172.273 230.162 172.393 230.122 172.58C229.988 173.447 229.915 175.14 229.902 177.66C231.595 177.66 232.608 177.62 232.942 177.54C233.288 177.46 233.508 177.313 233.602 177.1C233.708 176.887 233.828 176.433 233.962 175.74L234.662 175.82C234.555 176.593 234.502 177.333 234.502 178.04C234.502 178.747 234.555 179.493 234.662 180.28L233.962 180.38C233.828 179.687 233.708 179.233 233.602 179.02C233.508 178.807 233.288 178.66 232.942 178.58C232.608 178.5 231.595 178.46 229.902 178.46ZM245.91 184.26C247.163 184.26 248.19 184.007 248.99 183.5C249.79 182.98 250.323 182.28 250.59 181.4L251.13 181.64C250.983 182.12 250.83 183.013 250.67 184.32C249.03 184.933 247.423 185.24 245.85 185.24C243.663 185.24 241.93 184.647 240.65 183.46C239.37 182.26 238.73 180.6 238.73 178.48C238.73 176.36 239.363 174.607 240.63 173.22C241.896 171.82 243.63 171.12 245.83 171.12C246.443 171.12 247.13 171.173 247.89 171.28C248.65 171.373 249.17 171.42 249.45 171.42C249.73 171.42 250.03 171.38 250.35 171.3V171.6C250.35 172.573 250.43 173.513 250.59 174.42L250.05 174.66C249.516 172.913 248.103 172.04 245.81 172.04C244.476 172.04 243.33 172.513 242.37 173.46C241.89 173.927 241.51 174.547 241.23 175.32C240.963 176.093 240.83 176.927 240.83 177.82C240.83 178.7 240.923 179.5 241.11 180.22C241.296 180.94 241.583 181.607 241.97 182.22C242.356 182.833 242.89 183.327 243.57 183.7C244.25 184.073 245.03 184.26 245.91 184.26ZM255.233 171.3H258.593C259.847 171.3 260.8 171.607 261.453 172.22C262.107 172.833 262.433 173.593 262.433 174.5C262.433 175.113 262.247 175.7 261.873 176.26C261.5 176.807 260.987 177.24 260.333 177.56C261.387 177.8 262.147 178.213 262.613 178.8C263.08 179.387 263.313 180.18 263.313 181.18C263.313 182.18 262.893 183.067 262.053 183.84C261.213 184.613 260.167 185 258.913 185H255.233C254.193 185 253.253 185.02 252.413 185.06L252.353 184.48C253.033 184.347 253.493 184.227 253.733 184.12C253.973 184.013 254.107 183.847 254.133 183.62C254.24 182.833 254.293 181.407 254.293 179.34C254.293 175.993 254.253 173.907 254.173 173.08L254.133 172.68C254.107 172.44 253.987 172.273 253.773 172.18C253.56 172.073 253.133 171.953 252.493 171.82L252.553 171.24C253.393 171.28 254.287 171.3 255.233 171.3ZM260.553 174.5C260.553 172.927 259.54 172.14 257.513 172.14C257.033 172.14 256.72 172.167 256.573 172.22C256.44 172.273 256.347 172.393 256.293 172.58C256.147 173.26 256.073 174.947 256.073 177.64C257.007 177.48 258 177.4 259.053 177.4C260.053 176.747 260.553 175.78 260.553 174.5ZM258.313 184.28C259.153 184.28 259.88 184 260.493 183.44C261.107 182.88 261.413 182.113 261.413 181.14C261.413 179.207 260.053 178.24 257.333 178.24C256.933 178.24 256.513 178.26 256.073 178.3C256.073 180.927 256.127 182.58 256.233 183.26L256.293 183.64C256.413 184.067 257.087 184.28 258.313 184.28ZM267.753 171.3H271.313C272.86 171.3 274.24 171.6 275.453 172.2C276.8 172.893 277.733 173.907 278.253 175.24C278.546 175.973 278.693 176.793 278.693 177.7C278.693 179.847 278.033 181.6 276.713 182.96C275.393 184.32 273.48 185 270.973 185H267.753C266.713 185 265.773 185.02 264.933 185.06L264.873 184.48C265.553 184.347 266.013 184.227 266.253 184.12C266.493 184.013 266.626 183.847 266.653 183.62C266.76 182.833 266.813 181.407 266.813 179.34C266.813 175.993 266.773 173.907 266.693 173.08L266.653 172.68C266.626 172.44 266.506 172.273 266.293 172.18C266.08 172.073 265.653 171.953 265.013 171.82L265.073 171.24C265.913 171.28 266.806 171.3 267.753 171.3ZM268.833 183.8C269.553 183.96 270.32 184.04 271.133 184.04C271.946 184.04 272.72 183.88 273.453 183.56C274.186 183.227 274.746 182.84 275.133 182.4C275.52 181.947 275.826 181.413 276.053 180.8C276.413 179.893 276.593 178.96 276.593 178C276.593 174.093 274.42 172.14 270.073 172.14C269.593 172.14 269.273 172.167 269.113 172.22C268.966 172.273 268.873 172.387 268.833 172.56C268.686 173.427 268.613 174.893 268.613 176.96C268.613 180.173 268.666 182.3 268.773 183.34L268.833 183.8ZM284.924 171.74C284.871 173.153 284.844 174.893 284.844 176.96C284.844 180.307 284.884 182.387 284.964 183.2L285.004 183.62C285.031 183.847 285.164 184.013 285.404 184.12C285.657 184.227 286.131 184.347 286.824 184.48L286.764 185.06C285.964 185.02 285.004 185 283.884 185C282.764 185 281.684 185.02 280.644 185.06L280.584 184.48C280.811 184.427 281.057 184.38 281.324 184.34C281.604 184.287 281.824 184.24 281.984 184.2C282.157 184.16 282.291 184.127 282.384 184.1C282.477 184.06 282.571 184.013 282.664 183.96C282.837 183.88 282.937 183.767 282.964 183.62C283.057 182.833 283.104 181.407 283.104 179.34C283.104 176.127 283.064 174.147 282.984 173.4L282.964 173.08L280.544 172.66L280.484 171.94C282.151 171.94 283.491 171.807 284.504 171.54L284.924 171.74Z" fill="black"/>
<path d="M434.361 179.1C433.201 179.1 432.281 178.727 431.601 177.98C430.934 177.233 430.601 176.347 430.601 175.32C430.601 174.293 430.954 173.407 431.661 172.66C432.381 171.913 433.394 171.54 434.701 171.54C436.021 171.54 437.107 172.033 437.961 173.02C438.827 173.993 439.261 175.207 439.261 176.66C439.261 178.393 438.601 180.133 437.281 181.88C435.974 183.627 433.974 185.107 431.281 186.32L430.961 185.6C432.041 185.093 433.001 184.467 433.841 183.72C434.694 182.973 435.367 182.187 435.861 181.36C436.847 179.68 437.341 178.04 437.341 176.44C437.341 175.32 437.107 174.4 436.641 173.68C436.174 172.947 435.561 172.58 434.801 172.58C434.054 172.58 433.467 172.867 433.041 173.44C432.627 174 432.421 174.66 432.421 175.42C432.421 176.18 432.641 176.84 433.081 177.4C433.521 177.96 434.141 178.24 434.941 178.24C435.221 178.24 435.534 178.2 435.881 178.12L435.961 178.86C435.374 179.02 434.841 179.1 434.361 179.1ZM444.179 178.46C444.179 180.833 444.219 182.42 444.299 183.22L444.339 183.62C444.366 183.86 444.493 184.033 444.719 184.14C444.946 184.233 445.386 184.347 446.039 184.48L445.979 185.06C445.139 185.02 444.226 185 443.239 185C442.253 185 441.339 185.02 440.499 185.06L440.439 184.48C441.119 184.347 441.579 184.227 441.819 184.12C442.059 184.013 442.193 183.847 442.219 183.62C442.326 182.833 442.379 181.407 442.379 179.34C442.379 175.993 442.339 173.907 442.259 173.08L442.219 172.68C442.193 172.44 442.073 172.273 441.859 172.18C441.646 172.073 441.219 171.953 440.579 171.82L440.639 171.24C441.479 171.28 443.013 171.3 445.239 171.3C447.479 171.3 449.146 171.26 450.239 171.18V171.48C450.239 172.533 450.319 173.513 450.479 174.42L449.939 174.66C449.593 173.567 449.179 172.873 448.699 172.58C448.219 172.287 447.313 172.14 445.979 172.14C445.126 172.14 444.626 172.2 444.479 172.32C444.413 172.387 444.373 172.473 444.359 172.58C444.253 173.42 444.193 175.113 444.179 177.66C445.979 177.66 447.046 177.62 447.379 177.54C447.726 177.46 447.946 177.313 448.039 177.1C448.146 176.887 448.266 176.433 448.399 175.74L449.099 175.82C448.993 176.593 448.939 177.333 448.939 178.04C448.939 178.747 448.993 179.493 449.099 180.28L448.399 180.38C448.266 179.687 448.146 179.233 448.039 179.02C447.946 178.807 447.726 178.66 447.379 178.58C447.046 178.5 445.979 178.46 444.179 178.46ZM455.494 179.1C454.334 179.1 453.414 178.727 452.734 177.98C452.067 177.233 451.734 176.347 451.734 175.32C451.734 174.293 452.087 173.407 452.794 172.66C453.514 171.913 454.527 171.54 455.834 171.54C457.154 171.54 458.24 172.033 459.094 173.02C459.96 173.993 460.394 175.207 460.394 176.66C460.394 178.393 459.734 180.133 458.414 181.88C457.107 183.627 455.107 185.107 452.414 186.32L452.094 185.6C453.174 185.093 454.134 184.467 454.974 183.72C455.827 182.973 456.5 182.187 456.994 181.36C457.98 179.68 458.474 178.04 458.474 176.44C458.474 175.32 458.24 174.4 457.774 173.68C457.307 172.947 456.694 172.58 455.934 172.58C455.187 172.58 454.6 172.867 454.174 173.44C453.76 174 453.554 174.66 453.554 175.42C453.554 176.18 453.774 176.84 454.214 177.4C454.654 177.96 455.274 178.24 456.074 178.24C456.354 178.24 456.667 178.2 457.014 178.12L457.094 178.86C456.507 179.02 455.974 179.1 455.494 179.1ZM465.312 178.46C465.312 180.833 465.352 182.42 465.432 183.22L465.472 183.62C465.499 183.86 465.626 184.033 465.852 184.14C466.079 184.233 466.519 184.347 467.172 184.48L467.112 185.06C466.272 185.02 465.359 185 464.372 185C463.386 185 462.472 185.02 461.632 185.06L461.572 184.48C462.252 184.347 462.712 184.227 462.952 184.12C463.192 184.013 463.326 183.847 463.352 183.62C463.459 182.833 463.512 181.407 463.512 179.34C463.512 175.993 463.472 173.907 463.392 173.08L463.352 172.68C463.326 172.44 463.206 172.273 462.992 172.18C462.779 172.073 462.352 171.953 461.712 171.82L461.772 171.24C462.612 171.28 464.146 171.3 466.372 171.3C468.612 171.3 470.279 171.26 471.372 171.18V171.48C471.372 172.533 471.452 173.513 471.612 174.42L471.072 174.66C470.726 173.567 470.312 172.873 469.832 172.58C469.352 172.287 468.446 172.14 467.112 172.14C466.259 172.14 465.759 172.2 465.612 172.32C465.546 172.387 465.506 172.473 465.492 172.58C465.386 173.42 465.326 175.113 465.312 177.66C467.112 177.66 468.179 177.62 468.512 177.54C468.859 177.46 469.079 177.313 469.172 177.1C469.279 176.887 469.399 176.433 469.532 175.74L470.232 175.82C470.126 176.593 470.072 177.333 470.072 178.04C470.072 178.747 470.126 179.493 470.232 180.28L469.532 180.38C469.399 179.687 469.279 179.233 469.172 179.02C469.079 178.807 468.859 178.66 468.512 178.58C468.179 178.5 467.112 178.46 465.312 178.46ZM476.626 179.1C475.466 179.1 474.546 178.727 473.866 177.98C473.2 177.233 472.866 176.347 472.866 175.32C472.866 174.293 473.22 173.407 473.926 172.66C474.646 171.913 475.66 171.54 476.966 171.54C478.286 171.54 479.373 172.033 480.226 173.02C481.093 173.993 481.526 175.207 481.526 176.66C481.526 178.393 480.866 180.133 479.546 181.88C478.24 183.627 476.24 185.107 473.546 186.32L473.226 185.6C474.306 185.093 475.266 184.467 476.106 183.72C476.96 182.973 477.633 182.187 478.126 181.36C479.113 179.68 479.606 178.04 479.606 176.44C479.606 175.32 479.373 174.4 478.906 173.68C478.44 172.947 477.826 172.58 477.066 172.58C476.32 172.58 475.733 172.867 475.306 173.44C474.893 174 474.686 174.66 474.686 175.42C474.686 176.18 474.906 176.84 475.346 177.4C475.786 177.96 476.406 178.24 477.206 178.24C477.486 178.24 477.8 178.2 478.146 178.12L478.226 178.86C477.64 179.02 477.106 179.1 476.626 179.1ZM486.445 178.46C486.445 180.833 486.485 182.42 486.565 183.22L486.605 183.62C486.632 183.86 486.758 184.033 486.985 184.14C487.212 184.233 487.652 184.347 488.305 184.48L488.245 185.06C487.405 185.02 486.492 185 485.505 185C484.518 185 483.605 185.02 482.765 185.06L482.705 184.48C483.385 184.347 483.845 184.227 484.085 184.12C484.325 184.013 484.458 183.847 484.485 183.62C484.592 182.833 484.645 181.407 484.645 179.34C484.645 175.993 484.605 173.907 484.525 173.08L484.485 172.68C484.458 172.44 484.338 172.273 484.125 172.18C483.912 172.073 483.485 171.953 482.845 171.82L482.905 171.24C483.745 171.28 485.278 171.3 487.505 171.3C489.745 171.3 491.412 171.26 492.505 171.18V171.48C492.505 172.533 492.585 173.513 492.745 174.42L492.205 174.66C491.858 173.567 491.445 172.873 490.965 172.58C490.485 172.287 489.578 172.14 488.245 172.14C487.392 172.14 486.892 172.2 486.745 172.32C486.678 172.387 486.638 172.473 486.625 172.58C486.518 173.42 486.458 175.113 486.445 177.66C488.245 177.66 489.312 177.62 489.645 177.54C489.992 177.46 490.212 177.313 490.305 177.1C490.412 176.887 490.532 176.433 490.665 175.74L491.365 175.82C491.258 176.593 491.205 177.333 491.205 178.04C491.205 178.747 491.258 179.493 491.365 180.28L490.665 180.38C490.532 179.687 490.412 179.233 490.305 179.02C490.212 178.807 489.992 178.66 489.645 178.58C489.312 178.5 488.245 178.46 486.445 178.46Z" fill="black"/>
<path d="M643.506 178.46C643.506 180.833 643.546 182.42 643.626 183.22L643.666 183.62C643.692 183.86 643.819 184.033 644.046 184.14C644.272 184.233 644.712 184.347 645.366 184.48L645.306 185.06C644.466 185.02 643.552 185 642.566 185C641.579 185 640.666 185.02 639.826 185.06L639.766 184.48C640.446 184.347 640.906 184.227 641.146 184.12C641.386 184.013 641.519 183.847 641.546 183.62C641.652 182.833 641.706 181.407 641.706 179.34C641.706 175.993 641.666 173.907 641.586 173.08L641.546 172.68C641.519 172.44 641.399 172.273 641.186 172.18C640.972 172.073 640.546 171.953 639.906 171.82L639.966 171.24C640.806 171.28 642.339 171.3 644.566 171.3C646.806 171.3 648.472 171.26 649.566 171.18V171.48C649.566 172.533 649.646 173.513 649.806 174.42L649.266 174.66C648.919 173.567 648.506 172.873 648.026 172.58C647.546 172.287 646.639 172.14 645.306 172.14C644.452 172.14 643.952 172.2 643.806 172.32C643.739 172.387 643.699 172.473 643.686 172.58C643.579 173.42 643.519 175.113 643.506 177.66C645.306 177.66 646.372 177.62 646.706 177.54C647.052 177.46 647.272 177.313 647.366 177.1C647.472 176.887 647.592 176.433 647.726 175.74L648.426 175.82C648.319 176.593 648.266 177.333 648.266 178.04C648.266 178.747 648.319 179.493 648.426 180.28L647.726 180.38C647.592 179.687 647.472 179.233 647.366 179.02C647.272 178.807 647.052 178.66 646.706 178.58C646.372 178.5 645.306 178.46 643.506 178.46ZM659.48 174.92C659.8 175.92 659.96 177.067 659.96 178.36C659.96 179.653 659.8 180.8 659.48 181.8C659.173 182.8 658.673 183.613 657.98 184.24C657.3 184.867 656.466 185.18 655.48 185.18C654.493 185.18 653.653 184.867 652.96 184.24C652.28 183.613 651.78 182.8 651.46 181.8C651.153 180.8 651 179.653 651 178.36C651 177.067 651.153 175.92 651.46 174.92C651.78 173.92 652.28 173.107 652.96 172.48C653.653 171.853 654.493 171.54 655.48 171.54C656.466 171.54 657.3 171.853 657.98 172.48C658.673 173.107 659.173 173.92 659.48 174.92ZM657.4 174.1C656.96 172.993 656.32 172.44 655.48 172.44C654.64 172.44 654 172.993 653.56 174.1C653.12 175.207 652.9 176.627 652.9 178.36C652.9 180.093 653.12 181.513 653.56 182.62C654 183.727 654.64 184.28 655.48 184.28C656.32 184.28 656.96 183.727 657.4 182.62C657.84 181.513 658.06 180.093 658.06 178.36C658.06 176.627 657.84 175.207 657.4 174.1ZM665.049 178.46C665.049 180.833 665.089 182.42 665.169 183.22L665.209 183.62C665.235 183.86 665.362 184.033 665.589 184.14C665.815 184.233 666.255 184.347 666.909 184.48L666.849 185.06C666.009 185.02 665.095 185 664.109 185C663.122 185 662.209 185.02 661.369 185.06L661.309 184.48C661.989 184.347 662.449 184.227 662.689 184.12C662.929 184.013 663.062 183.847 663.089 183.62C663.195 182.833 663.249 181.407 663.249 179.34C663.249 175.993 663.209 173.907 663.129 173.08L663.089 172.68C663.062 172.44 662.942 172.273 662.729 172.18C662.515 172.073 662.089 171.953 661.449 171.82L661.509 171.24C662.349 171.28 663.882 171.3 666.109 171.3C668.349 171.3 670.015 171.26 671.109 171.18V171.48C671.109 172.533 671.189 173.513 671.349 174.42L670.809 174.66C670.462 173.567 670.049 172.873 669.569 172.58C669.089 172.287 668.182 172.14 666.849 172.14C665.995 172.14 665.495 172.2 665.349 172.32C665.282 172.387 665.242 172.473 665.229 172.58C665.122 173.42 665.062 175.113 665.049 177.66C666.849 177.66 667.915 177.62 668.249 177.54C668.595 177.46 668.815 177.313 668.909 177.1C669.015 176.887 669.135 176.433 669.269 175.74L669.969 175.82C669.862 176.593 669.809 177.333 669.809 178.04C669.809 178.747 669.862 179.493 669.969 180.28L669.269 180.38C669.135 179.687 669.015 179.233 668.909 179.02C668.815 178.807 668.595 178.66 668.249 178.58C667.915 178.5 666.849 178.46 665.049 178.46ZM681.023 174.92C681.343 175.92 681.503 177.067 681.503 178.36C681.503 179.653 681.343 180.8 681.023 181.8C680.716 182.8 680.216 183.613 679.523 184.24C678.843 184.867 678.009 185.18 677.023 185.18C676.036 185.18 675.196 184.867 674.503 184.24C673.823 183.613 673.323 182.8 673.003 181.8C672.696 180.8 672.543 179.653 672.543 178.36C672.543 177.067 672.696 175.92 673.003 174.92C673.323 173.92 673.823 173.107 674.503 172.48C675.196 171.853 676.036 171.54 677.023 171.54C678.009 171.54 678.843 171.853 679.523 172.48C680.216 173.107 680.716 173.92 681.023 174.92ZM678.943 174.1C678.503 172.993 677.863 172.44 677.023 172.44C676.183 172.44 675.543 172.993 675.103 174.1C674.663 175.207 674.443 176.627 674.443 178.36C674.443 180.093 674.663 181.513 675.103 182.62C675.543 183.727 676.183 184.28 677.023 184.28C677.863 184.28 678.503 183.727 678.943 182.62C679.383 181.513 679.603 180.093 679.603 178.36C679.603 176.627 679.383 175.207 678.943 174.1ZM686.591 178.46C686.591 180.833 686.631 182.42 686.711 183.22L686.751 183.62C686.778 183.86 686.905 184.033 687.131 184.14C687.358 184.233 687.798 184.347 688.451 184.48L688.391 185.06C687.551 185.02 686.638 185 685.651 185C684.665 185 683.751 185.02 682.911 185.06L682.851 184.48C683.531 184.347 683.991 184.227 684.231 184.12C684.471 184.013 684.605 183.847 684.631 183.62C684.738 182.833 684.791 181.407 684.791 179.34C684.791 175.993 684.751 173.907 684.671 173.08L684.631 172.68C684.605 172.44 684.485 172.273 684.271 172.18C684.058 172.073 683.631 171.953 682.991 171.82L683.051 171.24C683.891 171.28 685.425 171.3 687.651 171.3C689.891 171.3 691.558 171.26 692.651 171.18V171.48C692.651 172.533 692.731 173.513 692.891 174.42L692.351 174.66C692.005 173.567 691.591 172.873 691.111 172.58C690.631 172.287 689.725 172.14 688.391 172.14C687.538 172.14 687.038 172.2 686.891 172.32C686.825 172.387 686.785 172.473 686.771 172.58C686.665 173.42 686.605 175.113 686.591 177.66C688.391 177.66 689.458 177.62 689.791 177.54C690.138 177.46 690.358 177.313 690.451 177.1C690.558 176.887 690.678 176.433 690.811 175.74L691.511 175.82C691.405 176.593 691.351 177.333 691.351 178.04C691.351 178.747 691.405 179.493 691.511 180.28L690.811 180.38C690.678 179.687 690.558 179.233 690.451 179.02C690.358 178.807 690.138 178.66 689.791 178.58C689.458 178.5 688.391 178.46 686.591 178.46ZM702.566 174.92C702.886 175.92 703.046 177.067 703.046 178.36C703.046 179.653 702.886 180.8 702.566 181.8C702.259 182.8 701.759 183.613 701.066 184.24C700.386 184.867 699.552 185.18 698.566 185.18C697.579 185.18 696.739 184.867 696.046 184.24C695.366 183.613 694.866 182.8 694.546 181.8C694.239 180.8 694.086 179.653 694.086 178.36C694.086 177.067 694.239 175.92 694.546 174.92C694.866 173.92 695.366 173.107 696.046 172.48C696.739 171.853 697.579 171.54 698.566 171.54C699.552 171.54 700.386 171.853 701.066 172.48C701.759 173.107 702.259 173.92 702.566 174.92ZM700.486 174.1C700.046 172.993 699.406 172.44 698.566 172.44C697.726 172.44 697.086 172.993 696.646 174.1C696.206 175.207 695.986 176.627 695.986 178.36C695.986 180.093 696.206 181.513 696.646 182.62C697.086 183.727 697.726 184.28 698.566 184.28C699.406 184.28 700.046 183.727 700.486 182.62C700.926 181.513 701.146 180.093 701.146 178.36C701.146 176.627 700.926 175.207 700.486 174.1Z" fill="black"/>
<path d="M850.029 178.46C850.029 180.98 850.082 182.58 850.189 183.26L850.249 183.64C850.369 184.067 851.042 184.28 852.269 184.28C852.882 184.28 853.369 184.26 853.729 184.22C854.102 184.167 854.495 184.053 854.909 183.88C855.682 183.573 856.269 182.807 856.669 181.58L857.209 181.82C856.969 182.553 856.809 183.613 856.729 185H848.729C847.969 185 847.169 185.02 846.329 185.06L846.269 184.48C846.949 184.347 847.409 184.227 847.649 184.12C847.889 184.013 848.022 183.847 848.049 183.62C848.169 182.847 848.229 181.427 848.229 179.36C848.229 176 848.189 173.907 848.109 173.08L848.069 172.68C848.042 172.44 847.922 172.273 847.709 172.18C847.495 172.073 847.069 171.953 846.429 171.82L846.489 171.24C847.329 171.28 848.909 171.3 851.229 171.3C853.549 171.3 855.255 171.26 856.349 171.18V171.48C856.349 172.533 856.429 173.513 856.589 174.42L856.049 174.66C855.702 173.567 855.289 172.873 854.809 172.58C854.329 172.287 853.422 172.14 852.089 172.14C851.489 172.14 851.042 172.167 850.749 172.22C850.455 172.273 850.289 172.393 850.249 172.58C850.115 173.447 850.042 175.14 850.029 177.66C851.722 177.66 852.735 177.62 853.069 177.54C853.415 177.46 853.635 177.313 853.729 177.1C853.835 176.887 853.955 176.433 854.089 175.74L854.789 175.82C854.682 176.593 854.629 177.333 854.629 178.04C854.629 178.747 854.682 179.493 854.789 180.28L854.089 180.38C853.955 179.687 853.835 179.233 853.729 179.02C853.635 178.807 853.415 178.66 853.069 178.58C852.735 178.5 851.722 178.46 850.029 178.46ZM861.356 171.3H864.916C866.463 171.3 867.843 171.6 869.056 172.2C870.403 172.893 871.336 173.907 871.856 175.24C872.15 175.973 872.296 176.793 872.296 177.7C872.296 179.847 871.636 181.6 870.316 182.96C868.996 184.32 867.083 185 864.576 185H861.356C860.316 185 859.376 185.02 858.536 185.06L858.476 184.48C859.156 184.347 859.616 184.227 859.856 184.12C860.096 184.013 860.23 183.847 860.256 183.62C860.363 182.833 860.416 181.407 860.416 179.34C860.416 175.993 860.376 173.907 860.296 173.08L860.256 172.68C860.23 172.44 860.11 172.273 859.896 172.18C859.683 172.073 859.256 171.953 858.616 171.82L858.676 171.24C859.516 171.28 860.41 171.3 861.356 171.3ZM862.436 183.8C863.156 183.96 863.923 184.04 864.736 184.04C865.55 184.04 866.323 183.88 867.056 183.56C867.79 183.227 868.35 182.84 868.736 182.4C869.123 181.947 869.43 181.413 869.656 180.8C870.016 179.893 870.196 178.96 870.196 178C870.196 174.093 868.023 172.14 863.676 172.14C863.196 172.14 862.876 172.167 862.716 172.22C862.57 172.273 862.476 172.387 862.436 172.56C862.29 173.427 862.216 174.893 862.216 176.96C862.216 180.173 862.27 182.3 862.376 183.34L862.436 183.8ZM882.148 175.16C882.148 175.907 881.954 176.687 881.568 177.5C881.181 178.313 880.734 179.027 880.228 179.64C879.734 180.24 879.148 180.853 878.468 181.48C877.508 182.333 876.634 183.033 875.848 183.58L875.888 183.68C878.354 183.68 879.928 183.573 880.608 183.36C881.288 183.147 881.781 182.553 882.088 181.58L882.628 181.82C882.388 182.553 882.228 183.613 882.148 185H874.108L873.868 184.2C874.361 183.827 875.034 183.22 875.888 182.38C876.754 181.54 877.468 180.78 878.028 180.1C878.588 179.42 879.094 178.647 879.548 177.78C880.014 176.9 880.248 176.067 880.248 175.28C880.248 174.48 880.008 173.887 879.528 173.5C879.048 173.1 878.421 172.9 877.648 172.9C876.541 172.9 875.501 173.16 874.528 173.68L874.248 173.12C875.501 172.067 876.834 171.54 878.248 171.54C879.328 171.54 880.248 171.86 881.008 172.5C881.768 173.127 882.148 174.013 882.148 175.16ZM888.16 179.1C887 179.1 886.08 178.727 885.4 177.98C884.733 177.233 884.4 176.347 884.4 175.32C884.4 174.293 884.753 173.407 885.46 172.66C886.18 171.913 887.193 171.54 888.5 171.54C889.82 171.54 890.906 172.033 891.76 173.02C892.626 173.993 893.06 175.207 893.06 176.66C893.06 178.393 892.4 180.133 891.08 181.88C889.773 183.627 887.773 185.107 885.08 186.32L884.76 185.6C885.84 185.093 886.8 184.467 887.64 183.72C888.493 182.973 889.166 182.187 889.66 181.36C890.646 179.68 891.14 178.04 891.14 176.44C891.14 175.32 890.906 174.4 890.44 173.68C889.973 172.947 889.36 172.58 888.6 172.58C887.853 172.58 887.266 172.867 886.84 173.44C886.426 174 886.22 174.66 886.22 175.42C886.22 176.18 886.44 176.84 886.88 177.4C887.32 177.96 887.94 178.24 888.74 178.24C889.02 178.24 889.333 178.2 889.68 178.12L889.76 178.86C889.173 179.02 888.64 179.1 888.16 179.1ZM902.258 180.94C902.258 182.193 901.672 183.327 900.498 184.34C899.325 185.353 897.818 185.86 895.978 185.86C895.378 185.86 894.772 185.793 894.158 185.66L894.218 184.7C894.818 184.82 895.365 184.88 895.858 184.88C897.272 184.88 898.372 184.513 899.158 183.78C899.958 183.033 900.358 182.173 900.358 181.2C900.358 180.427 900.085 179.773 899.538 179.24C899.005 178.693 898.252 178.42 897.278 178.42C896.798 178.42 896.298 178.487 895.778 178.62L895.838 177.84C897.118 177.547 898.085 177.047 898.738 176.34C899.405 175.62 899.738 174.987 899.738 174.44C899.738 173.88 899.578 173.453 899.258 173.16C898.952 172.867 898.458 172.72 897.778 172.72C897.112 172.72 896.258 173.04 895.218 173.68L894.938 173.12C896.098 172.053 897.318 171.52 898.598 171.52C899.452 171.52 900.158 171.753 900.718 172.22C901.292 172.687 901.578 173.24 901.578 173.88C901.578 175.267 900.585 176.473 898.598 177.5V177.6C899.852 177.787 900.772 178.18 901.358 178.78C901.958 179.367 902.258 180.087 902.258 180.94ZM911.408 184.26C912.661 184.26 913.688 184.007 914.488 183.5C915.288 182.98 915.821 182.28 916.088 181.4L916.628 181.64C916.481 182.12 916.328 183.013 916.168 184.32C914.528 184.933 912.921 185.24 911.348 185.24C909.161 185.24 907.428 184.647 906.148 183.46C904.868 182.26 904.228 180.6 904.228 178.48C904.228 176.36 904.861 174.607 906.128 173.22C907.394 171.82 909.128 171.12 911.328 171.12C911.941 171.12 912.628 171.173 913.388 171.28C914.148 171.373 914.668 171.42 914.948 171.42C915.228 171.42 915.528 171.38 915.848 171.3V171.6C915.848 172.573 915.928 173.513 916.088 174.42L915.548 174.66C915.014 172.913 913.601 172.04 911.308 172.04C909.974 172.04 908.828 172.513 907.868 173.46C907.388 173.927 907.008 174.547 906.728 175.32C906.461 176.093 906.328 176.927 906.328 177.82C906.328 178.7 906.421 179.5 906.608 180.22C906.794 180.94 907.081 181.607 907.468 182.22C907.854 182.833 908.388 183.327 909.068 183.7C909.748 184.073 910.528 184.26 911.408 184.26Z" fill="black"/>
<line x1="357.5" y1="190" x2="357.5" y2="65" stroke="black"/>
<line x1="567.5" y1="190" x2="567.5" y2="65" stroke="black"/>
<line x1="777.5" y1="190" x2="777.5" y2="65" stroke="black"/>
<rect x="210.5" y="72.5" width="84" height="84" rx="9.5" fill="#2ECBD1" stroke="black"/>
<rect x="420.5" y="72.5" width="84" height="84" rx="9.5" fill="black" stroke="black"/>
<rect x="630.5" y="72.5" width="84" height="84" rx="9.5" fill="#F0F0F0" stroke="black"/>
<rect x="840.5" y="72.5" width="84" height="84" rx="9.5" fill="#ED293C" stroke="black"/>
<rect x="0.5" y="0.5" width="1137" height="223" rx="58.5" stroke="black"/>
</svg>
