<svg width="1138" height="224" viewBox="0 0 1138 224" fill="none" xmlns="http://www.w3.org/2000/svg">
<path d="M180.546 149.26C182.013 149.26 183.2 149.02 184.106 148.54L183.966 145.3C183.94 145.06 183.82 144.893 183.606 144.8C183.393 144.693 182.966 144.573 182.326 144.44L182.386 143.86C183.226 143.9 184.013 143.92 184.746 143.92C185.493 143.92 186.286 143.9 187.126 143.86L187.186 144.44C186.986 144.48 186.82 144.52 186.686 144.56C186.566 144.6 186.466 144.633 186.386 144.66C186.306 144.673 186.246 144.713 186.206 144.78C186.166 144.847 186.14 144.887 186.126 144.9C186.1 144.967 186.086 145.1 186.086 145.3L185.946 148.9C183.84 149.793 182.02 150.24 180.486 150.24C178.3 150.24 176.566 149.647 175.286 148.46C174.006 147.26 173.366 145.547 173.366 143.32C173.366 142.013 173.64 140.827 174.186 139.76C174.746 138.68 175.593 137.807 176.726 137.14C177.873 136.46 179.22 136.12 180.766 136.12C181.406 136.12 182.12 136.173 182.906 136.28C183.693 136.373 184.233 136.42 184.526 136.42C184.82 136.42 185.133 136.38 185.466 136.3V136.6C185.466 137.573 185.546 138.513 185.706 139.42L185.146 139.66C184.573 137.913 183.086 137.04 180.686 137.04C179.22 137.04 177.98 137.547 176.966 138.56C175.966 139.573 175.466 141.047 175.466 142.98C175.466 144.607 175.846 146.02 176.606 147.22C176.993 147.833 177.526 148.327 178.206 148.7C178.886 149.073 179.666 149.26 180.546 149.26ZM194.342 143.6C194.342 142.987 194.169 142.533 193.822 142.24C193.475 141.933 193.089 141.78 192.662 141.78C192.035 141.78 191.495 142.027 191.042 142.52C190.589 143.013 190.289 143.62 190.142 144.34L194.282 144.18C194.322 143.98 194.342 143.787 194.342 143.6ZM192.602 150.18C191.189 150.18 190.122 149.78 189.402 148.98C188.682 148.167 188.322 147.093 188.322 145.76C188.322 144.413 188.715 143.253 189.502 142.28C190.302 141.293 191.502 140.8 193.102 140.8C193.915 140.8 194.622 141.087 195.222 141.66C195.835 142.233 196.142 143.087 196.142 144.22L195.462 145.04C195.382 145.027 194.749 145.02 193.562 145.02C192.389 145.02 191.209 145.067 190.022 145.16V145.34C190.022 146.553 190.275 147.467 190.782 148.08C191.289 148.68 191.982 148.98 192.862 148.98C193.742 148.98 194.669 148.767 195.642 148.34L195.882 148.94C194.855 149.767 193.762 150.18 192.602 150.18ZM205.942 145.42C205.942 147.14 205.988 148.26 206.082 148.78L206.142 149.04C206.155 149.133 206.302 149.227 206.582 149.32C206.875 149.4 207.155 149.453 207.422 149.48L207.362 150.06C206.722 150.02 205.988 150 205.162 150C204.335 150 203.602 150.02 202.962 150.06L203.022 149.48C203.275 149.453 203.542 149.4 203.822 149.32C204.115 149.227 204.268 149.133 204.282 149.04C204.388 148.573 204.442 147.367 204.442 145.42V143.48C204.442 142.96 204.288 142.6 203.982 142.4C203.675 142.2 203.308 142.1 202.882 142.1C202.455 142.1 202.122 142.12 201.882 142.16C201.642 142.187 201.428 142.227 201.242 142.28C200.988 142.347 200.642 142.473 200.202 142.66V145.42C200.202 147.073 200.255 148.193 200.362 148.78L200.422 149.04C200.435 149.133 200.582 149.227 200.862 149.32C201.155 149.4 201.435 149.453 201.702 149.48L201.642 150.06C201.002 150.02 200.268 150 199.442 150C198.615 150 197.882 150.02 197.242 150.06L197.302 149.48C197.555 149.453 197.822 149.4 198.102 149.32C198.395 149.227 198.548 149.133 198.562 149.04C198.655 148.573 198.702 147.64 198.702 146.24C198.702 143.973 198.648 142.587 198.542 142.08L197.262 141.7L197.222 141.18C198.075 141.18 198.955 141.06 199.862 140.82L200.242 141C200.228 141.333 200.222 141.653 200.222 141.96C201.702 141.187 202.962 140.8 204.002 140.8C205.042 140.8 205.662 141.193 205.862 141.98C207.262 141.193 208.528 140.8 209.662 140.8C210.328 140.8 210.835 140.933 211.182 141.2C211.528 141.467 211.702 141.967 211.702 142.7V145.42C211.702 147.14 211.748 148.26 211.842 148.78L211.902 149.04C211.915 149.133 212.062 149.227 212.342 149.32C212.635 149.4 212.915 149.453 213.182 149.48L213.122 150.06C212.482 150.02 211.748 150 210.922 150C210.095 150 209.362 150.02 208.722 150.06L208.782 149.48C209.035 149.453 209.302 149.4 209.582 149.32C209.875 149.227 210.028 149.133 210.042 149.04C210.148 148.573 210.202 147.367 210.202 145.42V143.48C210.202 142.96 210.048 142.6 209.742 142.4C209.435 142.2 208.888 142.1 208.102 142.1C207.328 142.1 206.608 142.287 205.942 142.66V145.42ZM217.26 150.18C215.9 150.18 215.22 149.487 215.22 148.1V145.42C215.22 143.633 215.173 142.52 215.08 142.08L213.9 141.7L213.86 141.18C214.646 141.18 215.493 141.06 216.4 140.82L216.78 141C216.74 143.387 216.72 145.553 216.72 147.5C216.72 148.393 217.26 148.84 218.34 148.84C218.793 148.84 219.28 148.767 219.8 148.62C220.32 148.46 220.733 148.287 221.04 148.1C221.093 147.38 221.12 146.533 221.12 145.56C221.12 143.747 221.066 142.587 220.96 142.08L219.7 141.7L219.66 141.18C220.513 141.18 221.393 141.06 222.3 140.82L222.68 141C222.64 142 222.62 143.653 222.62 145.96L222.68 148.3C222.68 148.527 222.766 148.707 222.94 148.84C223.126 148.96 223.306 149.04 223.48 149.08C223.653 149.107 223.893 149.127 224.2 149.14L224.14 149.72C223.66 149.76 222.933 149.88 221.96 150.08C221.56 149.907 221.286 149.507 221.14 148.88C219.86 149.747 218.566 150.18 217.26 150.18ZM227.976 142.66L227.956 145.42C227.956 147.14 228.009 148.26 228.116 148.78L228.156 149.04C228.169 149.133 228.316 149.227 228.596 149.32C228.889 149.4 229.169 149.453 229.436 149.48L229.376 150.06C228.736 150.02 228.002 150 227.176 150C226.349 150 225.616 150.02 224.976 150.06L225.036 149.48C225.289 149.453 225.556 149.4 225.836 149.32C226.129 149.227 226.282 149.133 226.296 149.04C226.402 148.573 226.456 147.64 226.456 146.24C226.456 143.973 226.402 142.587 226.296 142.08L225.016 141.7L224.976 141.18C225.829 141.18 226.709 141.06 227.616 140.82L227.996 141V141.96C229.476 141.187 230.762 140.8 231.856 140.8C232.522 140.8 233.029 140.933 233.376 141.2C233.722 141.467 233.896 141.967 233.896 142.7V145.42C233.896 147.14 233.942 148.26 234.036 148.78L234.096 149.04C234.109 149.133 234.256 149.227 234.536 149.32C234.829 149.4 235.109 149.453 235.376 149.48L235.316 150.06C234.676 150.02 233.942 150 233.116 150C232.289 150 231.556 150.02 230.916 150.06L230.976 149.48C231.229 149.453 231.496 149.4 231.776 149.32C232.069 149.227 232.222 149.133 232.236 149.04C232.342 148.573 232.396 147.367 232.396 145.42V143.48C232.396 142.96 232.242 142.6 231.936 142.4C231.629 142.2 231.109 142.1 230.376 142.1C229.642 142.1 228.842 142.287 227.976 142.66ZM239.447 150.18C238.087 150.18 237.407 149.487 237.407 148.1V145.42C237.407 143.633 237.36 142.52 237.267 142.08L236.087 141.7L236.047 141.18C236.834 141.18 237.68 141.06 238.587 140.82L238.967 141C238.927 143.387 238.907 145.553 238.907 147.5C238.907 148.393 239.447 148.84 240.527 148.84C240.98 148.84 241.467 148.767 241.987 148.62C242.507 148.46 242.92 148.287 243.227 148.1C243.28 147.38 243.307 146.533 243.307 145.56C243.307 143.747 243.254 142.587 243.147 142.08L241.887 141.7L241.847 141.18C242.7 141.18 243.58 141.06 244.487 140.82L244.867 141C244.827 142 244.807 143.653 244.807 145.96L244.867 148.3C244.867 148.527 244.954 148.707 245.127 148.84C245.314 148.96 245.494 149.04 245.667 149.08C245.84 149.107 246.08 149.127 246.387 149.14L246.327 149.72C245.847 149.76 245.12 149.88 244.147 150.08C243.747 149.907 243.474 149.507 243.327 148.88C242.047 149.747 240.754 150.18 239.447 150.18ZM255.203 135.58C255.176 137.247 255.163 139.687 255.163 142.9C255.163 146.113 255.236 148.16 255.383 149.04C255.396 149.133 255.57 149.227 255.903 149.32C256.236 149.413 256.53 149.467 256.783 149.48L256.723 150.06C256.083 150.02 255.31 150 254.403 150C253.496 150 252.723 150.02 252.083 150.06L252.143 149.48C252.423 149.453 252.716 149.4 253.023 149.32C253.343 149.227 253.51 149.133 253.523 149.04C253.616 148.173 253.663 146.507 253.663 144.04C253.663 140.027 253.623 137.68 253.543 137L253.503 136.66L252.223 136.28L252.183 135.76C253.036 135.76 253.916 135.64 254.823 135.4L255.203 135.58ZM260.672 138.44C260.472 138.64 260.226 138.74 259.932 138.74C259.639 138.74 259.392 138.64 259.192 138.44C258.992 138.227 258.892 137.973 258.892 137.68C258.892 137.373 258.992 137.12 259.192 136.92C259.392 136.72 259.639 136.62 259.932 136.62C260.226 136.62 260.472 136.72 260.672 136.92C260.872 137.12 260.972 137.373 260.972 137.68C260.972 137.973 260.872 138.227 260.672 138.44ZM260.752 141L260.712 145.42C260.712 147.14 260.766 148.26 260.872 148.78L260.912 149.04C260.926 149.133 261.092 149.227 261.412 149.32C261.746 149.4 262.052 149.453 262.332 149.48L262.272 150.06C261.632 150.02 260.852 150 259.932 150C259.012 150 258.232 150.02 257.592 150.06L257.652 149.48C257.932 149.453 258.232 149.4 258.552 149.32C258.872 149.227 259.039 149.133 259.052 149.04C259.159 148.573 259.212 147.64 259.212 146.24C259.212 143.973 259.159 142.587 259.052 142.08L257.772 141.7L257.732 141.18C258.586 141.18 259.466 141.06 260.372 140.82L260.752 141ZM267.66 149.26C268.62 149.26 269.38 148.873 269.94 148.1C270.5 147.313 270.78 146.433 270.78 145.46C270.78 144.473 270.54 143.653 270.06 143C269.58 142.347 268.907 142.02 268.04 142.02C267.387 142.02 266.64 142.233 265.8 142.66C265.8 145.873 265.86 147.96 265.98 148.92C266.567 149.147 267.127 149.26 267.66 149.26ZM265.8 141.96C266.907 141.2 267.973 140.82 269 140.82C270.04 140.82 270.893 141.273 271.56 142.18C272.227 143.073 272.56 144.153 272.56 145.42C272.56 146.687 272.127 147.8 271.26 148.76C270.393 149.72 269.127 150.2 267.46 150.2C266.353 150.2 265.247 149.967 264.14 149.5C264.247 148.327 264.3 146.507 264.3 144.04C264.3 140.027 264.26 137.68 264.18 137L264.14 136.66L262.86 136.28L262.82 135.76C263.673 135.76 264.553 135.64 265.46 135.4L265.84 135.58C265.813 137.06 265.8 139.187 265.8 141.96ZM279.763 140.68C279.869 140.68 280.043 140.84 280.283 141.16C280.536 141.467 280.703 141.773 280.783 142.08L280.483 142.46C280.003 142.273 279.503 142.18 278.983 142.18C278.463 142.18 277.989 142.4 277.563 142.84C277.136 143.267 276.923 143.96 276.923 144.92C276.936 147.267 276.996 148.633 277.103 149.02C277.116 149.127 277.303 149.227 277.663 149.32C278.036 149.4 278.423 149.453 278.823 149.48L278.763 150.06C278.123 150.02 277.309 150 276.323 150C275.349 150 274.543 150.02 273.903 150.06L273.963 149.48C274.229 149.453 274.509 149.4 274.803 149.32C275.096 149.227 275.249 149.133 275.263 149.04C275.369 148.573 275.423 147.64 275.423 146.24C275.423 143.973 275.369 142.587 275.263 142.08L273.983 141.7L273.943 141.18C274.796 141.18 275.676 141.06 276.583 140.82L276.963 141C276.936 141.2 276.923 141.747 276.923 142.64C277.309 142 277.796 141.513 278.383 141.18C278.983 140.847 279.443 140.68 279.763 140.68ZM287.174 143.6C287.174 142.987 287.001 142.533 286.654 142.24C286.307 141.933 285.921 141.78 285.494 141.78C284.867 141.78 284.327 142.027 283.874 142.52C283.421 143.013 283.121 143.62 282.974 144.34L287.114 144.18C287.154 143.98 287.174 143.787 287.174 143.6ZM285.434 150.18C284.021 150.18 282.954 149.78 282.234 148.98C281.514 148.167 281.154 147.093 281.154 145.76C281.154 144.413 281.547 143.253 282.334 142.28C283.134 141.293 284.334 140.8 285.934 140.8C286.747 140.8 287.454 141.087 288.054 141.66C288.667 142.233 288.974 143.087 288.974 144.22L288.294 145.04C288.214 145.027 287.581 145.02 286.394 145.02C285.221 145.02 284.041 145.067 282.854 145.16V145.34C282.854 146.553 283.107 147.467 283.614 148.08C284.121 148.68 284.814 148.98 285.694 148.98C286.574 148.98 287.501 148.767 288.474 148.34L288.714 148.94C287.687 149.767 286.594 150.18 285.434 150.18ZM202.512 168.18C202.512 169.553 202.766 170.96 203.272 172.4C203.792 173.84 204.559 175.147 205.572 176.32L204.952 176.9C203.419 175.647 202.312 174.253 201.632 172.72C200.966 171.173 200.632 169.66 200.632 168.18C200.632 164.953 202.072 162.167 204.952 159.82L205.572 160.38C203.532 162.78 202.512 165.38 202.512 168.18ZM217.182 173.26C218.142 173.26 218.902 172.873 219.462 172.1C220.022 171.313 220.302 170.433 220.302 169.46C220.302 168.473 220.062 167.653 219.582 167C219.102 166.347 218.428 166.02 217.562 166.02C216.908 166.02 216.162 166.233 215.322 166.66C215.322 169.873 215.382 171.96 215.502 172.92C216.088 173.147 216.648 173.26 217.182 173.26ZM215.322 165.96C216.428 165.2 217.495 164.82 218.522 164.82C219.562 164.82 220.415 165.273 221.082 166.18C221.748 167.073 222.082 168.153 222.082 169.42C222.082 170.687 221.648 171.8 220.782 172.76C219.915 173.72 218.648 174.2 216.982 174.2C215.875 174.2 214.768 173.967 213.662 173.5C213.768 172.327 213.822 170.507 213.822 168.04C213.822 164.027 213.782 161.68 213.702 161L213.662 160.66L212.382 160.28L212.342 159.76C213.195 159.76 214.075 159.64 214.982 159.4L215.362 159.58C215.335 161.06 215.322 163.187 215.322 165.96ZM228.244 165.78C227.698 165.78 227.224 165.92 226.824 166.2C226.424 166.467 226.131 166.807 225.944 167.22C225.584 167.98 225.404 168.707 225.404 169.4C225.404 170.493 225.624 171.407 226.064 172.14C226.504 172.86 227.198 173.22 228.144 173.22C228.651 173.22 229.098 173.107 229.484 172.88C229.871 172.64 230.164 172.333 230.364 171.96C230.751 171.267 230.958 170.573 230.984 169.88C230.984 167.147 230.071 165.78 228.244 165.78ZM228.344 164.8C229.864 164.8 230.971 165.187 231.664 165.96C232.358 166.733 232.704 167.813 232.704 169.2C232.704 170.573 232.304 171.747 231.504 172.72C230.718 173.693 229.564 174.18 228.044 174.18C226.524 174.18 225.418 173.8 224.724 173.04C224.031 172.267 223.684 171.193 223.684 169.82C223.684 168.447 224.078 167.267 224.864 166.28C225.664 165.293 226.824 164.8 228.344 164.8ZM236.99 159.58C236.964 161.247 236.95 163.687 236.95 166.9C236.95 170.113 237.024 172.16 237.17 173.04C237.184 173.133 237.357 173.227 237.69 173.32C238.024 173.413 238.317 173.467 238.57 173.48L238.51 174.06C237.87 174.02 237.097 174 236.19 174C235.284 174 234.51 174.02 233.87 174.06L233.93 173.48C234.21 173.453 234.504 173.4 234.81 173.32C235.13 173.227 235.297 173.133 235.31 173.04C235.404 172.173 235.45 170.507 235.45 168.04C235.45 164.027 235.41 161.68 235.33 161L235.29 160.66L234.01 160.28L233.97 159.76C234.824 159.76 235.704 159.64 236.61 159.4L236.99 159.58ZM246.479 172.88C245.559 173.747 244.553 174.18 243.459 174.18C242.366 174.18 241.466 173.787 240.759 173C240.066 172.2 239.719 171.067 239.719 169.6C239.719 168.12 240.133 166.947 240.959 166.08C241.799 165.213 242.833 164.78 244.059 164.78C244.726 164.78 245.526 165.013 246.459 165.48C246.459 163.013 246.419 161.5 246.339 160.94L246.299 160.66L245.019 160.28L244.979 159.76C245.833 159.76 246.713 159.64 247.619 159.4L247.999 159.58C247.973 161.247 247.959 163.607 247.959 166.66C247.959 169.713 247.973 171.46 247.999 171.9C248.026 172.34 248.079 172.62 248.159 172.74C248.253 172.847 248.386 172.927 248.559 172.98C248.839 173.06 249.166 173.113 249.539 173.14L249.479 173.72C248.999 173.76 248.273 173.88 247.299 174.08C246.899 173.907 246.626 173.507 246.479 172.88ZM244.579 166C243.526 166 242.746 166.347 242.239 167.04C241.746 167.72 241.499 168.567 241.499 169.58C241.499 170.593 241.719 171.407 242.159 172.02C242.599 172.62 243.226 172.92 244.039 172.92C244.853 172.92 245.626 172.687 246.359 172.22C246.426 171.153 246.459 169.2 246.459 166.36C245.766 166.12 245.139 166 244.579 166ZM259.478 168.18C259.478 165.38 258.458 162.78 256.418 160.38L257.038 159.82C259.918 162.167 261.358 164.953 261.358 168.18C261.358 169.66 261.018 171.173 260.338 172.72C259.672 174.253 258.572 175.647 257.038 176.9L256.418 176.32C257.432 175.147 258.192 173.84 258.698 172.4C259.218 170.96 259.478 169.553 259.478 168.18Z" fill="black"/>
<path d="M441.335 137.68C441.229 138.467 441.175 139.893 441.175 141.96C441.175 145.307 441.215 147.387 441.295 148.2L441.335 148.62C441.362 148.86 441.489 149.033 441.715 149.14C441.942 149.233 442.382 149.347 443.035 149.48L442.975 150.06C442.135 150.02 441.222 150 440.235 150C439.249 150 438.335 150.02 437.495 150.06L437.435 149.48C438.115 149.347 438.575 149.227 438.815 149.12C439.055 149.013 439.189 148.847 439.215 148.62C439.322 147.833 439.375 146.407 439.375 144.34C439.375 140.993 439.335 138.907 439.255 138.08L439.215 137.68C439.189 137.44 439.069 137.273 438.855 137.18C438.642 137.073 438.215 136.953 437.575 136.82L437.635 136.24C438.475 136.28 439.355 136.3 440.275 136.3C441.195 136.3 442.075 136.28 442.915 136.24L442.975 136.82C442.335 136.953 441.909 137.073 441.695 137.18C441.482 137.273 441.362 137.44 441.335 137.68ZM447.151 142.66L447.131 145.42C447.131 147.14 447.185 148.26 447.291 148.78L447.331 149.04C447.345 149.133 447.491 149.227 447.771 149.32C448.065 149.4 448.345 149.453 448.611 149.48L448.551 150.06C447.911 150.02 447.178 150 446.351 150C445.525 150 444.791 150.02 444.151 150.06L444.211 149.48C444.465 149.453 444.731 149.4 445.011 149.32C445.305 149.227 445.458 149.133 445.471 149.04C445.578 148.573 445.631 147.64 445.631 146.24C445.631 143.973 445.578 142.587 445.471 142.08L444.191 141.7L444.151 141.18C445.005 141.18 445.885 141.06 446.791 140.82L447.171 141V141.96C448.651 141.187 449.938 140.8 451.031 140.8C451.698 140.8 452.205 140.933 452.551 141.2C452.898 141.467 453.071 141.967 453.071 142.7V145.42C453.071 147.14 453.118 148.26 453.211 148.78L453.271 149.04C453.285 149.133 453.431 149.227 453.711 149.32C454.005 149.4 454.285 149.453 454.551 149.48L454.491 150.06C453.851 150.02 453.118 150 452.291 150C451.465 150 450.731 150.02 450.091 150.06L450.151 149.48C450.405 149.453 450.671 149.4 450.951 149.32C451.245 149.227 451.398 149.133 451.411 149.04C451.518 148.573 451.571 147.367 451.571 145.42V143.48C451.571 142.96 451.418 142.6 451.111 142.4C450.805 142.2 450.285 142.1 449.551 142.1C448.818 142.1 448.018 142.287 447.151 142.66ZM458.783 150.18C457.396 150.18 456.703 149.513 456.703 148.18C456.716 147.007 456.723 145.933 456.723 144.96C456.723 143.973 456.709 142.947 456.683 141.88L455.403 141.9L455.343 141.68L455.803 140.9C455.989 140.94 456.269 140.967 456.643 140.98L456.563 139.14L457.883 137.96L458.263 138.14C458.236 139.127 458.223 140.067 458.223 140.96L461.163 140.94L461.263 141.18L460.543 141.98C460.089 141.927 459.316 141.893 458.223 141.88V144.56C458.223 146.227 458.243 147.42 458.283 148.14C458.323 148.74 458.676 149.04 459.343 149.04C459.876 149.04 460.463 148.887 461.103 148.58L461.343 149.24C460.396 149.867 459.543 150.18 458.783 150.18ZM468.186 143.6C468.186 142.987 468.012 142.533 467.666 142.24C467.319 141.933 466.932 141.78 466.506 141.78C465.879 141.78 465.339 142.027 464.886 142.52C464.432 143.013 464.132 143.62 463.986 144.34L468.126 144.18C468.166 143.98 468.186 143.787 468.186 143.6ZM466.446 150.18C465.032 150.18 463.966 149.78 463.246 148.98C462.526 148.167 462.166 147.093 462.166 145.76C462.166 144.413 462.559 143.253 463.346 142.28C464.146 141.293 465.346 140.8 466.946 140.8C467.759 140.8 468.466 141.087 469.066 141.66C469.679 142.233 469.986 143.087 469.986 144.22L469.306 145.04C469.226 145.027 468.592 145.02 467.406 145.02C466.232 145.02 465.052 145.067 463.866 145.16V145.34C463.866 146.553 464.119 147.467 464.626 148.08C465.132 148.68 465.826 148.98 466.706 148.98C467.586 148.98 468.512 148.767 469.486 148.34L469.726 148.94C468.699 149.767 467.606 150.18 466.446 150.18ZM476.985 140.68C477.092 140.68 477.265 140.84 477.505 141.16C477.759 141.467 477.925 141.773 478.005 142.08L477.705 142.46C477.225 142.273 476.725 142.18 476.205 142.18C475.685 142.18 475.212 142.4 474.785 142.84C474.359 143.267 474.145 143.96 474.145 144.92C474.159 147.267 474.219 148.633 474.325 149.02C474.339 149.127 474.525 149.227 474.885 149.32C475.259 149.4 475.645 149.453 476.045 149.48L475.985 150.06C475.345 150.02 474.532 150 473.545 150C472.572 150 471.765 150.02 471.125 150.06L471.185 149.48C471.452 149.453 471.732 149.4 472.025 149.32C472.319 149.227 472.472 149.133 472.485 149.04C472.592 148.573 472.645 147.64 472.645 146.24C472.645 143.973 472.592 142.587 472.485 142.08L471.205 141.7L471.165 141.18C472.019 141.18 472.899 141.06 473.805 140.82L474.185 141C474.159 141.2 474.145 141.747 474.145 142.64C474.532 142 475.019 141.513 475.605 141.18C476.205 140.847 476.665 140.68 476.985 140.68ZM429.012 168.18C429.012 169.553 429.266 170.96 429.772 172.4C430.292 173.84 431.059 175.147 432.072 176.32L431.452 176.9C429.919 175.647 428.812 174.253 428.132 172.72C427.466 171.173 427.132 169.66 427.132 168.18C427.132 164.953 428.572 162.167 431.452 159.82L432.072 160.38C430.032 162.78 429.012 165.38 429.012 168.18ZM443.682 173.26C444.642 173.26 445.402 172.873 445.962 172.1C446.522 171.313 446.802 170.433 446.802 169.46C446.802 168.473 446.562 167.653 446.082 167C445.602 166.347 444.928 166.02 444.062 166.02C443.408 166.02 442.662 166.233 441.822 166.66C441.822 169.873 441.882 171.96 442.002 172.92C442.588 173.147 443.148 173.26 443.682 173.26ZM441.822 165.96C442.928 165.2 443.995 164.82 445.022 164.82C446.062 164.82 446.915 165.273 447.582 166.18C448.248 167.073 448.582 168.153 448.582 169.42C448.582 170.687 448.148 171.8 447.282 172.76C446.415 173.72 445.148 174.2 443.482 174.2C442.375 174.2 441.268 173.967 440.162 173.5C440.268 172.327 440.322 170.507 440.322 168.04C440.322 164.027 440.282 161.68 440.202 161L440.162 160.66L438.882 160.28L438.842 159.76C439.695 159.76 440.575 159.64 441.482 159.4L441.862 159.58C441.835 161.06 441.822 163.187 441.822 165.96ZM454.744 165.78C454.198 165.78 453.724 165.92 453.324 166.2C452.924 166.467 452.631 166.807 452.444 167.22C452.084 167.98 451.904 168.707 451.904 169.4C451.904 170.493 452.124 171.407 452.564 172.14C453.004 172.86 453.698 173.22 454.644 173.22C455.151 173.22 455.598 173.107 455.984 172.88C456.371 172.64 456.664 172.333 456.864 171.96C457.251 171.267 457.458 170.573 457.484 169.88C457.484 167.147 456.571 165.78 454.744 165.78ZM454.844 164.8C456.364 164.8 457.471 165.187 458.164 165.96C458.858 166.733 459.204 167.813 459.204 169.2C459.204 170.573 458.804 171.747 458.004 172.72C457.218 173.693 456.064 174.18 454.544 174.18C453.024 174.18 451.918 173.8 451.224 173.04C450.531 172.267 450.184 171.193 450.184 169.82C450.184 168.447 450.578 167.267 451.364 166.28C452.164 165.293 453.324 164.8 454.844 164.8ZM463.49 159.58C463.464 161.247 463.45 163.687 463.45 166.9C463.45 170.113 463.524 172.16 463.67 173.04C463.684 173.133 463.857 173.227 464.19 173.32C464.524 173.413 464.817 173.467 465.07 173.48L465.01 174.06C464.37 174.02 463.597 174 462.69 174C461.784 174 461.01 174.02 460.37 174.06L460.43 173.48C460.71 173.453 461.004 173.4 461.31 173.32C461.63 173.227 461.797 173.133 461.81 173.04C461.904 172.173 461.95 170.507 461.95 168.04C461.95 164.027 461.91 161.68 461.83 161L461.79 160.66L460.51 160.28L460.47 159.76C461.324 159.76 462.204 159.64 463.11 159.4L463.49 159.58ZM472.979 172.88C472.059 173.747 471.053 174.18 469.959 174.18C468.866 174.18 467.966 173.787 467.259 173C466.566 172.2 466.219 171.067 466.219 169.6C466.219 168.12 466.633 166.947 467.459 166.08C468.299 165.213 469.333 164.78 470.559 164.78C471.226 164.78 472.026 165.013 472.959 165.48C472.959 163.013 472.919 161.5 472.839 160.94L472.799 160.66L471.519 160.28L471.479 159.76C472.333 159.76 473.213 159.64 474.119 159.4L474.499 159.58C474.473 161.247 474.459 163.607 474.459 166.66C474.459 169.713 474.473 171.46 474.499 171.9C474.526 172.34 474.579 172.62 474.659 172.74C474.753 172.847 474.886 172.927 475.059 172.98C475.339 173.06 475.666 173.113 476.039 173.14L475.979 173.72C475.499 173.76 474.773 173.88 473.799 174.08C473.399 173.907 473.126 173.507 472.979 172.88ZM471.079 166C470.026 166 469.246 166.347 468.739 167.04C468.246 167.72 467.999 168.567 467.999 169.58C467.999 170.593 468.219 171.407 468.659 172.02C469.099 172.62 469.726 172.92 470.539 172.92C471.353 172.92 472.126 172.687 472.859 172.22C472.926 171.153 472.959 169.2 472.959 166.36C472.266 166.12 471.639 166 471.079 166ZM485.978 168.18C485.978 165.38 484.958 162.78 482.918 160.38L483.538 159.82C486.418 162.167 487.858 164.953 487.858 168.18C487.858 169.66 487.518 171.173 486.838 172.72C486.172 174.253 485.072 175.647 483.538 176.9L482.918 176.32C483.932 175.147 484.692 173.84 485.198 172.4C485.718 170.96 485.978 169.553 485.978 168.18Z" fill="black"/>
<path d="M656.335 137.68C656.229 138.467 656.175 139.893 656.175 141.96C656.175 145.307 656.215 147.387 656.295 148.2L656.335 148.62C656.362 148.86 656.489 149.033 656.715 149.14C656.942 149.233 657.382 149.347 658.035 149.48L657.975 150.06C657.135 150.02 656.222 150 655.235 150C654.249 150 653.335 150.02 652.495 150.06L652.435 149.48C653.115 149.347 653.575 149.227 653.815 149.12C654.055 149.013 654.189 148.847 654.215 148.62C654.322 147.833 654.375 146.407 654.375 144.34C654.375 140.993 654.335 138.907 654.255 138.08L654.215 137.68C654.189 137.44 654.069 137.273 653.855 137.18C653.642 137.073 653.215 136.953 652.575 136.82L652.635 136.24C653.475 136.28 654.355 136.3 655.275 136.3C656.195 136.3 657.075 136.28 657.915 136.24L657.975 136.82C657.335 136.953 656.909 137.073 656.695 137.18C656.482 137.273 656.362 137.44 656.335 137.68ZM662.151 142.66L662.131 145.42C662.131 147.14 662.185 148.26 662.291 148.78L662.331 149.04C662.345 149.133 662.491 149.227 662.771 149.32C663.065 149.4 663.345 149.453 663.611 149.48L663.551 150.06C662.911 150.02 662.178 150 661.351 150C660.525 150 659.791 150.02 659.151 150.06L659.211 149.48C659.465 149.453 659.731 149.4 660.011 149.32C660.305 149.227 660.458 149.133 660.471 149.04C660.578 148.573 660.631 147.64 660.631 146.24C660.631 143.973 660.578 142.587 660.471 142.08L659.191 141.7L659.151 141.18C660.005 141.18 660.885 141.06 661.791 140.82L662.171 141V141.96C663.651 141.187 664.938 140.8 666.031 140.8C666.698 140.8 667.205 140.933 667.551 141.2C667.898 141.467 668.071 141.967 668.071 142.7V145.42C668.071 147.14 668.118 148.26 668.211 148.78L668.271 149.04C668.285 149.133 668.431 149.227 668.711 149.32C669.005 149.4 669.285 149.453 669.551 149.48L669.491 150.06C668.851 150.02 668.118 150 667.291 150C666.465 150 665.731 150.02 665.091 150.06L665.151 149.48C665.405 149.453 665.671 149.4 665.951 149.32C666.245 149.227 666.398 149.133 666.411 149.04C666.518 148.573 666.571 147.367 666.571 145.42V143.48C666.571 142.96 666.418 142.6 666.111 142.4C665.805 142.2 665.285 142.1 664.551 142.1C663.818 142.1 663.018 142.287 662.151 142.66ZM673.783 150.18C672.396 150.18 671.703 149.513 671.703 148.18C671.716 147.007 671.723 145.933 671.723 144.96C671.723 143.973 671.709 142.947 671.683 141.88L670.403 141.9L670.343 141.68L670.803 140.9C670.989 140.94 671.269 140.967 671.643 140.98L671.563 139.14L672.883 137.96L673.263 138.14C673.236 139.127 673.223 140.067 673.223 140.96L676.163 140.94L676.263 141.18L675.543 141.98C675.089 141.927 674.316 141.893 673.223 141.88V144.56C673.223 146.227 673.243 147.42 673.283 148.14C673.323 148.74 673.676 149.04 674.343 149.04C674.876 149.04 675.463 148.887 676.103 148.58L676.343 149.24C675.396 149.867 674.543 150.18 673.783 150.18ZM683.186 143.6C683.186 142.987 683.012 142.533 682.666 142.24C682.319 141.933 681.932 141.78 681.506 141.78C680.879 141.78 680.339 142.027 679.886 142.52C679.432 143.013 679.132 143.62 678.986 144.34L683.126 144.18C683.166 143.98 683.186 143.787 683.186 143.6ZM681.446 150.18C680.032 150.18 678.966 149.78 678.246 148.98C677.526 148.167 677.166 147.093 677.166 145.76C677.166 144.413 677.559 143.253 678.346 142.28C679.146 141.293 680.346 140.8 681.946 140.8C682.759 140.8 683.466 141.087 684.066 141.66C684.679 142.233 684.986 143.087 684.986 144.22L684.306 145.04C684.226 145.027 683.592 145.02 682.406 145.02C681.232 145.02 680.052 145.067 678.866 145.16V145.34C678.866 146.553 679.119 147.467 679.626 148.08C680.132 148.68 680.826 148.98 681.706 148.98C682.586 148.98 683.512 148.767 684.486 148.34L684.726 148.94C683.699 149.767 682.606 150.18 681.446 150.18ZM691.985 140.68C692.092 140.68 692.265 140.84 692.505 141.16C692.759 141.467 692.925 141.773 693.005 142.08L692.705 142.46C692.225 142.273 691.725 142.18 691.205 142.18C690.685 142.18 690.212 142.4 689.785 142.84C689.359 143.267 689.145 143.96 689.145 144.92C689.159 147.267 689.219 148.633 689.325 149.02C689.339 149.127 689.525 149.227 689.885 149.32C690.259 149.4 690.645 149.453 691.045 149.48L690.985 150.06C690.345 150.02 689.532 150 688.545 150C687.572 150 686.765 150.02 686.125 150.06L686.185 149.48C686.452 149.453 686.732 149.4 687.025 149.32C687.319 149.227 687.472 149.133 687.485 149.04C687.592 148.573 687.645 147.64 687.645 146.24C687.645 143.973 687.592 142.587 687.485 142.08L686.205 141.7L686.165 141.18C687.019 141.18 687.899 141.06 688.805 140.82L689.185 141C689.159 141.2 689.145 141.747 689.145 142.64C689.532 142 690.019 141.513 690.605 141.18C691.205 140.847 691.665 140.68 691.985 140.68ZM621.971 168.18C621.971 169.553 622.225 170.96 622.731 172.4C623.251 173.84 624.018 175.147 625.031 176.32L624.411 176.9C622.878 175.647 621.771 174.253 621.091 172.72C620.425 171.173 620.091 169.66 620.091 168.18C620.091 164.953 621.531 162.167 624.411 159.82L625.031 160.38C622.991 162.78 621.971 165.38 621.971 168.18ZM637.841 165.16L638.121 165.3C638.121 166.167 638.161 166.827 638.241 167.28L637.721 167.46C637.547 166.78 637.301 166.307 636.981 166.04C636.674 165.773 636.281 165.64 635.801 165.64C635.321 165.64 634.941 165.767 634.661 166.02C634.381 166.273 634.241 166.573 634.241 166.92C634.241 167.52 634.587 168.013 635.281 168.4L637.321 169.52C638.201 170.013 638.641 170.727 638.641 171.66C638.641 172.34 638.367 172.933 637.821 173.44C637.287 173.933 636.521 174.18 635.521 174.18C634.521 174.18 633.494 174.013 632.441 173.68C632.601 172.747 632.681 171.98 632.681 171.38L633.201 171.2C633.321 171.68 633.407 172.007 633.461 172.18C633.527 172.353 633.634 172.567 633.781 172.82C633.941 173.073 634.141 173.24 634.381 173.32C634.621 173.4 634.974 173.44 635.441 173.44C635.907 173.44 636.294 173.307 636.601 173.04C636.907 172.773 637.061 172.453 637.061 172.08C637.061 171.52 636.747 171.067 636.121 170.72L633.961 169.52C633.081 169.053 632.641 168.34 632.641 167.38C632.641 166.7 632.901 166.1 633.421 165.58C633.941 165.06 634.667 164.8 635.601 164.8C636.534 164.8 637.281 164.92 637.841 165.16ZM646.037 167.6C646.037 166.987 645.864 166.533 645.517 166.24C645.171 165.933 644.784 165.78 644.357 165.78C643.731 165.78 643.191 166.027 642.737 166.52C642.284 167.013 641.984 167.62 641.837 168.34L645.977 168.18C646.017 167.98 646.037 167.787 646.037 167.6ZM644.297 174.18C642.884 174.18 641.817 173.78 641.097 172.98C640.377 172.167 640.017 171.093 640.017 169.76C640.017 168.413 640.411 167.253 641.197 166.28C641.997 165.293 643.197 164.8 644.797 164.8C645.611 164.8 646.317 165.087 646.917 165.66C647.531 166.233 647.837 167.087 647.837 168.22L647.157 169.04C647.077 169.027 646.444 169.02 645.257 169.02C644.084 169.02 642.904 169.067 641.717 169.16V169.34C641.717 170.553 641.971 171.467 642.477 172.08C642.984 172.68 643.677 172.98 644.557 172.98C645.437 172.98 646.364 172.767 647.337 172.34L647.577 172.94C646.551 173.767 645.457 174.18 644.297 174.18ZM657.637 169.42C657.637 171.14 657.684 172.26 657.777 172.78L657.837 173.04C657.85 173.133 657.997 173.227 658.277 173.32C658.57 173.4 658.85 173.453 659.117 173.48L659.057 174.06C658.417 174.02 657.684 174 656.857 174C656.03 174 655.297 174.02 654.657 174.06L654.717 173.48C654.97 173.453 655.237 173.4 655.517 173.32C655.81 173.227 655.964 173.133 655.977 173.04C656.084 172.573 656.137 171.367 656.137 169.42V167.48C656.137 166.96 655.984 166.6 655.677 166.4C655.37 166.2 655.004 166.1 654.577 166.1C654.15 166.1 653.817 166.12 653.577 166.16C653.337 166.187 653.124 166.227 652.937 166.28C652.684 166.347 652.337 166.473 651.897 166.66V169.42C651.897 171.073 651.95 172.193 652.057 172.78L652.117 173.04C652.13 173.133 652.277 173.227 652.557 173.32C652.85 173.4 653.13 173.453 653.397 173.48L653.337 174.06C652.697 174.02 651.964 174 651.137 174C650.31 174 649.577 174.02 648.937 174.06L648.997 173.48C649.25 173.453 649.517 173.4 649.797 173.32C650.09 173.227 650.244 173.133 650.257 173.04C650.35 172.573 650.397 171.64 650.397 170.24C650.397 167.973 650.344 166.587 650.237 166.08L648.957 165.7L648.917 165.18C649.77 165.18 650.65 165.06 651.557 164.82L651.937 165C651.924 165.333 651.917 165.653 651.917 165.96C653.397 165.187 654.657 164.8 655.697 164.8C656.737 164.8 657.357 165.193 657.557 165.98C658.957 165.193 660.224 164.8 661.357 164.8C662.024 164.8 662.53 164.933 662.877 165.2C663.224 165.467 663.397 165.967 663.397 166.7V169.42C663.397 171.14 663.444 172.26 663.537 172.78L663.597 173.04C663.61 173.133 663.757 173.227 664.037 173.32C664.33 173.4 664.61 173.453 664.877 173.48L664.817 174.06C664.177 174.02 663.444 174 662.617 174C661.79 174 661.057 174.02 660.417 174.06L660.477 173.48C660.73 173.453 660.997 173.4 661.277 173.32C661.57 173.227 661.724 173.133 661.737 173.04C661.844 172.573 661.897 171.367 661.897 169.42V167.48C661.897 166.96 661.744 166.6 661.437 166.4C661.13 166.2 660.584 166.1 659.797 166.1C659.024 166.1 658.304 166.287 657.637 166.66V169.42ZM668.735 162.44C668.535 162.64 668.288 162.74 667.995 162.74C667.702 162.74 667.455 162.64 667.255 162.44C667.055 162.227 666.955 161.973 666.955 161.68C666.955 161.373 667.055 161.12 667.255 160.92C667.455 160.72 667.702 160.62 667.995 160.62C668.288 160.62 668.535 160.72 668.735 160.92C668.935 161.12 669.035 161.373 669.035 161.68C669.035 161.973 668.935 162.227 668.735 162.44ZM668.815 165L668.775 169.42C668.775 171.14 668.828 172.26 668.935 172.78L668.975 173.04C668.988 173.133 669.155 173.227 669.475 173.32C669.808 173.4 670.115 173.453 670.395 173.48L670.335 174.06C669.695 174.02 668.915 174 667.995 174C667.075 174 666.295 174.02 665.655 174.06L665.715 173.48C665.995 173.453 666.295 173.4 666.615 173.32C666.935 173.227 667.102 173.133 667.115 173.04C667.222 172.573 667.275 171.64 667.275 170.24C667.275 167.973 667.222 166.587 667.115 166.08L665.835 165.7L665.795 165.18C666.648 165.18 667.528 165.06 668.435 164.82L668.815 165ZM680.723 173.26C681.683 173.26 682.443 172.873 683.003 172.1C683.563 171.313 683.843 170.433 683.843 169.46C683.843 168.473 683.603 167.653 683.123 167C682.643 166.347 681.969 166.02 681.103 166.02C680.449 166.02 679.703 166.233 678.863 166.66C678.863 169.873 678.923 171.96 679.043 172.92C679.629 173.147 680.189 173.26 680.723 173.26ZM678.863 165.96C679.969 165.2 681.036 164.82 682.063 164.82C683.103 164.82 683.956 165.273 684.623 166.18C685.289 167.073 685.623 168.153 685.623 169.42C685.623 170.687 685.189 171.8 684.323 172.76C683.456 173.72 682.189 174.2 680.523 174.2C679.416 174.2 678.309 173.967 677.203 173.5C677.309 172.327 677.363 170.507 677.363 168.04C677.363 164.027 677.323 161.68 677.243 161L677.203 160.66L675.923 160.28L675.883 159.76C676.736 159.76 677.616 159.64 678.523 159.4L678.903 159.58C678.876 161.06 678.863 163.187 678.863 165.96ZM691.785 165.78C691.239 165.78 690.765 165.92 690.365 166.2C689.965 166.467 689.672 166.807 689.485 167.22C689.125 167.98 688.945 168.707 688.945 169.4C688.945 170.493 689.165 171.407 689.605 172.14C690.045 172.86 690.739 173.22 691.685 173.22C692.192 173.22 692.639 173.107 693.025 172.88C693.412 172.64 693.705 172.333 693.905 171.96C694.292 171.267 694.499 170.573 694.525 169.88C694.525 167.147 693.612 165.78 691.785 165.78ZM691.885 164.8C693.405 164.8 694.512 165.187 695.205 165.96C695.899 166.733 696.245 167.813 696.245 169.2C696.245 170.573 695.845 171.747 695.045 172.72C694.259 173.693 693.105 174.18 691.585 174.18C690.065 174.18 688.959 173.8 688.265 173.04C687.572 172.267 687.225 171.193 687.225 169.82C687.225 168.447 687.619 167.267 688.405 166.28C689.205 165.293 690.365 164.8 691.885 164.8ZM700.531 159.58C700.505 161.247 700.491 163.687 700.491 166.9C700.491 170.113 700.565 172.16 700.711 173.04C700.725 173.133 700.898 173.227 701.231 173.32C701.565 173.413 701.858 173.467 702.111 173.48L702.051 174.06C701.411 174.02 700.638 174 699.731 174C698.825 174 698.051 174.02 697.411 174.06L697.471 173.48C697.751 173.453 698.045 173.4 698.351 173.32C698.671 173.227 698.838 173.133 698.851 173.04C698.945 172.173 698.991 170.507 698.991 168.04C698.991 164.027 698.951 161.68 698.871 161L698.831 160.66L697.551 160.28L697.511 159.76C698.365 159.76 699.245 159.64 700.151 159.4L700.531 159.58ZM710.02 172.88C709.1 173.747 708.094 174.18 707 174.18C705.907 174.18 705.007 173.787 704.3 173C703.607 172.2 703.26 171.067 703.26 169.6C703.26 168.12 703.674 166.947 704.5 166.08C705.34 165.213 706.374 164.78 707.6 164.78C708.267 164.78 709.067 165.013 710 165.48C710 163.013 709.96 161.5 709.88 160.94L709.84 160.66L708.56 160.28L708.52 159.76C709.374 159.76 710.254 159.64 711.16 159.4L711.54 159.58C711.514 161.247 711.5 163.607 711.5 166.66C711.5 169.713 711.514 171.46 711.54 171.9C711.567 172.34 711.62 172.62 711.7 172.74C711.794 172.847 711.927 172.927 712.1 172.98C712.38 173.06 712.707 173.113 713.08 173.14L713.02 173.72C712.54 173.76 711.814 173.88 710.84 174.08C710.44 173.907 710.167 173.507 710.02 172.88ZM708.12 166C707.067 166 706.287 166.347 705.78 167.04C705.287 167.72 705.04 168.567 705.04 169.58C705.04 170.593 705.26 171.407 705.7 172.02C706.14 172.62 706.767 172.92 707.58 172.92C708.394 172.92 709.167 172.687 709.9 172.22C709.967 171.153 710 169.2 710 166.36C709.307 166.12 708.68 166 708.12 166ZM723.019 168.18C723.019 165.38 721.999 162.78 719.959 160.38L720.579 159.82C723.459 162.167 724.899 164.953 724.899 168.18C724.899 169.66 724.559 171.173 723.879 172.72C723.213 174.253 722.113 175.647 720.579 176.9L719.959 176.32C720.973 175.147 721.733 173.84 722.239 172.4C722.759 170.96 723.019 169.553 723.019 168.18Z" fill="black"/>
<path d="M867.335 137.68C867.229 138.467 867.175 139.893 867.175 141.96C867.175 145.307 867.215 147.387 867.295 148.2L867.335 148.62C867.362 148.86 867.489 149.033 867.715 149.14C867.942 149.233 868.382 149.347 869.035 149.48L868.975 150.06C868.135 150.02 867.222 150 866.235 150C865.249 150 864.335 150.02 863.495 150.06L863.435 149.48C864.115 149.347 864.575 149.227 864.815 149.12C865.055 149.013 865.189 148.847 865.215 148.62C865.322 147.833 865.375 146.407 865.375 144.34C865.375 140.993 865.335 138.907 865.255 138.08L865.215 137.68C865.189 137.44 865.069 137.273 864.855 137.18C864.642 137.073 864.215 136.953 863.575 136.82L863.635 136.24C864.475 136.28 865.355 136.3 866.275 136.3C867.195 136.3 868.075 136.28 868.915 136.24L868.975 136.82C868.335 136.953 867.909 137.073 867.695 137.18C867.482 137.273 867.362 137.44 867.335 137.68ZM873.151 142.66L873.131 145.42C873.131 147.14 873.185 148.26 873.291 148.78L873.331 149.04C873.345 149.133 873.491 149.227 873.771 149.32C874.065 149.4 874.345 149.453 874.611 149.48L874.551 150.06C873.911 150.02 873.178 150 872.351 150C871.525 150 870.791 150.02 870.151 150.06L870.211 149.48C870.465 149.453 870.731 149.4 871.011 149.32C871.305 149.227 871.458 149.133 871.471 149.04C871.578 148.573 871.631 147.64 871.631 146.24C871.631 143.973 871.578 142.587 871.471 142.08L870.191 141.7L870.151 141.18C871.005 141.18 871.885 141.06 872.791 140.82L873.171 141V141.96C874.651 141.187 875.938 140.8 877.031 140.8C877.698 140.8 878.205 140.933 878.551 141.2C878.898 141.467 879.071 141.967 879.071 142.7V145.42C879.071 147.14 879.118 148.26 879.211 148.78L879.271 149.04C879.285 149.133 879.431 149.227 879.711 149.32C880.005 149.4 880.285 149.453 880.551 149.48L880.491 150.06C879.851 150.02 879.118 150 878.291 150C877.465 150 876.731 150.02 876.091 150.06L876.151 149.48C876.405 149.453 876.671 149.4 876.951 149.32C877.245 149.227 877.398 149.133 877.411 149.04C877.518 148.573 877.571 147.367 877.571 145.42V143.48C877.571 142.96 877.418 142.6 877.111 142.4C876.805 142.2 876.285 142.1 875.551 142.1C874.818 142.1 874.018 142.287 873.151 142.66ZM884.783 150.18C883.396 150.18 882.703 149.513 882.703 148.18C882.716 147.007 882.723 145.933 882.723 144.96C882.723 143.973 882.709 142.947 882.683 141.88L881.403 141.9L881.343 141.68L881.803 140.9C881.989 140.94 882.269 140.967 882.643 140.98L882.563 139.14L883.883 137.96L884.263 138.14C884.236 139.127 884.223 140.067 884.223 140.96L887.163 140.94L887.263 141.18L886.543 141.98C886.089 141.927 885.316 141.893 884.223 141.88V144.56C884.223 146.227 884.243 147.42 884.283 148.14C884.323 148.74 884.676 149.04 885.343 149.04C885.876 149.04 886.463 148.887 887.103 148.58L887.343 149.24C886.396 149.867 885.543 150.18 884.783 150.18ZM894.186 143.6C894.186 142.987 894.012 142.533 893.666 142.24C893.319 141.933 892.932 141.78 892.506 141.78C891.879 141.78 891.339 142.027 890.886 142.52C890.432 143.013 890.132 143.62 889.986 144.34L894.126 144.18C894.166 143.98 894.186 143.787 894.186 143.6ZM892.446 150.18C891.032 150.18 889.966 149.78 889.246 148.98C888.526 148.167 888.166 147.093 888.166 145.76C888.166 144.413 888.559 143.253 889.346 142.28C890.146 141.293 891.346 140.8 892.946 140.8C893.759 140.8 894.466 141.087 895.066 141.66C895.679 142.233 895.986 143.087 895.986 144.22L895.306 145.04C895.226 145.027 894.592 145.02 893.406 145.02C892.232 145.02 891.052 145.067 889.866 145.16V145.34C889.866 146.553 890.119 147.467 890.626 148.08C891.132 148.68 891.826 148.98 892.706 148.98C893.586 148.98 894.512 148.767 895.486 148.34L895.726 148.94C894.699 149.767 893.606 150.18 892.446 150.18ZM902.985 140.68C903.092 140.68 903.265 140.84 903.505 141.16C903.759 141.467 903.925 141.773 904.005 142.08L903.705 142.46C903.225 142.273 902.725 142.18 902.205 142.18C901.685 142.18 901.212 142.4 900.785 142.84C900.359 143.267 900.145 143.96 900.145 144.92C900.159 147.267 900.219 148.633 900.325 149.02C900.339 149.127 900.525 149.227 900.885 149.32C901.259 149.4 901.645 149.453 902.045 149.48L901.985 150.06C901.345 150.02 900.532 150 899.545 150C898.572 150 897.765 150.02 897.125 150.06L897.185 149.48C897.452 149.453 897.732 149.4 898.025 149.32C898.319 149.227 898.472 149.133 898.485 149.04C898.592 148.573 898.645 147.64 898.645 146.24C898.645 143.973 898.592 142.587 898.485 142.08L897.205 141.7L897.165 141.18C898.019 141.18 898.899 141.06 899.805 140.82L900.185 141C900.159 141.2 900.145 141.747 900.145 142.64C900.532 142 901.019 141.513 901.605 141.18C902.205 140.847 902.665 140.68 902.985 140.68ZM844.26 168.18C844.26 169.553 844.514 170.96 845.02 172.4C845.54 173.84 846.307 175.147 847.32 176.32L846.7 176.9C845.167 175.647 844.06 174.253 843.38 172.72C842.714 171.173 842.38 169.66 842.38 168.18C842.38 164.953 843.82 162.167 846.7 159.82L847.32 160.38C845.28 162.78 844.26 165.38 844.26 168.18ZM860.31 164.68C860.416 164.68 860.59 164.84 860.83 165.16C861.083 165.467 861.25 165.773 861.33 166.08L861.03 166.46C860.55 166.273 860.05 166.18 859.53 166.18C859.01 166.18 858.536 166.4 858.11 166.84C857.683 167.267 857.47 167.96 857.47 168.92C857.483 171.267 857.543 172.633 857.65 173.02C857.663 173.127 857.85 173.227 858.21 173.32C858.583 173.4 858.97 173.453 859.37 173.48L859.31 174.06C858.67 174.02 857.856 174 856.87 174C855.896 174 855.09 174.02 854.45 174.06L854.51 173.48C854.776 173.453 855.056 173.4 855.35 173.32C855.643 173.227 855.796 173.133 855.81 173.04C855.916 172.573 855.97 171.64 855.97 170.24C855.97 167.973 855.916 166.587 855.81 166.08L854.53 165.7L854.49 165.18C855.343 165.18 856.223 165.06 857.13 164.82L857.51 165C857.483 165.2 857.47 165.747 857.47 166.64C857.856 166 858.343 165.513 858.93 165.18C859.53 164.847 859.99 164.68 860.31 164.68ZM867.721 167.6C867.721 166.987 867.548 166.533 867.201 166.24C866.854 165.933 866.468 165.78 866.041 165.78C865.414 165.78 864.874 166.027 864.421 166.52C863.968 167.013 863.668 167.62 863.521 168.34L867.661 168.18C867.701 167.98 867.721 167.787 867.721 167.6ZM865.981 174.18C864.568 174.18 863.501 173.78 862.781 172.98C862.061 172.167 861.701 171.093 861.701 169.76C861.701 168.413 862.094 167.253 862.881 166.28C863.681 165.293 864.881 164.8 866.481 164.8C867.294 164.8 868.001 165.087 868.601 165.66C869.214 166.233 869.521 167.087 869.521 168.22L868.841 169.04C868.761 169.027 868.128 169.02 866.941 169.02C865.768 169.02 864.588 169.067 863.401 169.16V169.34C863.401 170.553 863.654 171.467 864.161 172.08C864.668 172.68 865.361 172.98 866.241 172.98C867.121 172.98 868.048 172.767 869.021 172.34L869.261 172.94C868.234 173.767 867.141 174.18 865.981 174.18ZM878.821 164.08C878.927 164.08 879.101 164.24 879.341 164.56C879.594 164.867 879.761 165.173 879.841 165.48L879.541 165.86C879.301 165.74 879.014 165.68 878.681 165.68C878.347 165.68 878.034 165.753 877.741 165.9C878.207 166.473 878.441 167.227 878.441 168.16C878.441 169.093 878.134 169.893 877.521 170.56C876.907 171.213 876.001 171.54 874.801 171.54C874.494 171.54 874.201 171.52 873.921 171.48C873.427 172.12 873.181 172.56 873.181 172.8C873.181 173.107 873.614 173.26 874.481 173.26H875.981C878.501 173.26 879.761 174.073 879.761 175.7C879.761 176.607 879.254 177.427 878.241 178.16C877.241 178.893 875.894 179.26 874.201 179.26C873.214 179.26 872.361 179.093 871.641 178.76C870.921 178.44 870.561 177.98 870.561 177.38C870.561 176.527 871.247 175.547 872.621 174.44C871.781 174.253 871.361 173.933 871.361 173.48C871.361 173.027 871.961 172.313 873.161 171.34C871.814 170.913 871.141 169.84 871.141 168.12C871.141 167.24 871.447 166.473 872.061 165.82C872.687 165.153 873.561 164.82 874.681 164.82C875.814 164.82 876.661 165.02 877.221 165.42C877.381 165.167 877.627 164.88 877.961 164.56C878.294 164.24 878.581 164.08 878.821 164.08ZM872.241 176.72C872.241 177.24 872.434 177.66 872.821 177.98C873.207 178.3 873.841 178.46 874.721 178.46C875.601 178.46 876.381 178.18 877.061 177.62C877.741 177.073 878.081 176.487 878.081 175.86C878.081 175.46 877.907 175.133 877.561 174.88C877.214 174.627 876.674 174.5 875.941 174.5H873.241C872.574 175.247 872.241 175.987 872.241 176.72ZM874.821 165.64C874.434 165.64 874.094 165.733 873.801 165.92C873.521 166.093 873.314 166.32 873.181 166.6C872.954 167.133 872.841 167.7 872.841 168.3C872.841 168.9 872.987 169.453 873.281 169.96C873.587 170.467 874.074 170.72 874.741 170.72C875.221 170.72 875.614 170.58 875.921 170.3C876.241 170.007 876.447 169.707 876.541 169.4C876.647 169.093 876.707 168.773 876.721 168.44C876.721 166.573 876.087 165.64 874.821 165.64ZM883.685 174.18C882.325 174.18 881.645 173.487 881.645 172.1V169.42C881.645 167.633 881.599 166.52 881.505 166.08L880.325 165.7L880.285 165.18C881.072 165.18 881.919 165.06 882.825 164.82L883.205 165C883.165 167.387 883.145 169.553 883.145 171.5C883.145 172.393 883.685 172.84 884.765 172.84C885.219 172.84 885.705 172.767 886.225 172.62C886.745 172.46 887.159 172.287 887.465 172.1C887.519 171.38 887.545 170.533 887.545 169.56C887.545 167.747 887.492 166.587 887.385 166.08L886.125 165.7L886.085 165.18C886.939 165.18 887.819 165.06 888.725 164.82L889.105 165C889.065 166 889.045 167.653 889.045 169.96L889.105 172.3C889.105 172.527 889.192 172.707 889.365 172.84C889.552 172.96 889.732 173.04 889.905 173.08C890.079 173.107 890.319 173.127 890.625 173.14L890.565 173.72C890.085 173.76 889.359 173.88 888.385 174.08C887.985 173.907 887.712 173.507 887.565 172.88C886.285 173.747 884.992 174.18 883.685 174.18ZM894.441 159.58C894.415 161.247 894.401 163.687 894.401 166.9C894.401 170.113 894.475 172.16 894.621 173.04C894.635 173.133 894.808 173.227 895.141 173.32C895.475 173.413 895.768 173.467 896.021 173.48L895.961 174.06C895.321 174.02 894.548 174 893.641 174C892.735 174 891.961 174.02 891.321 174.06L891.381 173.48C891.661 173.453 891.955 173.4 892.261 173.32C892.581 173.227 892.748 173.133 892.761 173.04C892.855 172.173 892.901 170.507 892.901 168.04C892.901 164.027 892.861 161.68 892.781 161L892.741 160.66L891.461 160.28L891.421 159.76C892.275 159.76 893.155 159.64 894.061 159.4L894.441 159.58ZM902.211 169.8C901.117 169.827 900.284 170.033 899.711 170.42C899.137 170.807 898.851 171.227 898.851 171.68C898.851 172.133 898.964 172.467 899.191 172.68C899.431 172.88 899.811 172.98 900.331 172.98C900.851 172.98 901.477 172.76 902.211 172.32V169.8ZM903.671 174.18C902.871 174.18 902.404 173.747 902.271 172.88C901.097 173.747 900.084 174.18 899.231 174.18C898.657 174.18 898.171 174.007 897.771 173.66C897.371 173.3 897.171 172.747 897.171 172C897.171 171.253 897.564 170.58 898.351 169.98C899.151 169.38 900.437 169.02 902.211 168.9V167.04C902.211 166.667 902.071 166.38 901.791 166.18C901.524 165.98 901.144 165.88 900.651 165.88C900.157 165.88 899.764 166.02 899.471 166.3C899.177 166.567 899.031 166.913 899.031 167.34C899.031 167.5 899.051 167.68 899.091 167.88L898.651 168.08C898.384 167.933 898.131 167.733 897.891 167.48C897.664 167.227 897.551 167.047 897.551 166.94C897.551 166.82 897.637 166.653 897.811 166.44C897.997 166.213 898.244 165.973 898.551 165.72C898.857 165.467 899.264 165.253 899.771 165.08C900.291 164.893 900.871 164.8 901.511 164.8C902.151 164.8 902.671 164.96 903.071 165.28C903.471 165.587 903.671 166.153 903.671 166.98C903.671 167.793 903.711 169.52 903.791 172.16C903.804 172.8 904.044 173.12 904.511 173.12C904.711 173.12 904.917 173.067 905.131 172.96L905.331 173.48C904.824 173.947 904.271 174.18 903.671 174.18ZM911.911 164.68C912.018 164.68 912.191 164.84 912.431 165.16C912.685 165.467 912.851 165.773 912.931 166.08L912.631 166.46C912.151 166.273 911.651 166.18 911.131 166.18C910.611 166.18 910.138 166.4 909.711 166.84C909.285 167.267 909.071 167.96 909.071 168.92C909.085 171.267 909.145 172.633 909.251 173.02C909.265 173.127 909.451 173.227 909.811 173.32C910.185 173.4 910.571 173.453 910.971 173.48L910.911 174.06C910.271 174.02 909.458 174 908.471 174C907.498 174 906.691 174.02 906.051 174.06L906.111 173.48C906.378 173.453 906.658 173.4 906.951 173.32C907.245 173.227 907.398 173.133 907.411 173.04C907.518 172.573 907.571 171.64 907.571 170.24C907.571 167.973 907.518 166.587 907.411 166.08L906.131 165.7L906.091 165.18C906.945 165.18 907.825 165.06 908.731 164.82L909.111 165C909.085 165.2 909.071 165.747 909.071 166.64C909.458 166 909.945 165.513 910.531 165.18C911.131 164.847 911.591 164.68 911.911 164.68ZM922.73 168.18C922.73 165.38 921.71 162.78 919.67 160.38L920.29 159.82C923.17 162.167 924.61 164.953 924.61 168.18C924.61 169.66 924.27 171.173 923.59 172.72C922.924 174.253 921.824 175.647 920.29 176.9L919.67 176.32C920.684 175.147 921.444 173.84 921.95 172.4C922.47 170.96 922.73 169.553 922.73 168.18Z" fill="black"/>
<line x1="357.5" y1="169" x2="357.5" y2="44" stroke="black"/>
<line x1="567.5" y1="169" x2="567.5" y2="44" stroke="black"/>
<line x1="777.5" y1="169" x2="777.5" y2="44" stroke="black"/>
<path d="M235.8 121H224.1L220.6 104.7L221.8 105.7H196.7L197.9 104.7L193.9 121H182.9L196.9 68C197.7 65.1333 198.533 62.9 199.4 61.3C200.267 59.7 201.5 58.6 203.1 58C204.7 57.3333 206.9 57.0333 209.7 57.1L221.5 57.5L235.8 121ZM206.9 68.8L199.9 96.6L199.1 95.6H219.7L218.9 96.6L212.5 67.6H208.1C207.7 67.6 207.433 67.7 207.3 67.9C207.167 68.0333 207.033 68.3333 206.9 68.8ZM255.29 121.9H251.49C247.357 121.9 244.29 121.033 242.29 119.3C240.357 117.5 239.39 114.533 239.39 110.4V104C239.39 99.4667 240.423 96.3333 242.49 94.6C244.557 92.8 248.023 91.9 252.89 91.9H265.49V100H251.79C250.99 100 250.59 100.4 250.59 101.2V111.5C250.59 112.3 250.99 112.7 251.79 112.7H264.19V82.6C264.19 81.8 263.79 81.4 262.99 81.4H242.59V71.9H261.79C266.723 71.8333 270.257 72.7667 272.39 74.7C274.523 76.6333 275.59 79.9667 275.59 84.7V121H265.39L264.19 112.7L264.79 111.4C264.79 114.733 264.057 117.333 262.59 119.2C261.123 121 258.69 121.9 255.29 121.9Z" fill="black"/>
<path d="M411.857 121H395.379L420.486 48.2727H440.301L465.372 121H448.895L430.678 64.892H430.109L411.857 121ZM410.827 92.4134H449.747V104.416H410.827V92.4134ZM489.396 122.03C485.915 122.03 482.814 121.426 480.092 120.219C477.369 118.988 475.215 117.177 473.629 114.786C472.066 112.371 471.285 109.364 471.285 105.766C471.285 102.735 471.841 100.19 472.954 98.1307C474.067 96.071 475.582 94.4138 477.499 93.1591C479.417 91.9044 481.595 90.9574 484.033 90.3182C486.496 89.679 489.076 89.2292 491.775 88.9688C494.947 88.6373 497.504 88.3295 499.445 88.0455C501.387 87.7377 502.795 87.2879 503.671 86.696C504.547 86.1042 504.985 85.2282 504.985 84.0682V83.8551C504.985 81.6061 504.275 79.866 502.854 78.6349C501.458 77.4039 499.469 76.7884 496.888 76.7884C494.166 76.7884 492 77.392 490.39 78.5994C488.78 79.7831 487.715 81.2746 487.194 83.0739L473.202 81.9375C473.913 78.6231 475.309 75.7585 477.393 73.3438C479.476 70.9053 482.163 69.035 485.454 67.733C488.768 66.4072 492.603 65.7443 496.96 65.7443C499.99 65.7443 502.89 66.0994 505.66 66.8097C508.453 67.5199 510.927 68.6207 513.082 70.1122C515.26 71.6037 516.976 73.5213 518.231 75.8651C519.486 78.1851 520.113 80.9669 520.113 84.2102V121H505.766V113.436H505.34C504.464 115.141 503.292 116.644 501.825 117.946C500.357 119.224 498.593 120.231 496.533 120.964C494.474 121.675 492.094 122.03 489.396 122.03ZM493.728 111.589C495.953 111.589 497.918 111.152 499.623 110.276C501.327 109.376 502.665 108.169 503.636 106.653C504.606 105.138 505.092 103.422 505.092 101.504V95.7159C504.618 96.0237 503.967 96.3078 503.138 96.5682C502.334 96.8049 501.422 97.0298 500.404 97.2429C499.386 97.4323 498.368 97.6098 497.35 97.7756C496.332 97.9176 495.409 98.0478 494.58 98.1662C492.805 98.4266 491.254 98.8409 489.928 99.4091C488.603 99.9773 487.573 100.747 486.839 101.717C486.105 102.664 485.738 103.848 485.738 105.268C485.738 107.328 486.484 108.902 487.975 109.991C489.49 111.057 491.408 111.589 493.728 111.589Z" fill="black"/>
<path d="M625.513 121H611.45L637.054 48.2727H653.318L678.957 121H664.895L645.47 63.1875H644.902L625.513 121ZM625.974 92.4844H664.327V103.067H625.974V92.4844ZM703.664 122.101C700.208 122.101 697.095 121.485 694.325 120.254C691.579 119 689.401 117.153 687.791 114.714C686.205 112.276 685.412 109.269 685.412 105.695C685.412 102.617 685.98 100.072 687.116 98.0597C688.252 96.0473 689.803 94.4375 691.768 93.2301C693.733 92.0227 695.947 91.1113 698.409 90.4957C700.895 89.8565 703.463 89.3949 706.115 89.1108C709.311 88.7794 711.903 88.4834 713.892 88.223C715.88 87.9389 717.324 87.5128 718.224 86.9446C719.147 86.3527 719.609 85.4413 719.609 84.2102V83.9972C719.609 81.322 718.816 79.2505 717.23 77.7827C715.644 76.3149 713.359 75.581 710.376 75.581C707.227 75.581 704.73 76.2675 702.883 77.6406C701.06 79.0137 699.829 80.6354 699.19 82.5057L687.187 80.8011C688.134 77.4867 689.697 74.7169 691.875 72.4915C694.053 70.2424 696.716 68.5616 699.865 67.4489C703.013 66.3125 706.493 65.7443 710.305 65.7443C712.933 65.7443 715.549 66.0521 718.153 66.6676C720.757 67.2831 723.136 68.3011 725.291 69.7216C727.445 71.1184 729.173 73.0241 730.475 75.4389C731.801 77.8537 732.464 80.8722 732.464 84.4943V121H720.106V113.507H719.68C718.899 115.022 717.798 116.443 716.377 117.768C714.981 119.071 713.217 120.124 711.086 120.929C708.979 121.71 706.505 122.101 703.664 122.101ZM707.002 112.655C709.583 112.655 711.82 112.146 713.714 111.128C715.608 110.086 717.064 108.713 718.082 107.009C719.124 105.304 719.645 103.446 719.645 101.433V95.0057C719.242 95.3371 718.556 95.6449 717.585 95.929C716.638 96.2131 715.573 96.4616 714.389 96.6747C713.205 96.8878 712.033 97.0772 710.873 97.2429C709.713 97.4086 708.707 97.5507 707.855 97.669C705.937 97.9294 704.221 98.3556 702.706 98.9474C701.19 99.5393 699.995 100.368 699.119 101.433C698.243 102.475 697.805 103.824 697.805 105.482C697.805 107.849 698.669 109.636 700.397 110.844C702.126 112.051 704.327 112.655 707.002 112.655Z" fill="black"/>
<path d="M831.79 121H822.557L849.261 48.2727H858.352L885.057 121H875.824L854.091 59.7784H853.523L831.79 121ZM835.199 92.5909H872.415V100.403H835.199V92.5909ZM911.3 122.278C907.843 122.278 904.706 121.627 901.889 120.325C899.072 119 896.835 117.094 895.178 114.608C893.52 112.098 892.692 109.068 892.692 105.517C892.692 102.392 893.307 99.8589 894.538 97.9176C895.769 95.9527 897.415 94.4138 899.474 93.3011C901.534 92.1884 903.807 91.3598 906.293 90.8153C908.802 90.2472 911.323 89.7973 913.857 89.4659C917.171 89.0398 919.858 88.7202 921.918 88.5071C924.001 88.2704 925.516 87.8797 926.463 87.3352C927.434 86.7907 927.919 85.8437 927.919 84.4943V84.2102C927.919 80.7064 926.96 77.9839 925.043 76.0426C923.149 74.1013 920.272 73.1307 916.413 73.1307C912.412 73.1307 909.276 74.0066 907.003 75.7585C904.73 77.5104 903.132 79.3807 902.209 81.3693L894.254 78.5284C895.675 75.214 897.569 72.6335 899.936 70.7869C902.327 68.9167 904.931 67.6146 907.749 66.8807C910.589 66.1231 913.383 65.7443 916.129 65.7443C917.881 65.7443 919.893 65.9574 922.166 66.3835C924.463 66.786 926.676 67.6264 928.807 68.9048C930.961 70.1832 932.749 72.1127 934.169 74.6932C935.589 77.2737 936.3 80.7301 936.3 85.0625V121H927.919V113.614H927.493C926.925 114.797 925.978 116.064 924.652 117.413C923.326 118.763 921.563 119.911 919.361 120.858C917.159 121.805 914.472 122.278 911.3 122.278ZM912.578 114.75C915.893 114.75 918.686 114.099 920.959 112.797C923.255 111.495 924.983 109.814 926.143 107.754C927.327 105.695 927.919 103.528 927.919 101.256V93.5852C927.564 94.0114 926.783 94.402 925.575 94.7571C924.392 95.0885 923.018 95.3845 921.456 95.6449C919.917 95.8816 918.414 96.0947 916.946 96.2841C915.502 96.4498 914.33 96.5919 913.43 96.7102C911.252 96.9943 909.216 97.456 907.322 98.0952C905.452 98.7107 903.937 99.6458 902.777 100.901C901.641 102.132 901.072 103.812 901.072 105.943C901.072 108.855 902.15 111.057 904.304 112.548C906.482 114.016 909.24 114.75 912.578 114.75Z" fill="black"/>
<rect x="0.5" y="0.5" width="1137" height="223" rx="58.5" stroke="black"/>
</svg>
