<svg width="1138" height="224" viewBox="0 0 1138 224" fill="none" xmlns="http://www.w3.org/2000/svg">
<path d="M229.994 185.06C229.154 185.02 228.154 185 226.994 185C225.848 185 224.854 185.02 224.014 185.06L223.954 184.48C224.181 184.427 224.428 184.38 224.694 184.34C224.974 184.287 225.194 184.24 225.354 184.2C225.528 184.16 225.661 184.127 225.754 184.1C225.848 184.06 225.941 184.013 226.034 183.96C226.208 183.88 226.308 183.767 226.334 183.62C226.374 183.313 226.414 182.533 226.454 181.28H220.714L220.474 180.5L225.754 170.56L227.574 170.74L221.914 180.18H226.474V176.48C226.474 176.453 226.488 176.42 226.514 176.38C226.541 176.327 226.694 176.26 226.974 176.18C227.268 176.087 227.681 176.027 228.214 176C228.214 178.293 228.221 179.68 228.234 180.16H229.854L229.974 180.46L229.214 181.38C229.214 181.353 228.894 181.327 228.254 181.3L228.374 183.62C228.401 183.86 228.521 184.033 228.734 184.14C228.961 184.233 229.401 184.347 230.054 184.48L229.994 185.06ZM235.103 179.1C233.943 179.1 233.023 178.727 232.343 177.98C231.676 177.233 231.343 176.347 231.343 175.32C231.343 174.293 231.696 173.407 232.403 172.66C233.123 171.913 234.136 171.54 235.443 171.54C236.763 171.54 237.85 172.033 238.703 173.02C239.57 173.993 240.003 175.207 240.003 176.66C240.003 178.393 239.343 180.133 238.023 181.88C236.716 183.627 234.716 185.107 232.023 186.32L231.703 185.6C232.783 185.093 233.743 184.467 234.583 183.72C235.436 182.973 236.11 182.187 236.603 181.36C237.59 179.68 238.083 178.04 238.083 176.44C238.083 175.32 237.85 174.4 237.383 173.68C236.916 172.947 236.303 172.58 235.543 172.58C234.796 172.58 234.21 172.867 233.783 173.44C233.37 174 233.163 174.66 233.163 175.42C233.163 176.18 233.383 176.84 233.823 177.4C234.263 177.96 234.883 178.24 235.683 178.24C235.963 178.24 236.276 178.2 236.623 178.12L236.703 178.86C236.116 179.02 235.583 179.1 235.103 179.1ZM247.742 174.46C247.742 173.9 247.555 173.42 247.182 173.02C246.822 172.62 246.322 172.42 245.682 172.42C245.055 172.42 244.562 172.6 244.202 172.96C243.855 173.32 243.682 173.773 243.682 174.32C243.682 175.427 244.475 176.433 246.062 177.34C246.582 177.047 246.988 176.633 247.282 176.1C247.588 175.567 247.742 175.02 247.742 174.46ZM243.242 181.78C243.242 182.433 243.448 183 243.862 183.48C244.275 183.947 244.828 184.18 245.522 184.18C246.215 184.18 246.788 183.94 247.242 183.46C247.695 182.98 247.922 182.413 247.922 181.76C247.922 180.467 247.022 179.427 245.222 178.64C244.595 178.947 244.108 179.38 243.762 179.94C243.415 180.5 243.242 181.113 243.242 181.78ZM249.802 181.6C249.802 182.6 249.382 183.447 248.542 184.14C247.715 184.833 246.682 185.18 245.442 185.18C244.202 185.18 243.235 184.86 242.542 184.22C241.848 183.58 241.502 182.84 241.502 182C241.502 181.16 241.755 180.413 242.262 179.76C242.768 179.093 243.502 178.6 244.462 178.28C242.715 177.227 241.842 176.04 241.842 174.72C241.842 173.813 242.215 173.06 242.962 172.46C243.722 171.847 244.655 171.54 245.762 171.54C246.882 171.54 247.762 171.82 248.402 172.38C249.042 172.927 249.362 173.567 249.362 174.3C249.362 175.02 249.142 175.693 248.702 176.32C248.262 176.933 247.622 177.4 246.782 177.72C248.795 178.76 249.802 180.053 249.802 181.6ZM257.839 174.46C257.839 173.9 257.653 173.42 257.279 173.02C256.919 172.62 256.419 172.42 255.779 172.42C255.153 172.42 254.659 172.6 254.299 172.96C253.953 173.32 253.779 173.773 253.779 174.32C253.779 175.427 254.573 176.433 256.159 177.34C256.679 177.047 257.086 176.633 257.379 176.1C257.686 175.567 257.839 175.02 257.839 174.46ZM253.339 181.78C253.339 182.433 253.546 183 253.959 183.48C254.373 183.947 254.926 184.18 255.619 184.18C256.313 184.18 256.886 183.94 257.339 183.46C257.793 182.98 258.019 182.413 258.019 181.76C258.019 180.467 257.119 179.427 255.319 178.64C254.693 178.947 254.206 179.38 253.859 179.94C253.513 180.5 253.339 181.113 253.339 181.78ZM259.899 181.6C259.899 182.6 259.479 183.447 258.639 184.14C257.813 184.833 256.779 185.18 255.539 185.18C254.299 185.18 253.333 184.86 252.639 184.22C251.946 183.58 251.599 182.84 251.599 182C251.599 181.16 251.853 180.413 252.359 179.76C252.866 179.093 253.599 178.6 254.559 178.28C252.813 177.227 251.939 176.04 251.939 174.72C251.939 173.813 252.313 173.06 253.059 172.46C253.819 171.847 254.753 171.54 255.859 171.54C256.979 171.54 257.859 171.82 258.499 172.38C259.139 172.927 259.459 173.567 259.459 174.3C259.459 175.02 259.239 175.693 258.799 176.32C258.359 176.933 257.719 177.4 256.879 177.72C258.893 178.76 259.899 180.053 259.899 181.6ZM264.257 171.3H267.617C268.87 171.3 269.824 171.607 270.477 172.22C271.13 172.833 271.457 173.593 271.457 174.5C271.457 175.113 271.27 175.7 270.897 176.26C270.524 176.807 270.01 177.24 269.357 177.56C270.41 177.8 271.17 178.213 271.637 178.8C272.104 179.387 272.337 180.18 272.337 181.18C272.337 182.18 271.917 183.067 271.077 183.84C270.237 184.613 269.19 185 267.937 185H264.257C263.217 185 262.277 185.02 261.437 185.06L261.377 184.48C262.057 184.347 262.517 184.227 262.757 184.12C262.997 184.013 263.13 183.847 263.157 183.62C263.264 182.833 263.317 181.407 263.317 179.34C263.317 175.993 263.277 173.907 263.197 173.08L263.157 172.68C263.13 172.44 263.01 172.273 262.797 172.18C262.584 172.073 262.157 171.953 261.517 171.82L261.577 171.24C262.417 171.28 263.31 171.3 264.257 171.3ZM269.577 174.5C269.577 172.927 268.564 172.14 266.537 172.14C266.057 172.14 265.744 172.167 265.597 172.22C265.464 172.273 265.37 172.393 265.317 172.58C265.17 173.26 265.097 174.947 265.097 177.64C266.03 177.48 267.024 177.4 268.077 177.4C269.077 176.747 269.577 175.78 269.577 174.5ZM267.337 184.28C268.177 184.28 268.904 184 269.517 183.44C270.13 182.88 270.437 182.113 270.437 181.14C270.437 179.207 269.077 178.24 266.357 178.24C265.957 178.24 265.537 178.26 265.097 178.3C265.097 180.927 265.15 182.58 265.257 183.26L265.317 183.64C265.437 184.067 266.11 184.28 267.337 184.28ZM281.916 180.94C281.916 182.193 281.33 183.327 280.156 184.34C278.983 185.353 277.476 185.86 275.636 185.86C275.036 185.86 274.43 185.793 273.816 185.66L273.876 184.7C274.476 184.82 275.023 184.88 275.516 184.88C276.93 184.88 278.03 184.513 278.816 183.78C279.616 183.033 280.016 182.173 280.016 181.2C280.016 180.427 279.743 179.773 279.196 179.24C278.663 178.693 277.91 178.42 276.936 178.42C276.456 178.42 275.956 178.487 275.436 178.62L275.496 177.84C276.776 177.547 277.743 177.047 278.396 176.34C279.063 175.62 279.396 174.987 279.396 174.44C279.396 173.88 279.236 173.453 278.916 173.16C278.61 172.867 278.116 172.72 277.436 172.72C276.77 172.72 275.916 173.04 274.876 173.68L274.596 173.12C275.756 172.053 276.976 171.52 278.256 171.52C279.11 171.52 279.816 171.753 280.376 172.22C280.95 172.687 281.236 173.24 281.236 173.88C281.236 175.267 280.243 176.473 278.256 177.5V177.6C279.51 177.787 280.43 178.18 281.016 178.78C281.616 179.367 281.916 180.087 281.916 180.94Z" fill="black"/>
<path d="M439.247 175.16C439.247 175.907 439.054 176.687 438.667 177.5C438.281 178.313 437.834 179.027 437.327 179.64C436.834 180.24 436.247 180.853 435.567 181.48C434.607 182.333 433.734 183.033 432.947 183.58L432.987 183.68C435.454 183.68 437.027 183.573 437.707 183.36C438.387 183.147 438.881 182.553 439.187 181.58L439.727 181.82C439.487 182.553 439.327 183.613 439.247 185H431.207L430.967 184.2C431.461 183.827 432.134 183.22 432.987 182.38C433.854 181.54 434.567 180.78 435.127 180.1C435.687 179.42 436.194 178.647 436.647 177.78C437.114 176.9 437.347 176.067 437.347 175.28C437.347 174.48 437.107 173.887 436.627 173.5C436.147 173.1 435.521 172.9 434.747 172.9C433.641 172.9 432.601 173.16 431.627 173.68L431.347 173.12C432.601 172.067 433.934 171.54 435.347 171.54C436.427 171.54 437.347 171.86 438.107 172.5C438.867 173.127 439.247 174.013 439.247 175.16ZM445.959 171.74C445.906 173.153 445.879 174.893 445.879 176.96C445.879 180.307 445.919 182.387 445.999 183.2L446.039 183.62C446.066 183.847 446.199 184.013 446.439 184.12C446.693 184.227 447.166 184.347 447.859 184.48L447.799 185.06C446.999 185.02 446.039 185 444.919 185C443.799 185 442.719 185.02 441.679 185.06L441.619 184.48C441.846 184.427 442.093 184.38 442.359 184.34C442.639 184.287 442.859 184.24 443.019 184.2C443.193 184.16 443.326 184.127 443.419 184.1C443.513 184.06 443.606 184.013 443.699 183.96C443.873 183.88 443.973 183.767 443.999 183.62C444.093 182.833 444.139 181.407 444.139 179.34C444.139 176.127 444.099 174.147 444.019 173.4L443.999 173.08L441.579 172.66L441.519 171.94C443.186 171.94 444.526 171.807 445.539 171.54L445.959 171.74ZM457.366 180.94C457.366 182.193 456.779 183.327 455.606 184.34C454.432 185.353 452.926 185.86 451.086 185.86C450.486 185.86 449.879 185.793 449.266 185.66L449.326 184.7C449.926 184.82 450.472 184.88 450.966 184.88C452.379 184.88 453.479 184.513 454.266 183.78C455.066 183.033 455.466 182.173 455.466 181.2C455.466 180.427 455.192 179.773 454.646 179.24C454.112 178.693 453.359 178.42 452.386 178.42C451.906 178.42 451.406 178.487 450.886 178.62L450.946 177.84C452.226 177.547 453.192 177.047 453.846 176.34C454.512 175.62 454.846 174.987 454.846 174.44C454.846 173.88 454.686 173.453 454.366 173.16C454.059 172.867 453.566 172.72 452.886 172.72C452.219 172.72 451.366 173.04 450.326 173.68L450.046 173.12C451.206 172.053 452.426 171.52 453.706 171.52C454.559 171.52 455.266 171.753 455.826 172.22C456.399 172.687 456.686 173.24 456.686 173.88C456.686 175.267 455.692 176.473 453.706 177.5V177.6C454.959 177.787 455.879 178.18 456.466 178.78C457.066 179.367 457.366 180.087 457.366 180.94ZM466.515 184.26C467.768 184.26 468.795 184.007 469.595 183.5C470.395 182.98 470.928 182.28 471.195 181.4L471.735 181.64C471.588 182.12 471.435 183.013 471.275 184.32C469.635 184.933 468.028 185.24 466.455 185.24C464.268 185.24 462.535 184.647 461.255 183.46C459.975 182.26 459.335 180.6 459.335 178.48C459.335 176.36 459.968 174.607 461.235 173.22C462.502 171.82 464.235 171.12 466.435 171.12C467.048 171.12 467.735 171.173 468.495 171.28C469.255 171.373 469.775 171.42 470.055 171.42C470.335 171.42 470.635 171.38 470.955 171.3V171.6C470.955 172.573 471.035 173.513 471.195 174.42L470.655 174.66C470.122 172.913 468.708 172.04 466.415 172.04C465.082 172.04 463.935 172.513 462.975 173.46C462.495 173.927 462.115 174.547 461.835 175.32C461.568 176.093 461.435 176.927 461.435 177.82C461.435 178.7 461.528 179.5 461.715 180.22C461.902 180.94 462.188 181.607 462.575 182.22C462.962 182.833 463.495 183.327 464.175 183.7C464.855 184.073 465.635 184.26 466.515 184.26ZM480.039 173.04C479.719 172.96 479.279 172.92 478.719 172.92C478.172 172.92 477.046 173 475.339 173.16L474.779 176.22C476.886 176.287 478.472 176.753 479.539 177.62C480.619 178.473 481.159 179.54 481.159 180.82C481.159 182.087 480.579 183.247 479.419 184.3C478.259 185.34 476.772 185.86 474.959 185.86C474.346 185.86 473.726 185.793 473.099 185.66L473.159 184.76C473.692 184.827 474.139 184.86 474.499 184.86C475.966 184.86 477.126 184.493 477.979 183.76C478.832 183.027 479.259 182.16 479.259 181.16C479.259 180.147 478.799 179.287 477.879 178.58C476.959 177.86 475.639 177.5 473.919 177.5L473.679 176.72L474.619 171.86L480.719 171.2L480.859 171.5L480.039 173.04ZM491.384 174.92C491.704 175.92 491.864 177.067 491.864 178.36C491.864 179.653 491.704 180.8 491.384 181.8C491.077 182.8 490.577 183.613 489.884 184.24C489.204 184.867 488.371 185.18 487.384 185.18C486.397 185.18 485.557 184.867 484.864 184.24C484.184 183.613 483.684 182.8 483.364 181.8C483.057 180.8 482.904 179.653 482.904 178.36C482.904 177.067 483.057 175.92 483.364 174.92C483.684 173.92 484.184 173.107 484.864 172.48C485.557 171.853 486.397 171.54 487.384 171.54C488.371 171.54 489.204 171.853 489.884 172.48C490.577 173.107 491.077 173.92 491.384 174.92ZM489.304 174.1C488.864 172.993 488.224 172.44 487.384 172.44C486.544 172.44 485.904 172.993 485.464 174.1C485.024 175.207 484.804 176.627 484.804 178.36C484.804 180.093 485.024 181.513 485.464 182.62C485.904 183.727 486.544 184.28 487.384 184.28C488.224 184.28 488.864 183.727 489.304 182.62C489.744 181.513 489.964 180.093 489.964 178.36C489.964 176.627 489.744 175.207 489.304 174.1Z" fill="black"/>
<path d="M646.238 174.92C646.558 175.92 646.718 177.067 646.718 178.36C646.718 179.653 646.558 180.8 646.238 181.8C645.931 182.8 645.431 183.613 644.738 184.24C644.058 184.867 643.224 185.18 642.238 185.18C641.251 185.18 640.411 184.867 639.718 184.24C639.038 183.613 638.538 182.8 638.218 181.8C637.911 180.8 637.758 179.653 637.758 178.36C637.758 177.067 637.911 175.92 638.218 174.92C638.538 173.92 639.038 173.107 639.718 172.48C640.411 171.853 641.251 171.54 642.238 171.54C643.224 171.54 644.058 171.853 644.738 172.48C645.431 173.107 645.931 173.92 646.238 174.92ZM644.158 174.1C643.718 172.993 643.078 172.44 642.238 172.44C641.398 172.44 640.758 172.993 640.318 174.1C639.878 175.207 639.658 176.627 639.658 178.36C639.658 180.093 639.878 181.513 640.318 182.62C640.758 183.727 641.398 184.28 642.238 184.28C643.078 184.28 643.718 183.727 644.158 182.62C644.598 181.513 644.818 180.093 644.818 178.36C644.818 176.627 644.598 175.207 644.158 174.1ZM650.946 171.3H654.306C655.56 171.3 656.513 171.607 657.166 172.22C657.82 172.833 658.146 173.593 658.146 174.5C658.146 175.113 657.96 175.7 657.586 176.26C657.213 176.807 656.7 177.24 656.046 177.56C657.1 177.8 657.86 178.213 658.326 178.8C658.793 179.387 659.026 180.18 659.026 181.18C659.026 182.18 658.606 183.067 657.766 183.84C656.926 184.613 655.88 185 654.626 185H650.946C649.906 185 648.966 185.02 648.126 185.06L648.066 184.48C648.746 184.347 649.206 184.227 649.446 184.12C649.686 184.013 649.82 183.847 649.846 183.62C649.953 182.833 650.006 181.407 650.006 179.34C650.006 175.993 649.966 173.907 649.886 173.08L649.846 172.68C649.82 172.44 649.7 172.273 649.486 172.18C649.273 172.073 648.846 171.953 648.206 171.82L648.266 171.24C649.106 171.28 650 171.3 650.946 171.3ZM656.266 174.5C656.266 172.927 655.253 172.14 653.226 172.14C652.746 172.14 652.433 172.167 652.286 172.22C652.153 172.273 652.06 172.393 652.006 172.58C651.86 173.26 651.786 174.947 651.786 177.64C652.72 177.48 653.713 177.4 654.766 177.4C655.766 176.747 656.266 175.78 656.266 174.5ZM654.026 184.28C654.866 184.28 655.593 184 656.206 183.44C656.82 182.88 657.126 182.113 657.126 181.14C657.126 179.207 655.766 178.24 653.046 178.24C652.646 178.24 652.226 178.26 651.786 178.3C651.786 180.927 651.84 182.58 651.946 183.26L652.006 183.64C652.126 184.067 652.8 184.28 654.026 184.28ZM669.226 174.92C669.546 175.92 669.706 177.067 669.706 178.36C669.706 179.653 669.546 180.8 669.226 181.8C668.919 182.8 668.419 183.613 667.726 184.24C667.046 184.867 666.213 185.18 665.226 185.18C664.239 185.18 663.399 184.867 662.706 184.24C662.026 183.613 661.526 182.8 661.206 181.8C660.899 180.8 660.746 179.653 660.746 178.36C660.746 177.067 660.899 175.92 661.206 174.92C661.526 173.92 662.026 173.107 662.706 172.48C663.399 171.853 664.239 171.54 665.226 171.54C666.213 171.54 667.046 171.853 667.726 172.48C668.419 173.107 668.919 173.92 669.226 174.92ZM667.146 174.1C666.706 172.993 666.066 172.44 665.226 172.44C664.386 172.44 663.746 172.993 663.306 174.1C662.866 175.207 662.646 176.627 662.646 178.36C662.646 180.093 662.866 181.513 663.306 182.62C663.746 183.727 664.386 184.28 665.226 184.28C666.066 184.28 666.706 183.727 667.146 182.62C667.586 181.513 667.806 180.093 667.806 178.36C667.806 176.627 667.586 175.207 667.146 174.1ZM673.935 171.3H677.295C678.548 171.3 679.501 171.607 680.155 172.22C680.808 172.833 681.135 173.593 681.135 174.5C681.135 175.113 680.948 175.7 680.575 176.26C680.201 176.807 679.688 177.24 679.035 177.56C680.088 177.8 680.848 178.213 681.315 178.8C681.781 179.387 682.015 180.18 682.015 181.18C682.015 182.18 681.595 183.067 680.755 183.84C679.915 184.613 678.868 185 677.615 185H673.935C672.895 185 671.955 185.02 671.115 185.06L671.055 184.48C671.735 184.347 672.195 184.227 672.435 184.12C672.675 184.013 672.808 183.847 672.835 183.62C672.941 182.833 672.995 181.407 672.995 179.34C672.995 175.993 672.955 173.907 672.875 173.08L672.835 172.68C672.808 172.44 672.688 172.273 672.475 172.18C672.261 172.073 671.835 171.953 671.195 171.82L671.255 171.24C672.095 171.28 672.988 171.3 673.935 171.3ZM679.255 174.5C679.255 172.927 678.241 172.14 676.215 172.14C675.735 172.14 675.421 172.167 675.275 172.22C675.141 172.273 675.048 172.393 674.995 172.58C674.848 173.26 674.775 174.947 674.775 177.64C675.708 177.48 676.701 177.4 677.755 177.4C678.755 176.747 679.255 175.78 679.255 174.5ZM677.015 184.28C677.855 184.28 678.581 184 679.195 183.44C679.808 182.88 680.115 182.113 680.115 181.14C680.115 179.207 678.755 178.24 676.035 178.24C675.635 178.24 675.215 178.26 674.775 178.3C674.775 180.927 674.828 182.58 674.935 183.26L674.995 183.64C675.115 184.067 675.788 184.28 677.015 184.28ZM692.214 174.92C692.534 175.92 692.694 177.067 692.694 178.36C692.694 179.653 692.534 180.8 692.214 181.8C691.907 182.8 691.407 183.613 690.714 184.24C690.034 184.867 689.201 185.18 688.214 185.18C687.227 185.18 686.387 184.867 685.694 184.24C685.014 183.613 684.514 182.8 684.194 181.8C683.887 180.8 683.734 179.653 683.734 178.36C683.734 177.067 683.887 175.92 684.194 174.92C684.514 173.92 685.014 173.107 685.694 172.48C686.387 171.853 687.227 171.54 688.214 171.54C689.201 171.54 690.034 171.853 690.714 172.48C691.407 173.107 691.907 173.92 692.214 174.92ZM690.134 174.1C689.694 172.993 689.054 172.44 688.214 172.44C687.374 172.44 686.734 172.993 686.294 174.1C685.854 175.207 685.634 176.627 685.634 178.36C685.634 180.093 685.854 181.513 686.294 182.62C686.734 183.727 687.374 184.28 688.214 184.28C689.054 184.28 689.694 183.727 690.134 182.62C690.574 181.513 690.794 180.093 690.794 178.36C690.794 176.627 690.574 175.207 690.134 174.1ZM696.923 171.3H700.283C701.536 171.3 702.49 171.607 703.143 172.22C703.796 172.833 704.123 173.593 704.123 174.5C704.123 175.113 703.936 175.7 703.563 176.26C703.19 176.807 702.676 177.24 702.023 177.56C703.076 177.8 703.836 178.213 704.303 178.8C704.77 179.387 705.003 180.18 705.003 181.18C705.003 182.18 704.583 183.067 703.743 183.84C702.903 184.613 701.856 185 700.603 185H696.923C695.883 185 694.943 185.02 694.103 185.06L694.043 184.48C694.723 184.347 695.183 184.227 695.423 184.12C695.663 184.013 695.796 183.847 695.823 183.62C695.93 182.833 695.983 181.407 695.983 179.34C695.983 175.993 695.943 173.907 695.863 173.08L695.823 172.68C695.796 172.44 695.676 172.273 695.463 172.18C695.25 172.073 694.823 171.953 694.183 171.82L694.243 171.24C695.083 171.28 695.976 171.3 696.923 171.3ZM702.243 174.5C702.243 172.927 701.23 172.14 699.203 172.14C698.723 172.14 698.41 172.167 698.263 172.22C698.13 172.273 698.036 172.393 697.983 172.58C697.836 173.26 697.763 174.947 697.763 177.64C698.696 177.48 699.69 177.4 700.743 177.4C701.743 176.747 702.243 175.78 702.243 174.5ZM700.003 184.28C700.843 184.28 701.57 184 702.183 183.44C702.796 182.88 703.103 182.113 703.103 181.14C703.103 179.207 701.743 178.24 699.023 178.24C698.623 178.24 698.203 178.26 697.763 178.3C697.763 180.927 697.816 182.58 697.923 183.26L697.983 183.64C698.103 184.067 698.776 184.28 700.003 184.28Z" fill="black"/>
<path d="M848.203 178.46C848.203 180.833 848.243 182.42 848.323 183.22L848.363 183.62C848.389 183.86 848.516 184.033 848.743 184.14C848.969 184.233 849.409 184.347 850.063 184.48L850.003 185.06C849.163 185.02 848.249 185 847.263 185C846.276 185 845.363 185.02 844.523 185.06L844.463 184.48C845.143 184.347 845.603 184.227 845.843 184.12C846.083 184.013 846.216 183.847 846.243 183.62C846.349 182.833 846.403 181.407 846.403 179.34C846.403 175.993 846.363 173.907 846.283 173.08L846.243 172.68C846.216 172.44 846.096 172.273 845.883 172.18C845.669 172.073 845.243 171.953 844.603 171.82L844.663 171.24C845.503 171.28 847.036 171.3 849.263 171.3C851.503 171.3 853.169 171.26 854.263 171.18V171.48C854.263 172.533 854.343 173.513 854.503 174.42L853.963 174.66C853.616 173.567 853.203 172.873 852.723 172.58C852.243 172.287 851.336 172.14 850.003 172.14C849.149 172.14 848.649 172.2 848.503 172.32C848.436 172.387 848.396 172.473 848.383 172.58C848.276 173.42 848.216 175.113 848.203 177.66C850.003 177.66 851.069 177.62 851.403 177.54C851.749 177.46 851.969 177.313 852.063 177.1C852.169 176.887 852.289 176.433 852.423 175.74L853.123 175.82C853.016 176.593 852.963 177.333 852.963 178.04C852.963 178.747 853.016 179.493 853.123 180.28L852.423 180.38C852.289 179.687 852.169 179.233 852.063 179.02C851.969 178.807 851.749 178.66 851.403 178.58C851.069 178.5 850.003 178.46 848.203 178.46ZM863.097 184.26C864.35 184.26 865.377 184.007 866.177 183.5C866.977 182.98 867.51 182.28 867.777 181.4L868.317 181.64C868.17 182.12 868.017 183.013 867.857 184.32C866.217 184.933 864.61 185.24 863.037 185.24C860.85 185.24 859.117 184.647 857.837 183.46C856.557 182.26 855.917 180.6 855.917 178.48C855.917 176.36 856.55 174.607 857.817 173.22C859.084 171.82 860.817 171.12 863.017 171.12C863.63 171.12 864.317 171.173 865.077 171.28C865.837 171.373 866.357 171.42 866.637 171.42C866.917 171.42 867.217 171.38 867.537 171.3V171.6C867.537 172.573 867.617 173.513 867.777 174.42L867.237 174.66C866.704 172.913 865.29 172.04 862.997 172.04C861.664 172.04 860.517 172.513 859.557 173.46C859.077 173.927 858.697 174.547 858.417 175.32C858.15 176.093 858.017 176.927 858.017 177.82C858.017 178.7 858.11 179.5 858.297 180.22C858.484 180.94 858.77 181.607 859.157 182.22C859.544 182.833 860.077 183.327 860.757 183.7C861.437 184.073 862.217 184.26 863.097 184.26ZM873.281 178.46C873.281 180.833 873.321 182.42 873.401 183.22L873.441 183.62C873.468 183.86 873.594 184.033 873.821 184.14C874.048 184.233 874.488 184.347 875.141 184.48L875.081 185.06C874.241 185.02 873.328 185 872.341 185C871.354 185 870.441 185.02 869.601 185.06L869.541 184.48C870.221 184.347 870.681 184.227 870.921 184.12C871.161 184.013 871.294 183.847 871.321 183.62C871.428 182.833 871.481 181.407 871.481 179.34C871.481 175.993 871.441 173.907 871.361 173.08L871.321 172.68C871.294 172.44 871.174 172.273 870.961 172.18C870.748 172.073 870.321 171.953 869.681 171.82L869.741 171.24C870.581 171.28 872.114 171.3 874.341 171.3C876.581 171.3 878.248 171.26 879.341 171.18V171.48C879.341 172.533 879.421 173.513 879.581 174.42L879.041 174.66C878.694 173.567 878.281 172.873 877.801 172.58C877.321 172.287 876.414 172.14 875.081 172.14C874.228 172.14 873.728 172.2 873.581 172.32C873.514 172.387 873.474 172.473 873.461 172.58C873.354 173.42 873.294 175.113 873.281 177.66C875.081 177.66 876.148 177.62 876.481 177.54C876.828 177.46 877.048 177.313 877.141 177.1C877.248 176.887 877.368 176.433 877.501 175.74L878.201 175.82C878.094 176.593 878.041 177.333 878.041 178.04C878.041 178.747 878.094 179.493 878.201 180.28L877.501 180.38C877.368 179.687 877.248 179.233 877.141 179.02C877.048 178.807 876.828 178.66 876.481 178.58C876.148 178.5 875.081 178.46 873.281 178.46ZM888.175 184.26C889.428 184.26 890.455 184.007 891.255 183.5C892.055 182.98 892.588 182.28 892.855 181.4L893.395 181.64C893.248 182.12 893.095 183.013 892.935 184.32C891.295 184.933 889.688 185.24 888.115 185.24C885.928 185.24 884.195 184.647 882.915 183.46C881.635 182.26 880.995 180.6 880.995 178.48C880.995 176.36 881.628 174.607 882.895 173.22C884.162 171.82 885.895 171.12 888.095 171.12C888.708 171.12 889.395 171.173 890.155 171.28C890.915 171.373 891.435 171.42 891.715 171.42C891.995 171.42 892.295 171.38 892.615 171.3V171.6C892.615 172.573 892.695 173.513 892.855 174.42L892.315 174.66C891.782 172.913 890.368 172.04 888.075 172.04C886.742 172.04 885.595 172.513 884.635 173.46C884.155 173.927 883.775 174.547 883.495 175.32C883.228 176.093 883.095 176.927 883.095 177.82C883.095 178.7 883.188 179.5 883.375 180.22C883.562 180.94 883.848 181.607 884.235 182.22C884.622 182.833 885.155 183.327 885.835 183.7C886.515 184.073 887.295 184.26 888.175 184.26ZM898.359 178.46C898.359 180.833 898.399 182.42 898.479 183.22L898.519 183.62C898.546 183.86 898.672 184.033 898.899 184.14C899.126 184.233 899.566 184.347 900.219 184.48L900.159 185.06C899.319 185.02 898.406 185 897.419 185C896.432 185 895.519 185.02 894.679 185.06L894.619 184.48C895.299 184.347 895.759 184.227 895.999 184.12C896.239 184.013 896.372 183.847 896.399 183.62C896.506 182.833 896.559 181.407 896.559 179.34C896.559 175.993 896.519 173.907 896.439 173.08L896.399 172.68C896.372 172.44 896.252 172.273 896.039 172.18C895.826 172.073 895.399 171.953 894.759 171.82L894.819 171.24C895.659 171.28 897.192 171.3 899.419 171.3C901.659 171.3 903.326 171.26 904.419 171.18V171.48C904.419 172.533 904.499 173.513 904.659 174.42L904.119 174.66C903.772 173.567 903.359 172.873 902.879 172.58C902.399 172.287 901.492 172.14 900.159 172.14C899.306 172.14 898.806 172.2 898.659 172.32C898.592 172.387 898.552 172.473 898.539 172.58C898.432 173.42 898.372 175.113 898.359 177.66C900.159 177.66 901.226 177.62 901.559 177.54C901.906 177.46 902.126 177.313 902.219 177.1C902.326 176.887 902.446 176.433 902.579 175.74L903.279 175.82C903.172 176.593 903.119 177.333 903.119 178.04C903.119 178.747 903.172 179.493 903.279 180.28L902.579 180.38C902.446 179.687 902.326 179.233 902.219 179.02C902.126 178.807 901.906 178.66 901.559 178.58C901.226 178.5 900.159 178.46 898.359 178.46ZM913.253 184.26C914.507 184.26 915.533 184.007 916.333 183.5C917.133 182.98 917.667 182.28 917.933 181.4L918.473 181.64C918.327 182.12 918.173 183.013 918.013 184.32C916.373 184.933 914.767 185.24 913.193 185.24C911.007 185.24 909.273 184.647 907.993 183.46C906.713 182.26 906.073 180.6 906.073 178.48C906.073 176.36 906.707 174.607 907.973 173.22C909.24 171.82 910.973 171.12 913.173 171.12C913.787 171.12 914.473 171.173 915.233 171.28C915.993 171.373 916.513 171.42 916.793 171.42C917.073 171.42 917.373 171.38 917.693 171.3V171.6C917.693 172.573 917.773 173.513 917.933 174.42L917.393 174.66C916.86 172.913 915.447 172.04 913.153 172.04C911.82 172.04 910.673 172.513 909.713 173.46C909.233 173.927 908.853 174.547 908.573 175.32C908.307 176.093 908.173 176.927 908.173 177.82C908.173 178.7 908.267 179.5 908.453 180.22C908.64 180.94 908.927 181.607 909.313 182.22C909.7 182.833 910.233 183.327 910.913 183.7C911.593 184.073 912.373 184.26 913.253 184.26Z" fill="black"/>
<line x1="357.5" y1="190" x2="357.5" y2="65" stroke="black"/>
<line x1="567.5" y1="190" x2="567.5" y2="65" stroke="black"/>
<line x1="777.5" y1="190" x2="777.5" y2="65" stroke="black"/>
<rect x="210.5" y="72.5" width="84" height="84" rx="9.5" fill="#4988B3" stroke="black"/>
<rect x="420.5" y="72.5" width="84" height="84" rx="9.5" fill="#213C50" stroke="black"/>
<rect x="630.5" y="72.5" width="84" height="84" rx="9.5" fill="#0B0B0B" stroke="black"/>
<rect x="840.5" y="72.5" width="84" height="84" rx="9.5" fill="#FCFCFC" stroke="black"/>
<rect x="0.5" y="0.5" width="1137" height="223" rx="58.5" stroke="black"/>
</svg>
