<svg width="315" height="69" viewBox="0 0 315 69" fill="none" xmlns="http://www.w3.org/2000/svg">
<g filter="url(#filter0_i_462_429)">
<path d="M53.6563 0.899999H55.1263L54.5263 8.49H53.3263C52.9063 6.65 52.0863 5.2 50.8663 4.14C49.6663 3.08 48.2063 2.55 46.4863 2.55C45.3063 2.55 44.2563 2.79 43.3363 3.27C42.4163 3.73 41.6363 4.4 40.9963 5.28C40.3763 6.14 39.8963 7.2 39.5563 8.46C39.2363 9.7 39.0763 11.1 39.0763 12.66C39.0763 15.76 39.7063 18.15 40.9663 19.83C42.2463 21.49 44.1263 22.32 46.6063 22.32C48.6063 22.32 50.2563 21.78 51.5563 20.7C52.8763 19.62 53.8163 18.01 54.3763 15.87H55.6963V24H54.2863L53.8663 21.63C51.6663 23.41 48.9963 24.3 45.8563 24.3C44.0363 24.3 42.3863 24.03 40.9063 23.49C39.4263 22.95 38.1663 22.19 37.1263 21.21C36.0863 20.21 35.2763 19 34.6963 17.58C34.1363 16.16 33.8563 14.58 33.8563 12.84C33.8563 11.02 34.1563 9.36 34.7563 7.86C35.3563 6.36 36.1963 5.07 37.2763 3.99C38.3763 2.91 39.6763 2.08 41.1763 1.5C42.6963 0.899999 44.3763 0.599999 46.2163 0.599999C47.4363 0.599999 48.5763 0.769999 49.6363 1.11C50.6963 1.45 51.8463 2 53.0863 2.76L53.6563 0.899999ZM71.3036 0.599999C73.1036 0.599999 74.7836 0.909999 76.3436 1.53C77.9036 2.15 79.2536 3 80.3936 4.08C81.5536 5.16 82.4636 6.43 83.1236 7.89C83.7836 9.35 84.1136 10.93 84.1136 12.63C84.1136 14.25 83.7736 15.77 83.0936 17.19C82.4336 18.61 81.5236 19.85 80.3636 20.91C79.2236 21.95 77.8736 22.78 76.3136 23.4C74.7536 24 73.0836 24.3 71.3036 24.3C69.5236 24.3 67.8536 24 66.2936 23.4C64.7336 22.78 63.3736 21.95 62.2136 20.91C61.0536 19.85 60.1436 18.61 59.4836 17.19C58.8236 15.77 58.4936 14.25 58.4936 12.63C58.4936 10.93 58.8236 9.35 59.4836 7.89C60.1436 6.43 61.0436 5.16 62.1836 4.08C63.3436 3 64.7036 2.15 66.2636 1.53C67.8236 0.909999 69.5036 0.599999 71.3036 0.599999ZM71.3036 22.35C72.4636 22.35 73.5136 22.13 74.4536 21.69C75.3936 21.23 76.1936 20.59 76.8536 19.77C77.5136 18.93 78.0136 17.92 78.3536 16.74C78.7136 15.54 78.8936 14.2 78.8936 12.72C78.8936 11.16 78.7136 9.76 78.3536 8.52C78.0136 7.26 77.5136 6.19 76.8536 5.31C76.1936 4.41 75.3936 3.73 74.4536 3.27C73.5136 2.79 72.4636 2.55 71.3036 2.55C70.1236 2.55 69.0636 2.79 68.1236 3.27C67.2036 3.73 66.4136 4.41 65.7536 5.31C65.0936 6.19 64.5836 7.26 64.2236 8.52C63.8836 9.76 63.7136 11.16 63.7136 12.72C63.7136 14.2 63.8836 15.54 64.2236 16.74C64.5836 17.92 65.0936 18.93 65.7536 19.77C66.4136 20.59 67.2036 21.23 68.1236 21.69C69.0636 22.13 70.1236 22.35 71.3036 22.35ZM105.163 24.3L91.8735 5.37H91.7535V18.27C91.7535 19.27 91.7835 20.06 91.8435 20.64C91.9235 21.22 92.0735 21.67 92.2935 21.99C92.5335 22.31 92.8535 22.52 93.2535 22.62C93.6735 22.72 94.2135 22.78 94.8735 22.8V24H85.9635V22.8C86.7035 22.78 87.2935 22.72 87.7335 22.62C88.1935 22.5 88.5435 22.29 88.7835 21.99C89.0435 21.69 89.2135 21.27 89.2935 20.73C89.3735 20.17 89.4135 19.42 89.4135 18.48V6.42C89.4135 5.58 89.3735 4.89 89.2935 4.35C89.2135 3.79 89.0635 3.35 88.8435 3.03C88.6235 2.71 88.3035 2.49 87.8835 2.37C87.4835 2.23 86.9435 2.14 86.2635 2.1V0.899999H94.6335L106.723 18.24H106.843V6.63C106.843 5.65 106.803 4.87 106.723 4.29C106.663 3.69 106.513 3.23 106.273 2.91C106.053 2.59 105.733 2.38 105.313 2.28C104.913 2.18 104.383 2.12 103.723 2.1V0.899999H112.633V2.1C111.893 2.12 111.293 2.19 110.833 2.31C110.393 2.41 110.043 2.61 109.783 2.91C109.543 3.21 109.383 3.64 109.303 4.2C109.223 4.76 109.183 5.5 109.183 6.42V24.3H105.163ZM133.376 24.3L120.086 5.37H119.966V18.27C119.966 19.27 119.996 20.06 120.056 20.64C120.136 21.22 120.286 21.67 120.506 21.99C120.746 22.31 121.066 22.52 121.466 22.62C121.886 22.72 122.426 22.78 123.086 22.8V24H114.176V22.8C114.916 22.78 115.506 22.72 115.946 22.62C116.406 22.5 116.756 22.29 116.996 21.99C117.256 21.69 117.426 21.27 117.506 20.73C117.586 20.17 117.626 19.42 117.626 18.48V6.42C117.626 5.58 117.586 4.89 117.506 4.35C117.426 3.79 117.276 3.35 117.056 3.03C116.836 2.71 116.516 2.49 116.096 2.37C115.696 2.23 115.156 2.14 114.476 2.1V0.899999H122.846L134.936 18.24H135.056V6.63C135.056 5.65 135.016 4.87 134.936 4.29C134.876 3.69 134.726 3.23 134.486 2.91C134.266 2.59 133.946 2.38 133.526 2.28C133.126 2.18 132.596 2.12 131.936 2.1V0.899999H140.846V2.1C140.106 2.12 139.506 2.19 139.046 2.31C138.606 2.41 138.256 2.61 137.996 2.91C137.756 3.21 137.596 3.64 137.516 4.2C137.436 4.76 137.396 5.5 137.396 6.42V24.3H133.376ZM150.099 11.22C151.379 11.22 152.409 11.18 153.189 11.1C153.969 11.02 154.569 10.86 154.989 10.62C155.429 10.36 155.739 9.99 155.919 9.51C156.099 9.03 156.239 8.38 156.339 7.56H157.449V16.35H156.339C156.219 15.55 156.059 14.91 155.859 14.43C155.659 13.95 155.339 13.59 154.899 13.35C154.459 13.09 153.859 12.93 153.099 12.87C152.359 12.79 151.359 12.75 150.099 12.75V18.93C150.099 19.57 150.179 20.11 150.339 20.55C150.519 20.99 150.809 21.35 151.209 21.63C151.609 21.89 152.139 22.08 152.799 22.2C153.459 22.3 154.269 22.35 155.229 22.35C156.369 22.35 157.329 22.27 158.109 22.11C158.909 21.95 159.569 21.67 160.089 21.27C160.609 20.87 161.029 20.34 161.349 19.68C161.669 19 161.939 18.15 162.159 17.13H163.359L162.879 24H142.539V22.8C143.199 22.78 143.739 22.72 144.159 22.62C144.579 22.52 144.899 22.35 145.119 22.11C145.339 21.87 145.489 21.53 145.569 21.09C145.649 20.65 145.689 20.08 145.689 19.38V5.52C145.689 4.82 145.649 4.26 145.569 3.84C145.509 3.4 145.379 3.06 145.179 2.82C144.979 2.56 144.689 2.39 144.309 2.31C143.949 2.21 143.469 2.14 142.869 2.1V0.899999H161.829L162.039 6.78H160.749C160.629 5.94 160.439 5.25 160.179 4.71C159.919 4.15 159.559 3.71 159.099 3.39C158.639 3.05 158.039 2.82 157.299 2.7C156.579 2.56 155.689 2.49 154.629 2.49H151.239C150.719 2.49 150.399 2.56 150.279 2.7C150.159 2.82 150.099 3.12 150.099 3.6V11.22ZM185.609 0.899999H187.079L186.479 8.49H185.279C184.859 6.65 184.039 5.2 182.819 4.14C181.619 3.08 180.159 2.55 178.439 2.55C177.259 2.55 176.209 2.79 175.289 3.27C174.369 3.73 173.589 4.4 172.949 5.28C172.329 6.14 171.849 7.2 171.509 8.46C171.189 9.7 171.029 11.1 171.029 12.66C171.029 15.76 171.659 18.15 172.919 19.83C174.199 21.49 176.079 22.32 178.559 22.32C180.559 22.32 182.209 21.78 183.509 20.7C184.829 19.62 185.769 18.01 186.329 15.87H187.649V24H186.239L185.819 21.63C183.619 23.41 180.949 24.3 177.809 24.3C175.989 24.3 174.339 24.03 172.859 23.49C171.379 22.95 170.119 22.19 169.079 21.21C168.039 20.21 167.229 19 166.649 17.58C166.089 16.16 165.809 14.58 165.809 12.84C165.809 11.02 166.109 9.36 166.709 7.86C167.309 6.36 168.149 5.07 169.229 3.99C170.329 2.91 171.629 2.08 173.129 1.5C174.649 0.899999 176.329 0.599999 178.169 0.599999C179.389 0.599999 180.529 0.769999 181.589 1.11C182.649 1.45 183.799 2 185.039 2.76L185.609 0.899999ZM213.547 7.5H212.257C212.197 6.52 212.047 5.71 211.807 5.07C211.587 4.41 211.267 3.89 210.847 3.51C210.427 3.11 209.917 2.84 209.317 2.7C208.717 2.54 208.017 2.46 207.217 2.46C206.437 2.46 205.807 2.48 205.327 2.52C204.867 2.54 204.507 2.59 204.247 2.67C204.007 2.73 203.847 2.82 203.767 2.94C203.687 3.06 203.647 3.21 203.647 3.39V19.11C203.647 19.75 203.687 20.3 203.767 20.76C203.867 21.22 204.057 21.6 204.337 21.9C204.617 22.18 205.027 22.4 205.567 22.56C206.107 22.7 206.817 22.78 207.697 22.8V24H195.127V22.8C196.027 22.78 196.747 22.7 197.287 22.56C197.827 22.4 198.237 22.18 198.517 21.9C198.817 21.6 199.007 21.22 199.087 20.76C199.187 20.3 199.237 19.75 199.237 19.11V3.39C199.237 3.21 199.197 3.06 199.117 2.94C199.057 2.82 198.917 2.73 198.697 2.67C198.477 2.59 198.157 2.54 197.737 2.52C197.337 2.48 196.807 2.46 196.147 2.46C195.427 2.46 194.737 2.5 194.077 2.58C193.417 2.64 192.837 2.84 192.337 3.18C191.837 3.5 191.427 4 191.107 4.68C190.807 5.34 190.647 6.28 190.627 7.5H189.457L189.757 0.899999H213.247L213.547 7.5ZM225.701 24H214.991V22.8C215.671 22.78 216.211 22.72 216.611 22.62C217.031 22.5 217.351 22.29 217.571 21.99C217.791 21.69 217.941 21.27 218.021 20.73C218.101 20.17 218.141 19.42 218.141 18.48V6.42C218.141 5.58 218.101 4.89 218.021 4.35C217.961 3.79 217.831 3.35 217.631 3.03C217.431 2.71 217.141 2.49 216.761 2.37C216.401 2.23 215.911 2.14 215.291 2.1V0.899999H225.401V2.1C224.781 2.14 224.281 2.23 223.901 2.37C223.541 2.49 223.261 2.71 223.061 3.03C222.861 3.35 222.721 3.79 222.641 4.35C222.581 4.89 222.551 5.58 222.551 6.42V18.48C222.551 19.42 222.581 20.17 222.641 20.73C222.721 21.27 222.871 21.69 223.091 21.99C223.331 22.29 223.651 22.5 224.051 22.62C224.471 22.72 225.021 22.78 225.701 22.8V24ZM240.581 0.599999C242.381 0.599999 244.061 0.909999 245.621 1.53C247.181 2.15 248.531 3 249.671 4.08C250.831 5.16 251.741 6.43 252.401 7.89C253.061 9.35 253.391 10.93 253.391 12.63C253.391 14.25 253.051 15.77 252.371 17.19C251.711 18.61 250.801 19.85 249.641 20.91C248.501 21.95 247.151 22.78 245.591 23.4C244.031 24 242.361 24.3 240.581 24.3C238.801 24.3 237.131 24 235.571 23.4C234.011 22.78 232.651 21.95 231.491 20.91C230.331 19.85 229.421 18.61 228.761 17.19C228.101 15.77 227.771 14.25 227.771 12.63C227.771 10.93 228.101 9.35 228.761 7.89C229.421 6.43 230.321 5.16 231.461 4.08C232.621 3 233.981 2.15 235.541 1.53C237.101 0.909999 238.781 0.599999 240.581 0.599999ZM240.581 22.35C241.741 22.35 242.791 22.13 243.731 21.69C244.671 21.23 245.471 20.59 246.131 19.77C246.791 18.93 247.291 17.92 247.631 16.74C247.991 15.54 248.171 14.2 248.171 12.72C248.171 11.16 247.991 9.76 247.631 8.52C247.291 7.26 246.791 6.19 246.131 5.31C245.471 4.41 244.671 3.73 243.731 3.27C242.791 2.79 241.741 2.55 240.581 2.55C239.401 2.55 238.341 2.79 237.401 3.27C236.481 3.73 235.691 4.41 235.031 5.31C234.371 6.19 233.861 7.26 233.501 8.52C233.161 9.76 232.991 11.16 232.991 12.72C232.991 14.2 233.161 15.54 233.501 16.74C233.861 17.92 234.371 18.93 235.031 19.77C235.691 20.59 236.481 21.23 237.401 21.69C238.341 22.13 239.401 22.35 240.581 22.35ZM274.441 24.3L261.151 5.37H261.031V18.27C261.031 19.27 261.061 20.06 261.121 20.64C261.201 21.22 261.351 21.67 261.571 21.99C261.811 22.31 262.131 22.52 262.531 22.62C262.951 22.72 263.491 22.78 264.151 22.8V24H255.241V22.8C255.981 22.78 256.571 22.72 257.011 22.62C257.471 22.5 257.821 22.29 258.061 21.99C258.321 21.69 258.491 21.27 258.571 20.73C258.651 20.17 258.691 19.42 258.691 18.48V6.42C258.691 5.58 258.651 4.89 258.571 4.35C258.491 3.79 258.341 3.35 258.121 3.03C257.901 2.71 257.581 2.49 257.161 2.37C256.761 2.23 256.221 2.14 255.541 2.1V0.899999H263.911L276.001 18.24H276.121V6.63C276.121 5.65 276.081 4.87 276.001 4.29C275.941 3.69 275.791 3.23 275.551 2.91C275.331 2.59 275.011 2.38 274.591 2.28C274.191 2.18 273.661 2.12 273.001 2.1V0.899999H281.911V2.1C281.171 2.12 280.571 2.19 280.111 2.31C279.671 2.41 279.321 2.61 279.061 2.91C278.821 3.21 278.661 3.64 278.581 4.2C278.501 4.76 278.461 5.5 278.461 6.42V24.3H274.441ZM16.888 55.39L23.818 37.9H32.578V39.1C31.918 39.1 31.378 39.17 30.958 39.31C30.558 39.43 30.248 39.66 30.028 40C29.808 40.34 29.658 40.81 29.578 41.41C29.518 41.99 29.488 42.73 29.488 43.63V55.27C29.488 56.27 29.528 57.06 29.608 57.64C29.688 58.22 29.848 58.67 30.088 58.99C30.328 59.31 30.668 59.52 31.108 59.62C31.568 59.72 32.168 59.78 32.908 59.8V61H21.628V59.8C22.368 59.78 22.958 59.72 23.398 59.62C23.858 59.5 24.208 59.29 24.448 58.99C24.708 58.69 24.878 58.27 24.958 57.73C25.038 57.17 25.078 56.42 25.078 55.48V41.44H24.928L16.858 61.3H14.638L6.29801 41.44H6.17801V55.27C6.17801 56.27 6.21801 57.06 6.29801 57.64C6.37801 58.22 6.53801 58.67 6.77801 58.99C7.01801 59.31 7.35801 59.52 7.79801 59.62C8.25801 59.72 8.85801 59.78 9.59801 59.8V61H0.358008V59.8C1.09801 59.78 1.69801 59.72 2.15801 59.62C2.61801 59.5 2.96801 59.29 3.20801 58.99C3.46801 58.69 3.63801 58.27 3.71801 57.73C3.79801 57.17 3.83801 56.42 3.83801 55.48V43.42C3.83801 42.58 3.79801 41.88 3.71801 41.32C3.63801 40.76 3.48801 40.32 3.26801 40C3.04801 39.66 2.72801 39.43 2.30801 39.31C1.90801 39.17 1.36801 39.1 0.688008 39.1V37.9H9.77801L16.768 55.39H16.888ZM42.9308 44.8C44.1308 44.8 45.2608 45.01 46.3208 45.43C47.4008 45.83 48.3408 46.39 49.1408 47.11C49.9608 47.83 50.6008 48.69 51.0608 49.69C51.5408 50.67 51.7808 51.75 51.7808 52.93C51.7808 54.15 51.5408 55.27 51.0608 56.29C50.6008 57.31 49.9608 58.19 49.1408 58.93C48.3408 59.67 47.4008 60.25 46.3208 60.67C45.2608 61.09 44.1308 61.3 42.9308 61.3C41.7508 61.3 40.6308 61.1 39.5708 60.7C38.5108 60.28 37.5808 59.7 36.7808 58.96C35.9808 58.22 35.3508 57.34 34.8908 56.32C34.4308 55.28 34.2008 54.15 34.2008 52.93C34.2008 51.75 34.4308 50.66 34.8908 49.66C35.3508 48.66 35.9808 47.8 36.7808 47.08C37.5808 46.36 38.5108 45.8 39.5708 45.4C40.6308 45 41.7508 44.8 42.9308 44.8ZM42.9308 46.54C42.3308 46.54 41.7808 46.7 41.2808 47.02C40.7808 47.32 40.3508 47.75 39.9908 48.31C39.6508 48.87 39.3808 49.55 39.1808 50.35C39.0008 51.13 38.9108 52 38.9108 52.96C38.9108 53.96 39.0008 54.86 39.1808 55.66C39.3808 56.46 39.6508 57.14 39.9908 57.7C40.3508 58.26 40.7708 58.7 41.2508 59.02C41.7508 59.32 42.3108 59.47 42.9308 59.47C43.5508 59.47 44.1108 59.32 44.6108 59.02C45.1308 58.7 45.5708 58.26 45.9308 57.7C46.2908 57.12 46.5708 56.43 46.7708 55.63C46.9708 54.83 47.0708 53.94 47.0708 52.96C47.0708 52 46.9708 51.13 46.7708 50.35C46.5708 49.57 46.2908 48.9 45.9308 48.34C45.5708 47.76 45.1308 47.32 44.6108 47.02C44.1108 46.7 43.5508 46.54 42.9308 46.54ZM67.3255 59.08H67.2055C65.8255 60.56 64.0355 61.3 61.8355 61.3C60.6955 61.3 59.6455 61.1 58.6855 60.7C57.7455 60.3 56.9255 59.74 56.2255 59.02C55.5455 58.3 55.0155 57.45 54.6355 56.47C54.2555 55.47 54.0655 54.37 54.0655 53.17C54.0655 51.97 54.2555 50.86 54.6355 49.84C55.0355 48.82 55.5655 47.94 56.2255 47.2C56.9055 46.44 57.7055 45.85 58.6255 45.43C59.5655 45.01 60.5755 44.8 61.6555 44.8C62.6555 44.8 63.5355 44.95 64.2955 45.25C65.0755 45.55 65.7555 46.06 66.3355 46.78H66.4555V44.23C66.4555 43.05 66.4355 42.04 66.3955 41.2C66.3755 40.34 66.3355 39.78 66.2755 39.52C66.1755 39.1 65.8655 38.8 65.3455 38.62C64.8455 38.42 64.0655 38.32 63.0055 38.32V37.3L70.5955 36.1V53.26C70.5955 54.76 70.6055 55.92 70.6255 56.74C70.6655 57.54 70.7255 58.15 70.8055 58.57C70.8455 58.83 70.9055 59.04 70.9855 59.2C71.0655 59.36 71.1855 59.49 71.3455 59.59C71.5055 59.67 71.7155 59.73 71.9755 59.77C72.2555 59.79 72.6055 59.8 73.0255 59.8V60.97L67.3255 61.3V59.08ZM66.3955 52.39C66.3955 51.63 66.3155 50.93 66.1555 50.29C65.9955 49.63 65.7555 49.05 65.4355 48.55C65.0755 47.97 64.6155 47.53 64.0555 47.23C63.4955 46.93 62.8955 46.78 62.2555 46.78C61.0755 46.78 60.1755 47.32 59.5555 48.4C58.9355 49.48 58.6255 51.05 58.6255 53.11C58.6255 55.19 58.9355 56.79 59.5555 57.91C60.1755 59.03 61.0655 59.59 62.2255 59.59C62.8855 59.59 63.5155 59.42 64.1155 59.08C64.7155 58.74 65.2055 58.28 65.5855 57.7C65.8655 57.26 66.0655 56.72 66.1855 56.08C66.3255 55.42 66.3955 54.58 66.3955 53.56V52.39ZM89.9256 58.21C88.1056 60.27 85.8356 61.3 83.1156 61.3C81.8756 61.3 80.7456 61.11 79.7256 60.73C78.7256 60.33 77.8656 59.78 77.1456 59.08C76.4256 58.36 75.8656 57.51 75.4656 56.53C75.0656 55.55 74.8656 54.46 74.8656 53.26C74.8656 52.02 75.0756 50.89 75.4956 49.87C75.9156 48.83 76.5056 47.94 77.2656 47.2C78.0456 46.44 78.9556 45.85 79.9956 45.43C81.0556 45.01 82.2156 44.8 83.4756 44.8C85.5956 44.8 87.2456 45.37 88.4256 46.51C89.6056 47.65 90.1956 49.25 90.1956 51.31C90.1956 51.63 90.1456 51.83 90.0456 51.91C89.9456 51.97 89.6656 52 89.2056 52H79.5456C79.4656 52.18 79.4256 52.51 79.4256 52.99C79.4256 54.95 79.8456 56.5 80.6856 57.64C81.5456 58.78 82.7056 59.35 84.1656 59.35C85.0056 59.35 85.8356 59.16 86.6556 58.78C87.4956 58.4 88.3056 57.86 89.0856 57.16L89.9256 58.21ZM84.1056 50.32C84.9056 50.32 85.4156 50.28 85.6356 50.2C85.8756 50.1 85.9956 49.88 85.9956 49.54C85.9956 48.66 85.7456 47.94 85.2456 47.38C84.7456 46.82 84.1156 46.54 83.3556 46.54C82.4956 46.54 81.7256 46.9 81.0456 47.62C80.3856 48.32 79.9556 49.22 79.7556 50.32H84.1056ZM99.0144 56.35C99.0144 57.13 99.0444 57.75 99.1044 58.21C99.1844 58.65 99.3344 58.99 99.5544 59.23C99.7744 59.47 100.094 59.63 100.514 59.71C100.934 59.77 101.494 59.8 102.194 59.8V61H92.1744V59.8C92.7744 59.76 93.2544 59.7 93.6144 59.62C93.9744 59.54 94.2444 59.38 94.4244 59.14C94.6044 58.9 94.7144 58.56 94.7544 58.12C94.8144 57.66 94.8444 57.05 94.8444 56.29V52.63C94.8444 51.39 94.8144 50.4 94.7544 49.66C94.6944 48.92 94.5644 48.35 94.3644 47.95C94.1644 47.55 93.8744 47.29 93.4944 47.17C93.1344 47.03 92.6544 46.96 92.0544 46.96V45.91L98.0544 44.8L98.5344 48.25H98.6544C99.1944 47.19 99.9044 46.35 100.784 45.73C101.664 45.11 102.594 44.8 103.574 44.8C104.334 44.8 104.954 44.99 105.434 45.37C105.914 45.75 106.154 46.23 106.154 46.81C106.154 47.45 105.964 47.99 105.584 48.43C105.224 48.87 104.724 49.09 104.084 49.09C103.784 49.09 103.514 49.03 103.274 48.91C103.034 48.79 102.814 48.66 102.614 48.52C102.434 48.36 102.244 48.22 102.044 48.1C101.864 47.96 101.674 47.89 101.474 47.89C101.094 47.89 100.734 48.14 100.394 48.64C100.054 49.14 99.7744 49.81 99.5544 50.65C99.3944 51.25 99.2644 51.93 99.1644 52.69C99.0644 53.43 99.0144 54.17 99.0144 54.91V56.35ZM113.926 56.11C113.926 56.93 113.946 57.58 113.986 58.06C114.046 58.52 114.156 58.88 114.316 59.14C114.496 59.38 114.756 59.54 115.096 59.62C115.456 59.7 115.936 59.76 116.536 59.8V61H107.086V59.8C107.666 59.76 108.126 59.7 108.466 59.62C108.826 59.54 109.096 59.38 109.276 59.14C109.476 58.9 109.606 58.56 109.666 58.12C109.726 57.68 109.756 57.08 109.756 56.32V52.57C109.756 51.39 109.736 50.44 109.696 49.72C109.656 48.98 109.606 48.48 109.546 48.22C109.486 47.96 109.406 47.75 109.306 47.59C109.206 47.41 109.056 47.28 108.856 47.2C108.656 47.1 108.406 47.04 108.106 47.02C107.806 46.98 107.426 46.96 106.966 46.96V45.94L112.756 44.8L113.146 47.44H113.266C113.926 46.6 114.706 45.95 115.606 45.49C116.506 45.03 117.496 44.8 118.576 44.8C119.856 44.8 120.886 44.98 121.666 45.34C122.466 45.68 123.176 46.26 123.796 47.08C124.136 47.54 124.436 48.14 124.696 48.88C124.956 49.6 125.086 50.6 125.086 51.88V56.11C125.086 56.93 125.106 57.58 125.146 58.06C125.206 58.52 125.316 58.88 125.476 59.14C125.656 59.38 125.916 59.54 126.256 59.62C126.596 59.7 127.056 59.76 127.636 59.8V61H118.246V59.8C118.846 59.78 119.316 59.73 119.656 59.65C120.016 59.55 120.286 59.38 120.466 59.14C120.646 58.9 120.766 58.56 120.826 58.12C120.886 57.66 120.916 57.06 120.916 56.32V52.24C120.916 51.22 120.856 50.36 120.736 49.66C120.616 48.96 120.416 48.4 120.136 47.98C119.876 47.54 119.526 47.23 119.086 47.05C118.646 46.85 118.096 46.75 117.436 46.75C116.796 46.75 116.246 46.93 115.786 47.29C115.326 47.65 114.926 48.15 114.586 48.79C114.406 49.15 114.246 49.62 114.106 50.2C113.986 50.76 113.926 51.35 113.926 51.97V56.11ZM137.031 61V59.8C137.691 59.78 138.221 59.73 138.621 59.65C139.041 59.55 139.361 59.38 139.581 59.14C139.821 58.88 139.981 58.54 140.061 58.12C140.141 57.68 140.181 57.1 140.181 56.38V42.52C140.181 41.82 140.151 41.26 140.091 40.84C140.031 40.4 139.901 40.06 139.701 39.82C139.501 39.56 139.221 39.39 138.861 39.31C138.521 39.21 138.071 39.14 137.511 39.1V37.9H148.911C150.831 37.9 152.601 38.2 154.221 38.8C155.841 39.4 157.241 40.23 158.421 41.29C159.601 42.35 160.521 43.61 161.181 45.07C161.841 46.53 162.171 48.12 162.171 49.84C162.171 51.48 161.861 52.99 161.241 54.37C160.621 55.73 159.751 56.9 158.631 57.88C157.531 58.86 156.201 59.63 154.641 60.19C153.101 60.73 151.401 61 149.541 61H137.031ZM145.101 39.73C144.761 39.73 144.591 39.9 144.591 40.24V55.75C144.591 56.91 144.951 57.77 145.671 58.33C146.391 58.89 147.501 59.17 149.001 59.17C151.621 59.17 153.631 58.38 155.031 56.8C156.451 55.22 157.161 52.92 157.161 49.9C157.161 48.3 156.971 46.87 156.591 45.61C156.211 44.35 155.661 43.29 154.941 42.43C154.221 41.55 153.341 40.88 152.301 40.42C151.281 39.96 150.131 39.73 148.851 39.73H145.101ZM173.694 52.45C172.014 53.21 170.744 53.92 169.884 54.58C169.044 55.22 168.624 55.89 168.624 56.59C168.624 57.17 168.784 57.63 169.104 57.97C169.424 58.31 169.824 58.48 170.304 58.48C170.784 58.48 171.234 58.4 171.654 58.24C172.074 58.06 172.434 57.83 172.734 57.55C173.034 57.27 173.264 56.94 173.424 56.56C173.604 56.16 173.694 55.74 173.694 55.3V52.45ZM173.694 50.86V49.6C173.694 48.44 173.484 47.6 173.064 47.08C172.664 46.54 172.034 46.27 171.174 46.27C170.594 46.27 170.154 46.43 169.854 46.75C169.554 47.05 169.274 47.56 169.014 48.28C168.834 48.78 168.574 49.17 168.234 49.45C167.914 49.73 167.464 49.87 166.884 49.87C166.324 49.87 165.894 49.7 165.594 49.36C165.294 49.02 165.144 48.54 165.144 47.92C165.144 46.96 165.664 46.2 166.704 45.64C167.764 45.08 169.354 44.8 171.474 44.8C173.714 44.8 175.314 45.21 176.274 46.03C177.234 46.83 177.714 48.18 177.714 50.08V56.65C177.714 58.35 178.054 59.2 178.734 59.2C179.114 59.2 179.464 59.07 179.784 58.81L180.234 59.68C179.954 60.18 179.514 60.58 178.914 60.88C178.334 61.16 177.674 61.3 176.934 61.3C176.014 61.3 175.314 61.02 174.834 60.46C174.354 59.9 174.114 59.11 174.114 58.09H173.964C173.384 59.13 172.634 59.92 171.714 60.46C170.794 61 169.744 61.27 168.564 61.27C167.304 61.27 166.294 60.92 165.534 60.22C164.774 59.5 164.394 58.57 164.394 57.43C164.394 56.55 164.784 55.73 165.564 54.97C166.344 54.19 167.644 53.43 169.464 52.69L173.694 50.86ZM181.351 46.75V45.4C182.551 45.06 183.551 44.55 184.351 43.87C185.171 43.17 185.781 42.37 186.181 41.47H187.711V45.1H191.161V46.75H187.711V55.96C187.711 57.2 187.841 58.08 188.101 58.6C188.381 59.12 188.841 59.38 189.481 59.38C190.261 59.38 190.851 59.02 191.251 58.3L191.881 59.17C191.321 60.59 190.001 61.3 187.921 61.3C186.541 61.3 185.461 60.98 184.681 60.34C183.921 59.7 183.541 58.8 183.541 57.64V46.75H181.351ZM199.766 56.08C199.766 56.88 199.796 57.52 199.856 58C199.916 58.48 200.036 58.85 200.216 59.11C200.396 59.37 200.656 59.55 200.996 59.65C201.336 59.73 201.796 59.78 202.376 59.8V61H192.926V59.8C193.486 59.78 193.936 59.72 194.276 59.62C194.636 59.5 194.906 59.32 195.086 59.08C195.286 58.82 195.416 58.47 195.476 58.03C195.556 57.57 195.596 56.99 195.596 56.29V52.6C195.596 51.44 195.576 50.49 195.536 49.75C195.496 48.99 195.446 48.47 195.386 48.19C195.286 47.69 195.056 47.36 194.696 47.2C194.356 47.04 193.726 46.96 192.806 46.96V45.94L199.766 44.8V56.08ZM195.356 38.44C195.356 37.78 195.576 37.23 196.016 36.79C196.476 36.33 197.026 36.1 197.666 36.1C198.326 36.1 198.876 36.33 199.316 36.79C199.776 37.23 200.006 37.78 200.006 38.44C200.006 39.08 199.776 39.63 199.316 40.09C198.876 40.53 198.326 40.75 197.666 40.75C197.026 40.75 196.476 40.53 196.016 40.09C195.576 39.63 195.356 39.08 195.356 38.44ZM210.606 56.11C210.606 56.93 210.626 57.58 210.666 58.06C210.726 58.52 210.836 58.88 210.996 59.14C211.176 59.38 211.436 59.54 211.776 59.62C212.136 59.7 212.616 59.76 213.216 59.8V61H203.766V59.8C204.346 59.76 204.806 59.7 205.146 59.62C205.506 59.54 205.776 59.38 205.956 59.14C206.156 58.9 206.286 58.56 206.346 58.12C206.406 57.68 206.436 57.08 206.436 56.32V52.57C206.436 51.39 206.416 50.44 206.376 49.72C206.336 48.98 206.286 48.48 206.226 48.22C206.166 47.96 206.086 47.75 205.986 47.59C205.886 47.41 205.736 47.28 205.536 47.2C205.336 47.1 205.086 47.04 204.786 47.02C204.486 46.98 204.106 46.96 203.646 46.96V45.94L209.436 44.8L209.826 47.44H209.946C210.606 46.6 211.386 45.95 212.286 45.49C213.186 45.03 214.176 44.8 215.256 44.8C216.536 44.8 217.566 44.98 218.346 45.34C219.146 45.68 219.856 46.26 220.476 47.08C220.816 47.54 221.116 48.14 221.376 48.88C221.636 49.6 221.766 50.6 221.766 51.88V56.11C221.766 56.93 221.786 57.58 221.826 58.06C221.886 58.52 221.996 58.88 222.156 59.14C222.336 59.38 222.596 59.54 222.936 59.62C223.276 59.7 223.736 59.76 224.316 59.8V61H214.926V59.8C215.526 59.78 215.996 59.73 216.336 59.65C216.696 59.55 216.966 59.38 217.146 59.14C217.326 58.9 217.446 58.56 217.506 58.12C217.566 57.66 217.596 57.06 217.596 56.32V52.24C217.596 51.22 217.536 50.36 217.416 49.66C217.296 48.96 217.096 48.4 216.816 47.98C216.556 47.54 216.206 47.23 215.766 47.05C215.326 46.85 214.776 46.75 214.116 46.75C213.476 46.75 212.926 46.93 212.466 47.29C212.006 47.65 211.606 48.15 211.266 48.79C211.086 49.15 210.926 49.62 210.786 50.2C210.666 50.76 210.606 51.35 210.606 51.97V56.11ZM231.532 57.76C232.072 57.8 232.542 57.84 232.942 57.88C233.362 57.92 233.752 57.97 234.112 58.03C234.492 58.07 234.862 58.12 235.222 58.18C235.602 58.22 236.002 58.27 236.422 58.33C237.982 58.55 239.202 59.14 240.082 60.1C240.982 61.04 241.432 62.21 241.432 63.61C241.432 65.31 240.732 66.6 239.332 67.48C237.932 68.36 235.872 68.8 233.152 68.8C230.652 68.8 228.722 68.43 227.362 67.69C226.022 66.97 225.352 65.94 225.352 64.6C225.352 63.56 225.622 62.77 226.162 62.23C226.702 61.71 227.382 61.45 228.202 61.45C228.722 61.45 229.222 61.55 229.702 61.75C230.202 61.97 230.622 62.28 230.962 62.68C230.442 62.78 230.012 63.01 229.672 63.37C229.352 63.75 229.192 64.19 229.192 64.69C229.192 65.49 229.542 66.1 230.242 66.52C230.962 66.96 232.012 67.18 233.392 67.18C236.392 67.18 237.892 66.23 237.892 64.33C237.892 63.65 237.662 63.06 237.202 62.56C236.762 62.08 236.122 61.79 235.282 61.69L230.032 60.97C227.812 60.67 226.702 59.68 226.702 58C226.702 57.18 226.962 56.51 227.482 55.99C228.022 55.47 228.782 55.11 229.762 54.91V54.79C229.302 54.61 228.882 54.36 228.502 54.04C228.142 53.72 227.822 53.35 227.542 52.93C227.262 52.51 227.042 52.06 226.882 51.58C226.742 51.08 226.672 50.57 226.672 50.05C226.672 49.31 226.822 48.62 227.122 47.98C227.442 47.32 227.872 46.76 228.412 46.3C228.972 45.84 229.622 45.48 230.362 45.22C231.122 44.94 231.942 44.8 232.822 44.8C233.682 44.8 234.522 44.93 235.342 45.19C236.162 45.45 236.862 45.81 237.442 46.27C237.902 45.99 238.302 45.76 238.642 45.58C238.982 45.38 239.292 45.23 239.572 45.13C239.872 45.01 240.142 44.93 240.382 44.89C240.622 44.83 240.862 44.8 241.102 44.8C241.862 44.8 242.472 44.97 242.932 45.31C243.412 45.65 243.652 46.1 243.652 46.66C243.652 47.08 243.522 47.43 243.262 47.71C243.002 47.97 242.662 48.1 242.242 48.1C241.942 48.1 241.702 48.04 241.522 47.92C241.342 47.78 241.162 47.63 240.982 47.47C240.822 47.29 240.652 47.14 240.472 47.02C240.292 46.88 240.052 46.81 239.752 46.81C239.332 46.81 238.932 47.08 238.552 47.62C238.752 47.96 238.892 48.33 238.972 48.73C239.052 49.11 239.092 49.56 239.092 50.08C239.092 50.84 238.972 51.54 238.732 52.18C238.492 52.82 238.112 53.39 237.592 53.89C237.092 54.37 236.442 54.78 235.642 55.12C234.842 55.46 233.872 55.69 232.732 55.81C231.772 55.91 231.102 56.04 230.722 56.2C230.362 56.36 230.182 56.6 230.182 56.92C230.182 57.4 230.632 57.68 231.532 57.76ZM232.972 54.1C233.612 54.1 234.112 53.76 234.472 53.08C234.832 52.4 235.012 51.45 235.012 50.23C235.012 48.99 234.832 48.04 234.472 47.38C234.112 46.7 233.602 46.36 232.942 46.36C232.262 46.36 231.722 46.7 231.322 47.38C230.922 48.06 230.722 48.99 230.722 50.17C230.722 51.37 230.922 52.33 231.322 53.05C231.742 53.75 232.292 54.1 232.972 54.1ZM264.478 54.01H255.988C255.048 56.13 254.578 57.6 254.578 58.42C254.578 59.02 254.798 59.4 255.238 59.56C255.698 59.72 256.378 59.8 257.278 59.8V61H249.058V59.8C249.538 59.74 249.948 59.66 250.288 59.56C250.648 59.46 250.958 59.32 251.218 59.14C251.498 58.96 251.738 58.73 251.938 58.45C252.138 58.15 252.328 57.79 252.508 57.37L260.398 37.6H262.618L269.788 55.12C270.208 56.14 270.558 56.94 270.838 57.52C271.138 58.1 271.448 58.55 271.768 58.87C272.108 59.17 272.488 59.38 272.908 59.5C273.348 59.62 273.908 59.71 274.588 59.77V61H263.248V59.77C264.208 59.73 264.898 59.63 265.318 59.47C265.738 59.31 265.948 58.99 265.948 58.51C265.948 58.23 265.878 57.87 265.738 57.43C265.598 56.99 265.408 56.45 265.168 55.81L264.478 54.01ZM256.678 52.21H263.818L260.368 43.12H260.248L256.678 52.21ZM280.246 47.05H280.366C281.686 45.55 283.406 44.8 285.526 44.8C286.686 44.8 287.746 45.01 288.706 45.43C289.686 45.83 290.526 46.4 291.226 47.14C291.946 47.86 292.496 48.73 292.876 49.75C293.276 50.75 293.476 51.85 293.476 53.05C293.476 54.25 293.276 55.35 292.876 56.35C292.496 57.35 291.956 58.22 291.256 58.96C290.556 59.7 289.716 60.28 288.736 60.7C287.776 61.1 286.726 61.3 285.586 61.3C283.646 61.3 282.166 60.64 281.146 59.32H281.026V63.49C281.026 64.29 281.066 64.93 281.146 65.41C281.226 65.89 281.396 66.26 281.656 66.52C281.916 66.78 282.276 66.96 282.736 67.06C283.216 67.16 283.846 67.22 284.626 67.24V68.5H274.276V67.24C274.816 67.22 275.256 67.16 275.596 67.06C275.936 66.96 276.196 66.78 276.376 66.52C276.576 66.26 276.706 65.9 276.766 65.44C276.846 65 276.886 64.42 276.886 63.7V52.54C276.886 51.62 276.866 50.75 276.826 49.93C276.786 49.09 276.736 48.5 276.676 48.16C276.576 47.7 276.346 47.38 275.986 47.2C275.646 47.02 275.056 46.93 274.216 46.93V45.76L280.246 44.92V47.05ZM285.346 46.51C284.706 46.51 284.096 46.65 283.516 46.93C282.936 47.21 282.476 47.58 282.136 48.04C281.796 48.5 281.536 49.08 281.356 49.78C281.176 50.46 281.086 51.2 281.086 52V54.04C281.086 55.46 281.436 56.67 282.136 57.67C282.896 58.77 283.966 59.32 285.346 59.32C286.566 59.32 287.466 58.82 288.046 57.82C288.646 56.8 288.946 55.23 288.946 53.11C288.946 48.71 287.746 46.51 285.346 46.51ZM301.164 47.05H301.284C302.604 45.55 304.324 44.8 306.444 44.8C307.604 44.8 308.664 45.01 309.624 45.43C310.604 45.83 311.444 46.4 312.144 47.14C312.864 47.86 313.414 48.73 313.794 49.75C314.194 50.75 314.394 51.85 314.394 53.05C314.394 54.25 314.194 55.35 313.794 56.35C313.414 57.35 312.874 58.22 312.174 58.96C311.474 59.7 310.634 60.28 309.654 60.7C308.694 61.1 307.644 61.3 306.504 61.3C304.564 61.3 303.084 60.64 302.064 59.32H301.944V63.49C301.944 64.29 301.984 64.93 302.064 65.41C302.144 65.89 302.314 66.26 302.574 66.52C302.834 66.78 303.194 66.96 303.654 67.06C304.134 67.16 304.764 67.22 305.544 67.24V68.5H295.194V67.24C295.734 67.22 296.174 67.16 296.514 67.06C296.854 66.96 297.114 66.78 297.294 66.52C297.494 66.26 297.624 65.9 297.684 65.44C297.764 65 297.804 64.42 297.804 63.7V52.54C297.804 51.62 297.784 50.75 297.744 49.93C297.704 49.09 297.654 48.5 297.594 48.16C297.494 47.7 297.264 47.38 296.904 47.2C296.564 47.02 295.974 46.93 295.134 46.93V45.76L301.164 44.92V47.05ZM306.264 46.51C305.624 46.51 305.014 46.65 304.434 46.93C303.854 47.21 303.394 47.58 303.054 48.04C302.714 48.5 302.454 49.08 302.274 49.78C302.094 50.46 302.004 51.2 302.004 52V54.04C302.004 55.46 302.354 56.67 303.054 57.67C303.814 58.77 304.884 59.32 306.264 59.32C307.484 59.32 308.384 58.82 308.964 57.82C309.564 56.8 309.864 55.23 309.864 53.11C309.864 48.71 308.664 46.51 306.264 46.51Z" fill="#DC6E08"/>
</g>
<defs>
<filter id="filter0_i_462_429" x="0.358398" y="0.599976" width="314.035" height="72.2001" filterUnits="userSpaceOnUse" color-interpolation-filters="sRGB">
<feFlood flood-opacity="0" result="BackgroundImageFix"/>
<feBlend mode="normal" in="SourceGraphic" in2="BackgroundImageFix" result="shape"/>
<feColorMatrix in="SourceAlpha" type="matrix" values="0 0 0 0 0 0 0 0 0 0 0 0 0 0 0 0 0 0 127 0" result="hardAlpha"/>
<feOffset dy="4"/>
<feGaussianBlur stdDeviation="2"/>
<feComposite in2="hardAlpha" operator="arithmetic" k2="-1" k3="1"/>
<feColorMatrix type="matrix" values="0 0 0 0 0 0 0 0 0 0 0 0 0 0 0 0 0 0 0.25 0"/>
<feBlend mode="normal" in2="shape" result="effect1_innerShadow_462_429"/>
</filter>
</defs>
</svg>
