<svg width="180" height="266" viewBox="0 0 180 266" fill="none" xmlns="http://www.w3.org/2000/svg">
<rect y="86" width="180" height="180" fill="black"/>
<path d="M92.0892 227.64C82.1126 227.64 73.2292 225.932 65.4392 222.515C57.6492 219.098 51.4992 214.452 46.9892 208.575C42.4792 202.562 39.9509 195.865 39.4042 188.485H74.0492C74.4592 192.448 76.3042 195.66 79.5842 198.12C82.8642 200.58 86.8959 201.81 91.6792 201.81C96.0526 201.81 99.4009 200.99 101.724 199.35C104.184 197.573 105.414 195.318 105.414 192.585C105.414 189.305 103.706 186.913 100.289 185.41C96.8726 183.77 91.3376 181.993 83.6842 180.08C75.4842 178.167 68.6509 176.185 63.1842 174.135C57.7176 171.948 53.0026 168.6 49.0392 164.09C45.0759 159.443 43.0942 153.225 43.0942 145.435C43.0942 138.875 44.8709 132.93 48.4242 127.6C52.1142 122.133 57.4442 117.828 64.4142 114.685C71.5209 111.542 79.9259 109.97 89.6292 109.97C103.979 109.97 115.254 113.523 123.454 120.63C131.791 127.737 136.574 137.167 137.804 148.92H105.414C104.868 144.957 103.091 141.813 100.084 139.49C97.2142 137.167 93.3876 136.005 88.6042 136.005C84.5042 136.005 81.3609 136.825 79.1742 138.465C76.9876 139.968 75.8942 142.087 75.8942 144.82C75.8942 148.1 77.6026 150.56 81.0192 152.2C84.5726 153.84 90.0392 155.48 97.4192 157.12C105.893 159.307 112.794 161.493 118.124 163.68C123.454 165.73 128.101 169.147 132.064 173.93C136.164 178.577 138.283 184.863 138.419 192.79C138.419 199.487 136.506 205.5 132.679 210.83C128.989 216.023 123.591 220.123 116.484 223.13C109.514 226.137 101.383 227.64 92.0892 227.64Z" fill="white"/>
<path d="M91.8663 214.44C84.6129 214.44 78.1063 213.16 72.3463 210.6C66.5863 207.933 61.9996 204.36 58.5863 199.88C55.2796 195.4 53.4663 190.44 53.1463 185H75.7063C76.1329 188.413 77.7863 191.24 80.6663 193.48C83.6529 195.72 87.3329 196.84 91.7063 196.84C95.9729 196.84 99.2796 195.987 101.626 194.28C104.08 192.573 105.306 190.387 105.306 187.72C105.306 184.84 103.813 182.707 100.826 181.32C97.9463 179.827 93.3063 178.227 86.9062 176.52C80.2929 174.92 74.8529 173.267 70.5863 171.56C66.4263 169.853 62.7996 167.24 59.7063 163.72C56.7196 160.2 55.2263 155.453 55.2263 149.48C55.2263 144.573 56.6129 140.093 59.3863 136.04C62.2663 131.987 66.3196 128.787 71.5463 126.44C76.8796 124.093 83.1196 122.92 90.2663 122.92C100.826 122.92 109.253 125.587 115.546 130.92C121.84 136.147 125.306 143.24 125.946 152.2H104.506C104.186 148.68 102.693 145.907 100.026 143.88C97.4663 141.747 93.9996 140.68 89.6263 140.68C85.5729 140.68 82.4263 141.427 80.1863 142.92C78.0529 144.413 76.9863 146.493 76.9863 149.16C76.9863 152.147 78.4796 154.44 81.4663 156.04C84.4529 157.533 89.0929 159.08 95.3863 160.68C101.786 162.28 107.066 163.933 111.226 165.64C115.386 167.347 118.96 170.013 121.946 173.64C125.04 177.16 126.64 181.853 126.746 187.72C126.746 192.84 125.306 197.427 122.426 201.48C119.653 205.533 115.6 208.733 110.266 211.08C105.04 213.32 98.9063 214.44 91.8663 214.44Z" fill="black"/>
</svg>
