<svg width="1138" height="224" viewBox="0 0 1138 224" fill="none" xmlns="http://www.w3.org/2000/svg">
<path d="M232.575 165.16C232.575 165.907 232.382 166.687 231.995 167.5C231.609 168.313 231.162 169.027 230.655 169.64C230.162 170.24 229.575 170.853 228.895 171.48C227.935 172.333 227.062 173.033 226.275 173.58L226.315 173.68C228.782 173.68 230.355 173.573 231.035 173.36C231.715 173.147 232.209 172.553 232.515 171.58L233.055 171.82C232.815 172.553 232.655 173.613 232.575 175H224.535L224.295 174.2C224.789 173.827 225.462 173.22 226.315 172.38C227.182 171.54 227.895 170.78 228.455 170.1C229.015 169.42 229.522 168.647 229.975 167.78C230.442 166.9 230.675 166.067 230.675 165.28C230.675 164.48 230.435 163.887 229.955 163.5C229.475 163.1 228.849 162.9 228.075 162.9C226.969 162.9 225.929 163.16 224.955 163.68L224.675 163.12C225.929 162.067 227.262 161.54 228.675 161.54C229.755 161.54 230.675 161.86 231.435 162.5C232.195 163.127 232.575 164.013 232.575 165.16ZM240.447 163H239.267C238.427 163 237.881 163.027 237.627 163.08C237.387 163.133 237.141 163.193 236.887 163.26C236.647 163.327 236.474 163.413 236.367 163.52C236.274 163.613 236.161 163.733 236.027 163.88C235.841 164.08 235.654 164.48 235.467 165.08L234.927 164.84C235.087 163.947 235.167 162.867 235.167 161.6C236.007 161.653 237.547 161.68 239.787 161.68C242.027 161.68 243.267 161.673 243.507 161.66L243.567 162.24L237.927 175.66L236.107 175.48L241.867 163.46C241.827 163.153 241.354 163 240.447 163ZM252.159 170.94C252.159 172.193 251.572 173.327 250.399 174.34C249.225 175.353 247.719 175.86 245.879 175.86C245.279 175.86 244.672 175.793 244.059 175.66L244.119 174.7C244.719 174.82 245.265 174.88 245.759 174.88C247.172 174.88 248.272 174.513 249.059 173.78C249.859 173.033 250.259 172.173 250.259 171.2C250.259 170.427 249.985 169.773 249.439 169.24C248.905 168.693 248.152 168.42 247.179 168.42C246.699 168.42 246.199 168.487 245.679 168.62L245.739 167.84C247.019 167.547 247.985 167.047 248.639 166.34C249.305 165.62 249.639 164.987 249.639 164.44C249.639 163.88 249.479 163.453 249.159 163.16C248.852 162.867 248.359 162.72 247.679 162.72C247.012 162.72 246.159 163.04 245.119 163.68L244.839 163.12C245.999 162.053 247.219 161.52 248.499 161.52C249.352 161.52 250.059 161.753 250.619 162.22C251.192 162.687 251.479 163.24 251.479 163.88C251.479 165.267 250.485 166.473 248.499 167.5V167.6C249.752 167.787 250.672 168.18 251.259 168.78C251.859 169.367 252.159 170.087 252.159 170.94ZM258.428 161.74C258.375 163.153 258.348 164.893 258.348 166.96C258.348 170.307 258.388 172.387 258.468 173.2L258.508 173.62C258.535 173.847 258.668 174.013 258.908 174.12C259.161 174.227 259.635 174.347 260.328 174.48L260.268 175.06C259.468 175.02 258.508 175 257.388 175C256.268 175 255.188 175.02 254.148 175.06L254.088 174.48C254.315 174.427 254.561 174.38 254.828 174.34C255.108 174.287 255.328 174.24 255.488 174.2C255.661 174.16 255.795 174.127 255.888 174.1C255.981 174.06 256.075 174.013 256.168 173.96C256.341 173.88 256.441 173.767 256.468 173.62C256.561 172.833 256.608 171.407 256.608 169.34C256.608 166.127 256.568 164.147 256.488 163.4L256.468 163.08L254.048 162.66L253.988 161.94C255.655 161.94 256.995 161.807 258.008 161.54L258.428 161.74ZM266.494 161.74C266.441 163.153 266.414 164.893 266.414 166.96C266.414 170.307 266.454 172.387 266.534 173.2L266.574 173.62C266.601 173.847 266.734 174.013 266.974 174.12C267.228 174.227 267.701 174.347 268.394 174.48L268.334 175.06C267.534 175.02 266.574 175 265.454 175C264.334 175 263.254 175.02 262.214 175.06L262.154 174.48C262.381 174.427 262.628 174.38 262.894 174.34C263.174 174.287 263.394 174.24 263.554 174.2C263.728 174.16 263.861 174.127 263.954 174.1C264.048 174.06 264.141 174.013 264.234 173.96C264.408 173.88 264.508 173.767 264.534 173.62C264.628 172.833 264.674 171.407 264.674 169.34C264.674 166.127 264.634 164.147 264.554 163.4L264.534 163.08L262.114 162.66L262.054 161.94C263.721 161.94 265.061 161.807 266.074 161.54L266.494 161.74ZM277.441 174.26C278.694 174.26 279.721 174.007 280.521 173.5C281.321 172.98 281.854 172.28 282.121 171.4L282.661 171.64C282.514 172.12 282.361 173.013 282.201 174.32C280.561 174.933 278.954 175.24 277.381 175.24C275.194 175.24 273.461 174.647 272.181 173.46C270.901 172.26 270.261 170.6 270.261 168.48C270.261 166.36 270.894 164.607 272.161 163.22C273.427 161.82 275.161 161.12 277.361 161.12C277.974 161.12 278.661 161.173 279.421 161.28C280.181 161.373 280.701 161.42 280.981 161.42C281.261 161.42 281.561 161.38 281.881 161.3V161.6C281.881 162.573 281.961 163.513 282.121 164.42L281.581 164.66C281.047 162.913 279.634 162.04 277.341 162.04C276.007 162.04 274.861 162.513 273.901 163.46C273.421 163.927 273.041 164.547 272.761 165.32C272.494 166.093 272.361 166.927 272.361 167.82C272.361 168.7 272.454 169.5 272.641 170.22C272.827 170.94 273.114 171.607 273.501 172.22C273.887 172.833 274.421 173.327 275.101 173.7C275.781 174.073 276.561 174.26 277.441 174.26ZM226.629 183.04C226.309 182.96 225.869 182.92 225.309 182.92C224.762 182.92 223.635 183 221.929 183.16L221.369 186.22C223.475 186.287 225.062 186.753 226.129 187.62C227.209 188.473 227.749 189.54 227.749 190.82C227.749 192.087 227.169 193.247 226.009 194.3C224.849 195.34 223.362 195.86 221.549 195.86C220.935 195.86 220.315 195.793 219.689 195.66L219.749 194.76C220.282 194.827 220.729 194.86 221.089 194.86C222.555 194.86 223.715 194.493 224.569 193.76C225.422 193.027 225.849 192.16 225.849 191.16C225.849 190.147 225.389 189.287 224.469 188.58C223.549 187.86 222.229 187.5 220.509 187.5L220.269 186.72L221.209 181.86L227.309 181.2L227.449 181.5L226.629 183.04ZM233.054 188.46C233.054 190.98 233.107 192.58 233.214 193.26L233.274 193.64C233.394 194.067 234.067 194.28 235.294 194.28C235.907 194.28 236.394 194.26 236.754 194.22C237.127 194.167 237.521 194.053 237.934 193.88C238.707 193.573 239.294 192.807 239.694 191.58L240.234 191.82C239.994 192.553 239.834 193.613 239.754 195H231.754C230.994 195 230.194 195.02 229.354 195.06L229.294 194.48C229.974 194.347 230.434 194.227 230.674 194.12C230.914 194.013 231.047 193.847 231.074 193.62C231.194 192.847 231.254 191.427 231.254 189.36C231.254 186 231.214 183.907 231.134 183.08L231.094 182.68C231.067 182.44 230.947 182.273 230.734 182.18C230.521 182.073 230.094 181.953 229.454 181.82L229.514 181.24C230.354 181.28 231.934 181.3 234.254 181.3C236.574 181.3 238.281 181.26 239.374 181.18V181.48C239.374 182.533 239.454 183.513 239.614 184.42L239.074 184.66C238.727 183.567 238.314 182.873 237.834 182.58C237.354 182.287 236.447 182.14 235.114 182.14C234.514 182.14 234.067 182.167 233.774 182.22C233.481 182.273 233.314 182.393 233.274 182.58C233.141 183.447 233.067 185.14 233.054 187.66C234.747 187.66 235.761 187.62 236.094 187.54C236.441 187.46 236.661 187.313 236.754 187.1C236.861 186.887 236.981 186.433 237.114 185.74L237.814 185.82C237.707 186.593 237.654 187.333 237.654 188.04C237.654 188.747 237.707 189.493 237.814 190.28L237.114 190.38C236.981 189.687 236.861 189.233 236.754 189.02C236.661 188.807 236.441 188.66 236.094 188.58C235.761 188.5 234.747 188.46 233.054 188.46ZM246.382 188.18C247.462 188.18 248.309 188.513 248.922 189.18C249.535 189.833 249.842 190.633 249.842 191.58C249.842 192.527 249.495 193.367 248.802 194.1C248.109 194.82 247.129 195.18 245.862 195.18C244.595 195.18 243.555 194.713 242.742 193.78C241.929 192.847 241.522 191.693 241.522 190.32C241.522 189.267 241.762 188.213 242.242 187.16C242.735 186.107 243.569 185.04 244.742 183.96C245.929 182.88 247.395 181.947 249.142 181.16L249.462 181.86C248.102 182.487 246.955 183.32 246.022 184.36C244.329 186.227 243.482 188.28 243.482 190.52C243.482 191.573 243.689 192.447 244.102 193.14C244.515 193.82 245.062 194.16 245.742 194.16C246.422 194.16 246.942 193.907 247.302 193.4C247.675 192.893 247.862 192.287 247.862 191.58C247.862 190.873 247.669 190.28 247.282 189.8C246.909 189.307 246.402 189.06 245.762 189.06C245.429 189.06 245.062 189.14 244.662 189.3L244.582 188.5C245.209 188.287 245.809 188.18 246.382 188.18ZM255.648 195.06C254.808 195.02 253.982 195 253.168 195C252.368 195 251.548 195.02 250.708 195.06L250.648 194.48C251.262 194.36 251.695 194.233 251.948 194.1C252.202 193.953 252.368 193.753 252.448 193.5L256.428 181.32L258.168 181.12L262.828 193.62C262.922 193.847 263.075 194.02 263.288 194.14C263.515 194.247 263.928 194.36 264.528 194.48L264.468 195.06C263.628 195.02 262.715 195 261.728 195C260.742 195 259.828 195.02 258.988 195.06L258.928 194.48C259.875 194.293 260.422 194.12 260.568 193.96C260.648 193.893 260.688 193.827 260.688 193.76C260.688 193.68 260.322 192.48 259.588 190.16H255.068L253.988 193.72C253.988 193.893 254.122 194.033 254.388 194.14C254.655 194.247 255.095 194.36 255.708 194.48L255.648 195.06ZM257.248 183.2H257.168C257.075 183.52 256.955 183.907 256.808 184.36C256.675 184.8 256.468 185.493 256.188 186.44C255.908 187.373 255.628 188.307 255.348 189.24H259.268L257.248 183.2ZM273.135 190.94C273.135 192.193 272.548 193.327 271.375 194.34C270.202 195.353 268.695 195.86 266.855 195.86C266.255 195.86 265.648 195.793 265.035 195.66L265.095 194.7C265.695 194.82 266.242 194.88 266.735 194.88C268.148 194.88 269.248 194.513 270.035 193.78C270.835 193.033 271.235 192.173 271.235 191.2C271.235 190.427 270.962 189.773 270.415 189.24C269.882 188.693 269.128 188.42 268.155 188.42C267.675 188.42 267.175 188.487 266.655 188.62L266.715 187.84C267.995 187.547 268.962 187.047 269.615 186.34C270.282 185.62 270.615 184.987 270.615 184.44C270.615 183.88 270.455 183.453 270.135 183.16C269.828 182.867 269.335 182.72 268.655 182.72C267.988 182.72 267.135 183.04 266.095 183.68L265.815 183.12C266.975 182.053 268.195 181.52 269.475 181.52C270.328 181.52 271.035 181.753 271.595 182.22C272.168 182.687 272.455 183.24 272.455 183.88C272.455 185.267 271.462 186.473 269.475 187.5V187.6C270.728 187.787 271.648 188.18 272.235 188.78C272.835 189.367 273.135 190.087 273.135 190.94ZM279.145 195.06C278.305 195.02 277.478 195 276.665 195C275.865 195 275.045 195.02 274.205 195.06L274.145 194.48C274.758 194.36 275.191 194.233 275.445 194.1C275.698 193.953 275.865 193.753 275.945 193.5L279.925 181.32L281.665 181.12L286.325 193.62C286.418 193.847 286.571 194.02 286.785 194.14C287.011 194.247 287.425 194.36 288.025 194.48L287.965 195.06C287.125 195.02 286.211 195 285.225 195C284.238 195 283.325 195.02 282.485 195.06L282.425 194.48C283.371 194.293 283.918 194.12 284.065 193.96C284.145 193.893 284.185 193.827 284.185 193.76C284.185 193.68 283.818 192.48 283.085 190.16H278.565L277.485 193.72C277.485 193.893 277.618 194.033 277.885 194.14C278.151 194.247 278.591 194.36 279.205 194.48L279.145 195.06ZM280.745 183.2H280.665C280.571 183.52 280.451 183.907 280.305 184.36C280.171 184.8 279.965 185.493 279.685 186.44C279.405 187.373 279.125 188.307 278.845 189.24H282.765L280.745 183.2ZM231.426 210.94C231.426 212.193 230.84 213.327 229.666 214.34C228.493 215.353 226.986 215.86 225.146 215.86C224.546 215.86 223.94 215.793 223.326 215.66L223.386 214.7C223.986 214.82 224.533 214.88 225.026 214.88C226.44 214.88 227.54 214.513 228.326 213.78C229.126 213.033 229.526 212.173 229.526 211.2C229.526 210.427 229.253 209.773 228.706 209.24C228.173 208.693 227.42 208.42 226.446 208.42C225.966 208.42 225.466 208.487 224.946 208.62L225.006 207.84C226.286 207.547 227.253 207.047 227.906 206.34C228.573 205.62 228.906 204.987 228.906 204.44C228.906 203.88 228.746 203.453 228.426 203.16C228.12 202.867 227.626 202.72 226.946 202.72C226.28 202.72 225.426 203.04 224.386 203.68L224.106 203.12C225.266 202.053 226.486 201.52 227.766 201.52C228.62 201.52 229.326 201.753 229.886 202.22C230.46 202.687 230.746 203.24 230.746 203.88C230.746 205.267 229.753 206.473 227.766 207.5V207.6C229.02 207.787 229.94 208.18 230.526 208.78C231.126 209.367 231.426 210.087 231.426 210.94ZM236.756 208.46C236.756 210.833 236.796 212.42 236.876 213.22L236.916 213.62C236.942 213.86 237.069 214.033 237.296 214.14C237.522 214.233 237.962 214.347 238.616 214.48L238.556 215.06C237.716 215.02 236.802 215 235.816 215C234.829 215 233.916 215.02 233.076 215.06L233.016 214.48C233.696 214.347 234.156 214.227 234.396 214.12C234.636 214.013 234.769 213.847 234.796 213.62C234.902 212.833 234.956 211.407 234.956 209.34C234.956 205.993 234.916 203.907 234.836 203.08L234.796 202.68C234.769 202.44 234.649 202.273 234.436 202.18C234.222 202.073 233.796 201.953 233.156 201.82L233.216 201.24C234.056 201.28 235.589 201.3 237.816 201.3C240.056 201.3 241.722 201.26 242.816 201.18V201.48C242.816 202.533 242.896 203.513 243.056 204.42L242.516 204.66C242.169 203.567 241.756 202.873 241.276 202.58C240.796 202.287 239.889 202.14 238.556 202.14C237.702 202.14 237.202 202.2 237.056 202.32C236.989 202.387 236.949 202.473 236.936 202.58C236.829 203.42 236.769 205.113 236.756 207.66C238.556 207.66 239.622 207.62 239.956 207.54C240.302 207.46 240.522 207.313 240.616 207.1C240.722 206.887 240.842 206.433 240.976 205.74L241.676 205.82C241.569 206.593 241.516 207.333 241.516 208.04C241.516 208.747 241.569 209.493 241.676 210.28L240.976 210.38C240.842 209.687 240.722 209.233 240.616 209.02C240.522 208.807 240.302 208.66 239.956 208.58C239.622 208.5 238.556 208.46 236.756 208.46ZM253.43 215.06C252.59 215.02 251.59 215 250.43 215C249.283 215 248.29 215.02 247.45 215.06L247.39 214.48C247.616 214.427 247.863 214.38 248.13 214.34C248.41 214.287 248.63 214.24 248.79 214.2C248.963 214.16 249.096 214.127 249.19 214.1C249.283 214.06 249.376 214.013 249.47 213.96C249.643 213.88 249.743 213.767 249.77 213.62C249.81 213.313 249.85 212.533 249.89 211.28H244.15L243.91 210.5L249.19 200.56L251.01 200.74L245.35 210.18H249.91V206.48C249.91 206.453 249.923 206.42 249.95 206.38C249.976 206.327 250.13 206.26 250.41 206.18C250.703 206.087 251.116 206.027 251.65 206C251.65 208.293 251.656 209.68 251.67 210.16H253.29L253.41 210.46L252.65 211.38C252.65 211.353 252.33 211.327 251.69 211.3L251.81 213.62C251.836 213.86 251.956 214.033 252.17 214.14C252.396 214.233 252.836 214.347 253.49 214.48L253.43 215.06ZM260.399 203H259.219C258.379 203 257.832 203.027 257.579 203.08C257.339 203.133 257.092 203.193 256.839 203.26C256.599 203.327 256.425 203.413 256.319 203.52C256.225 203.613 256.112 203.733 255.979 203.88C255.792 204.08 255.605 204.48 255.419 205.08L254.879 204.84C255.039 203.947 255.119 202.867 255.119 201.6C255.959 201.653 257.499 201.68 259.739 201.68C261.979 201.68 263.219 201.673 263.459 201.66L263.519 202.24L257.879 215.66L256.059 215.48L261.819 203.46C261.779 203.153 261.305 203 260.399 203ZM272.39 205.16C272.39 205.907 272.196 206.687 271.81 207.5C271.423 208.313 270.976 209.027 270.47 209.64C269.976 210.24 269.39 210.853 268.71 211.48C267.75 212.333 266.876 213.033 266.09 213.58L266.13 213.68C268.596 213.68 270.17 213.573 270.85 213.36C271.53 213.147 272.023 212.553 272.33 211.58L272.87 211.82C272.63 212.553 272.47 213.613 272.39 215H264.35L264.11 214.2C264.603 213.827 265.276 213.22 266.13 212.38C266.996 211.54 267.71 210.78 268.27 210.1C268.83 209.42 269.336 208.647 269.79 207.78C270.256 206.9 270.49 206.067 270.49 205.28C270.49 204.48 270.25 203.887 269.77 203.5C269.29 203.1 268.663 202.9 267.89 202.9C266.783 202.9 265.743 203.16 264.77 203.68L264.49 203.12C265.743 202.067 267.076 201.54 268.49 201.54C269.57 201.54 270.49 201.86 271.25 202.5C272.01 203.127 272.39 204.013 272.39 205.16ZM282.722 205.16C282.722 205.907 282.528 206.687 282.142 207.5C281.755 208.313 281.308 209.027 280.802 209.64C280.308 210.24 279.722 210.853 279.042 211.48C278.082 212.333 277.208 213.033 276.422 213.58L276.462 213.68C278.928 213.68 280.502 213.573 281.182 213.36C281.862 213.147 282.355 212.553 282.662 211.58L283.202 211.82C282.962 212.553 282.802 213.613 282.722 215H274.682L274.442 214.2C274.935 213.827 275.608 213.22 276.462 212.38C277.328 211.54 278.042 210.78 278.602 210.1C279.162 209.42 279.668 208.647 280.122 207.78C280.588 206.9 280.822 206.067 280.822 205.28C280.822 204.48 280.582 203.887 280.102 203.5C279.622 203.1 278.995 202.9 278.222 202.9C277.115 202.9 276.075 203.16 275.102 203.68L274.822 203.12C276.075 202.067 277.408 201.54 278.822 201.54C279.902 201.54 280.822 201.86 281.582 202.5C282.342 203.127 282.722 204.013 282.722 205.16Z" fill="black"/>
<path d="M439.05 174.46C439.05 173.9 438.863 173.42 438.49 173.02C438.13 172.62 437.63 172.42 436.99 172.42C436.363 172.42 435.87 172.6 435.51 172.96C435.163 173.32 434.99 173.773 434.99 174.32C434.99 175.427 435.783 176.433 437.37 177.34C437.89 177.047 438.297 176.633 438.59 176.1C438.897 175.567 439.05 175.02 439.05 174.46ZM434.55 181.78C434.55 182.433 434.757 183 435.17 183.48C435.583 183.947 436.137 184.18 436.83 184.18C437.523 184.18 438.097 183.94 438.55 183.46C439.003 182.98 439.23 182.413 439.23 181.76C439.23 180.467 438.33 179.427 436.53 178.64C435.903 178.947 435.417 179.38 435.07 179.94C434.723 180.5 434.55 181.113 434.55 181.78ZM441.11 181.6C441.11 182.6 440.69 183.447 439.85 184.14C439.023 184.833 437.99 185.18 436.75 185.18C435.51 185.18 434.543 184.86 433.85 184.22C433.157 183.58 432.81 182.84 432.81 182C432.81 181.16 433.063 180.413 433.57 179.76C434.077 179.093 434.81 178.6 435.77 178.28C434.023 177.227 433.15 176.04 433.15 174.72C433.15 173.813 433.523 173.06 434.27 172.46C435.03 171.847 435.963 171.54 437.07 171.54C438.19 171.54 439.07 171.82 439.71 172.38C440.35 172.927 440.67 173.567 440.67 174.3C440.67 175.02 440.45 175.693 440.01 176.32C439.57 176.933 438.93 177.4 438.09 177.72C440.103 178.76 441.11 180.053 441.11 181.6ZM447.268 171.74C447.214 173.153 447.188 174.893 447.188 176.96C447.188 180.307 447.228 182.387 447.308 183.2L447.348 183.62C447.374 183.847 447.508 184.013 447.748 184.12C448.001 184.227 448.474 184.347 449.168 184.48L449.108 185.06C448.308 185.02 447.348 185 446.228 185C445.108 185 444.028 185.02 442.988 185.06L442.928 184.48C443.154 184.427 443.401 184.38 443.668 184.34C443.948 184.287 444.168 184.24 444.328 184.2C444.501 184.16 444.634 184.127 444.728 184.1C444.821 184.06 444.914 184.013 445.008 183.96C445.181 183.88 445.281 183.767 445.308 183.62C445.401 182.833 445.448 181.407 445.448 179.34C445.448 176.127 445.408 174.147 445.328 173.4L445.308 173.08L442.888 172.66L442.828 171.94C444.494 171.94 445.834 171.807 446.848 171.54L447.268 171.74ZM454.634 179.1C453.474 179.1 452.554 178.727 451.874 177.98C451.208 177.233 450.874 176.347 450.874 175.32C450.874 174.293 451.228 173.407 451.934 172.66C452.654 171.913 453.668 171.54 454.974 171.54C456.294 171.54 457.381 172.033 458.234 173.02C459.101 173.993 459.534 175.207 459.534 176.66C459.534 178.393 458.874 180.133 457.554 181.88C456.248 183.627 454.248 185.107 451.554 186.32L451.234 185.6C452.314 185.093 453.274 184.467 454.114 183.72C454.968 182.973 455.641 182.187 456.134 181.36C457.121 179.68 457.614 178.04 457.614 176.44C457.614 175.32 457.381 174.4 456.914 173.68C456.448 172.947 455.834 172.58 455.074 172.58C454.328 172.58 453.741 172.867 453.314 173.44C452.901 174 452.694 174.66 452.694 175.42C452.694 176.18 452.914 176.84 453.354 177.4C453.794 177.96 454.414 178.24 455.214 178.24C455.494 178.24 455.808 178.2 456.154 178.12L456.234 178.86C455.648 179.02 455.114 179.1 454.634 179.1ZM468.733 180.94C468.733 182.193 468.146 183.327 466.973 184.34C465.799 185.353 464.293 185.86 462.453 185.86C461.853 185.86 461.246 185.793 460.633 185.66L460.693 184.7C461.293 184.82 461.839 184.88 462.333 184.88C463.746 184.88 464.846 184.513 465.633 183.78C466.433 183.033 466.833 182.173 466.833 181.2C466.833 180.427 466.559 179.773 466.013 179.24C465.479 178.693 464.726 178.42 463.753 178.42C463.273 178.42 462.773 178.487 462.253 178.62L462.313 177.84C463.593 177.547 464.559 177.047 465.213 176.34C465.879 175.62 466.213 174.987 466.213 174.44C466.213 173.88 466.053 173.453 465.733 173.16C465.426 172.867 464.933 172.72 464.253 172.72C463.586 172.72 462.733 173.04 461.693 173.68L461.413 173.12C462.573 172.053 463.793 171.52 465.073 171.52C465.926 171.52 466.633 171.753 467.193 172.22C467.766 172.687 468.053 173.24 468.053 173.88C468.053 175.267 467.059 176.473 465.073 177.5V177.6C466.326 177.787 467.246 178.18 467.833 178.78C468.433 179.367 468.733 180.087 468.733 180.94ZM479.467 185.06C478.627 185.02 477.627 185 476.467 185C475.32 185 474.327 185.02 473.487 185.06L473.427 184.48C473.654 184.427 473.9 184.38 474.167 184.34C474.447 184.287 474.667 184.24 474.827 184.2C475 184.16 475.134 184.127 475.227 184.1C475.32 184.06 475.414 184.013 475.507 183.96C475.68 183.88 475.78 183.767 475.807 183.62C475.847 183.313 475.887 182.533 475.927 181.28H470.187L469.947 180.5L475.227 170.56L477.047 170.74L471.387 180.18H475.947V176.48C475.947 176.453 475.96 176.42 475.987 176.38C476.014 176.327 476.167 176.26 476.447 176.18C476.74 176.087 477.154 176.027 477.687 176C477.687 178.293 477.694 179.68 477.707 180.16H479.327L479.447 180.46L478.687 181.38C478.687 181.353 478.367 181.327 477.727 181.3L477.847 183.62C477.874 183.86 477.994 184.033 478.207 184.14C478.434 184.233 478.874 184.347 479.527 184.48L479.467 185.06ZM484.336 178.46C484.336 180.833 484.376 182.42 484.456 183.22L484.496 183.62C484.522 183.86 484.649 184.033 484.876 184.14C485.102 184.233 485.542 184.347 486.196 184.48L486.136 185.06C485.296 185.02 484.382 185 483.396 185C482.409 185 481.496 185.02 480.656 185.06L480.596 184.48C481.276 184.347 481.736 184.227 481.976 184.12C482.216 184.013 482.349 183.847 482.376 183.62C482.482 182.833 482.536 181.407 482.536 179.34C482.536 175.993 482.496 173.907 482.416 173.08L482.376 172.68C482.349 172.44 482.229 172.273 482.016 172.18C481.802 172.073 481.376 171.953 480.736 171.82L480.796 171.24C481.636 171.28 483.169 171.3 485.396 171.3C487.636 171.3 489.302 171.26 490.396 171.18V171.48C490.396 172.533 490.476 173.513 490.636 174.42L490.096 174.66C489.749 173.567 489.336 172.873 488.856 172.58C488.376 172.287 487.469 172.14 486.136 172.14C485.282 172.14 484.782 172.2 484.636 172.32C484.569 172.387 484.529 172.473 484.516 172.58C484.409 173.42 484.349 175.113 484.336 177.66C486.136 177.66 487.202 177.62 487.536 177.54C487.882 177.46 488.102 177.313 488.196 177.1C488.302 176.887 488.422 176.433 488.556 175.74L489.256 175.82C489.149 176.593 489.096 177.333 489.096 178.04C489.096 178.747 489.149 179.493 489.256 180.28L488.556 180.38C488.422 179.687 488.302 179.233 488.196 179.02C488.102 178.807 487.882 178.66 487.536 178.58C487.202 178.5 486.136 178.46 484.336 178.46Z" fill="black"/>
<path d="M230.9 56.62C230.913 56.82 231.12 56.98 231.52 57.1C231.933 57.22 232.407 57.28 232.94 57.28C233.487 57.28 233.94 57.26 234.3 57.22C234.673 57.1667 235.067 57.0533 235.48 56.88C236.253 56.5733 236.84 55.8067 237.24 54.58L237.78 54.82C237.54 55.5533 237.38 56.6133 237.3 58H229.44C228.68 58 227.88 58.02 227.04 58.06L226.98 57.48C227.66 57.3467 228.12 57.2267 228.36 57.12C228.6 57.0133 228.733 56.8467 228.76 56.62C228.88 55.8467 228.94 54.4267 228.94 52.36C228.94 49 228.9 46.9067 228.82 46.08L228.78 45.68C228.753 45.44 228.633 45.2733 228.42 45.18C228.207 45.0733 227.78 44.9533 227.14 44.82L227.2 44.24C228.04 44.28 228.92 44.3 229.84 44.3C230.76 44.3 231.64 44.28 232.48 44.24L232.54 44.82C231.9 44.9533 231.473 45.0733 231.26 45.18C231.047 45.2733 230.927 45.44 230.9 45.68C230.793 46.4667 230.74 47.8933 230.74 49.96C230.74 53.3067 230.78 55.3867 230.86 56.2L230.9 56.62ZM241.541 46.44C241.341 46.64 241.095 46.74 240.801 46.74C240.508 46.74 240.261 46.64 240.061 46.44C239.861 46.2267 239.761 45.9733 239.761 45.68C239.761 45.3733 239.861 45.12 240.061 44.92C240.261 44.72 240.508 44.62 240.801 44.62C241.095 44.62 241.341 44.72 241.541 44.92C241.741 45.12 241.841 45.3733 241.841 45.68C241.841 45.9733 241.741 46.2267 241.541 46.44ZM241.621 49L241.581 53.42C241.581 55.14 241.635 56.26 241.741 56.78L241.781 57.04C241.795 57.1333 241.961 57.2267 242.281 57.32C242.615 57.4 242.921 57.4533 243.201 57.48L243.141 58.06C242.501 58.02 241.721 58 240.801 58C239.881 58 239.101 58.02 238.461 58.06L238.521 57.48C238.801 57.4533 239.101 57.4 239.421 57.32C239.741 57.2267 239.908 57.1333 239.921 57.04C240.028 56.5733 240.081 55.64 240.081 54.24C240.081 51.9733 240.028 50.5867 239.921 50.08L238.641 49.7L238.601 49.18C239.455 49.18 240.335 49.06 241.241 48.82L241.621 49ZM246.989 50.66L246.969 53.42C246.969 55.14 247.023 56.26 247.129 56.78L247.169 57.04C247.183 57.1333 247.329 57.2267 247.609 57.32C247.903 57.4 248.183 57.4533 248.449 57.48L248.389 58.06C247.749 58.02 247.016 58 246.189 58C245.363 58 244.629 58.02 243.989 58.06L244.049 57.48C244.303 57.4533 244.569 57.4 244.849 57.32C245.143 57.2267 245.296 57.1333 245.309 57.04C245.416 56.5733 245.469 55.64 245.469 54.24C245.469 51.9733 245.416 50.5867 245.309 50.08L244.029 49.7L243.989 49.18C244.843 49.18 245.723 49.06 246.629 48.82L247.009 49V49.96C248.489 49.1867 249.776 48.8 250.869 48.8C251.536 48.8 252.043 48.9333 252.389 49.2C252.736 49.4667 252.909 49.9667 252.909 50.7V53.42C252.909 55.14 252.956 56.26 253.049 56.78L253.109 57.04C253.123 57.1333 253.269 57.2267 253.549 57.32C253.843 57.4 254.123 57.4533 254.389 57.48L254.329 58.06C253.689 58.02 252.956 58 252.129 58C251.303 58 250.569 58.02 249.929 58.06L249.989 57.48C250.243 57.4533 250.509 57.4 250.789 57.32C251.083 57.2267 251.236 57.1333 251.249 57.04C251.356 56.5733 251.409 55.3667 251.409 53.42V51.48C251.409 50.96 251.256 50.6 250.949 50.4C250.643 50.2 250.123 50.1 249.389 50.1C248.656 50.1 247.856 50.2867 246.989 50.66ZM261.481 51.6C261.481 50.9867 261.307 50.5333 260.961 50.24C260.614 49.9333 260.227 49.78 259.801 49.78C259.174 49.78 258.634 50.0267 258.181 50.52C257.727 51.0133 257.427 51.62 257.281 52.34L261.421 52.18C261.461 51.98 261.481 51.7867 261.481 51.6ZM259.741 58.18C258.327 58.18 257.261 57.78 256.541 56.98C255.821 56.1667 255.461 55.0933 255.461 53.76C255.461 52.4133 255.854 51.2533 256.641 50.28C257.441 49.2933 258.641 48.8 260.241 48.8C261.054 48.8 261.761 49.0867 262.361 49.66C262.974 50.2333 263.281 51.0867 263.281 52.22L262.601 53.04C262.521 53.0267 261.887 53.02 260.701 53.02C259.527 53.02 258.347 53.0667 257.161 53.16V53.34C257.161 54.5533 257.414 55.4667 257.921 56.08C258.427 56.68 259.121 56.98 260.001 56.98C260.881 56.98 261.807 56.7667 262.781 56.34L263.021 56.94C261.994 57.7667 260.901 58.18 259.741 58.18ZM269.72 53.8C268.627 53.8267 267.794 54.0333 267.22 54.42C266.647 54.8067 266.36 55.2267 266.36 55.68C266.36 56.1333 266.474 56.4667 266.7 56.68C266.94 56.88 267.32 56.98 267.84 56.98C268.36 56.98 268.987 56.76 269.72 56.32V53.8ZM271.18 58.18C270.38 58.18 269.914 57.7467 269.78 56.88C268.607 57.7467 267.594 58.18 266.74 58.18C266.167 58.18 265.68 58.0067 265.28 57.66C264.88 57.3 264.68 56.7467 264.68 56C264.68 55.2533 265.074 54.58 265.86 53.98C266.66 53.38 267.947 53.02 269.72 52.9V51.04C269.72 50.6667 269.58 50.38 269.3 50.18C269.034 49.98 268.654 49.88 268.16 49.88C267.667 49.88 267.274 50.02 266.98 50.3C266.687 50.5667 266.54 50.9133 266.54 51.34C266.54 51.5 266.56 51.68 266.6 51.88L266.16 52.08C265.894 51.9333 265.64 51.7333 265.4 51.48C265.174 51.2267 265.06 51.0467 265.06 50.94C265.06 50.82 265.147 50.6533 265.32 50.44C265.507 50.2133 265.754 49.9733 266.06 49.72C266.367 49.4667 266.774 49.2533 267.28 49.08C267.8 48.8933 268.38 48.8 269.02 48.8C269.66 48.8 270.18 48.96 270.58 49.28C270.98 49.5867 271.18 50.1533 271.18 50.98C271.18 51.7933 271.22 53.52 271.3 56.16C271.314 56.8 271.554 57.12 272.02 57.12C272.22 57.12 272.427 57.0667 272.64 56.96L272.84 57.48C272.334 57.9467 271.78 58.18 271.18 58.18ZM279.421 48.68C279.528 48.68 279.701 48.84 279.941 49.16C280.194 49.4667 280.361 49.7733 280.441 50.08L280.141 50.46C279.661 50.2733 279.161 50.18 278.641 50.18C278.121 50.18 277.648 50.4 277.221 50.84C276.794 51.2667 276.581 51.96 276.581 52.92C276.594 55.2667 276.654 56.6333 276.761 57.02C276.774 57.1267 276.961 57.2267 277.321 57.32C277.694 57.4 278.081 57.4533 278.481 57.48L278.421 58.06C277.781 58.02 276.968 58 275.981 58C275.008 58 274.201 58.02 273.561 58.06L273.621 57.48C273.888 57.4533 274.168 57.4 274.461 57.32C274.754 57.2267 274.908 57.1333 274.921 57.04C275.028 56.5733 275.081 55.64 275.081 54.24C275.081 51.9733 275.028 50.5867 274.921 50.08L273.641 49.7L273.601 49.18C274.454 49.18 275.334 49.06 276.241 48.82L276.621 49C276.594 49.2 276.581 49.7467 276.581 50.64C276.968 50 277.454 49.5133 278.041 49.18C278.641 48.8467 279.101 48.68 279.421 48.68Z" fill="black"/>
<path d="M643.506 178.46C643.506 180.833 643.546 182.42 643.626 183.22L643.666 183.62C643.692 183.86 643.819 184.033 644.046 184.14C644.272 184.233 644.712 184.347 645.366 184.48L645.306 185.06C644.466 185.02 643.552 185 642.566 185C641.579 185 640.666 185.02 639.826 185.06L639.766 184.48C640.446 184.347 640.906 184.227 641.146 184.12C641.386 184.013 641.519 183.847 641.546 183.62C641.652 182.833 641.706 181.407 641.706 179.34C641.706 175.993 641.666 173.907 641.586 173.08L641.546 172.68C641.519 172.44 641.399 172.273 641.186 172.18C640.972 172.073 640.546 171.953 639.906 171.82L639.966 171.24C640.806 171.28 642.339 171.3 644.566 171.3C646.806 171.3 648.472 171.26 649.566 171.18V171.48C649.566 172.533 649.646 173.513 649.806 174.42L649.266 174.66C648.919 173.567 648.506 172.873 648.026 172.58C647.546 172.287 646.639 172.14 645.306 172.14C644.452 172.14 643.952 172.2 643.806 172.32C643.739 172.387 643.699 172.473 643.686 172.58C643.579 173.42 643.519 175.113 643.506 177.66C645.306 177.66 646.372 177.62 646.706 177.54C647.052 177.46 647.272 177.313 647.366 177.1C647.472 176.887 647.592 176.433 647.726 175.74L648.426 175.82C648.319 176.593 648.266 177.333 648.266 178.04C648.266 178.747 648.319 179.493 648.426 180.28L647.726 180.38C647.592 179.687 647.472 179.233 647.366 179.02C647.272 178.807 647.052 178.66 646.706 178.58C646.372 178.5 645.306 178.46 643.506 178.46ZM659.48 174.92C659.8 175.92 659.96 177.067 659.96 178.36C659.96 179.653 659.8 180.8 659.48 181.8C659.173 182.8 658.673 183.613 657.98 184.24C657.3 184.867 656.466 185.18 655.48 185.18C654.493 185.18 653.653 184.867 652.96 184.24C652.28 183.613 651.78 182.8 651.46 181.8C651.153 180.8 651 179.653 651 178.36C651 177.067 651.153 175.92 651.46 174.92C651.78 173.92 652.28 173.107 652.96 172.48C653.653 171.853 654.493 171.54 655.48 171.54C656.466 171.54 657.3 171.853 657.98 172.48C658.673 173.107 659.173 173.92 659.48 174.92ZM657.4 174.1C656.96 172.993 656.32 172.44 655.48 172.44C654.64 172.44 654 172.993 653.56 174.1C653.12 175.207 652.9 176.627 652.9 178.36C652.9 180.093 653.12 181.513 653.56 182.62C654 183.727 654.64 184.28 655.48 184.28C656.32 184.28 656.96 183.727 657.4 182.62C657.84 181.513 658.06 180.093 658.06 178.36C658.06 176.627 657.84 175.207 657.4 174.1ZM665.049 178.46C665.049 180.833 665.089 182.42 665.169 183.22L665.209 183.62C665.235 183.86 665.362 184.033 665.589 184.14C665.815 184.233 666.255 184.347 666.909 184.48L666.849 185.06C666.009 185.02 665.095 185 664.109 185C663.122 185 662.209 185.02 661.369 185.06L661.309 184.48C661.989 184.347 662.449 184.227 662.689 184.12C662.929 184.013 663.062 183.847 663.089 183.62C663.195 182.833 663.249 181.407 663.249 179.34C663.249 175.993 663.209 173.907 663.129 173.08L663.089 172.68C663.062 172.44 662.942 172.273 662.729 172.18C662.515 172.073 662.089 171.953 661.449 171.82L661.509 171.24C662.349 171.28 663.882 171.3 666.109 171.3C668.349 171.3 670.015 171.26 671.109 171.18V171.48C671.109 172.533 671.189 173.513 671.349 174.42L670.809 174.66C670.462 173.567 670.049 172.873 669.569 172.58C669.089 172.287 668.182 172.14 666.849 172.14C665.995 172.14 665.495 172.2 665.349 172.32C665.282 172.387 665.242 172.473 665.229 172.58C665.122 173.42 665.062 175.113 665.049 177.66C666.849 177.66 667.915 177.62 668.249 177.54C668.595 177.46 668.815 177.313 668.909 177.1C669.015 176.887 669.135 176.433 669.269 175.74L669.969 175.82C669.862 176.593 669.809 177.333 669.809 178.04C669.809 178.747 669.862 179.493 669.969 180.28L669.269 180.38C669.135 179.687 669.015 179.233 668.909 179.02C668.815 178.807 668.595 178.66 668.249 178.58C667.915 178.5 666.849 178.46 665.049 178.46ZM681.023 174.92C681.343 175.92 681.503 177.067 681.503 178.36C681.503 179.653 681.343 180.8 681.023 181.8C680.716 182.8 680.216 183.613 679.523 184.24C678.843 184.867 678.009 185.18 677.023 185.18C676.036 185.18 675.196 184.867 674.503 184.24C673.823 183.613 673.323 182.8 673.003 181.8C672.696 180.8 672.543 179.653 672.543 178.36C672.543 177.067 672.696 175.92 673.003 174.92C673.323 173.92 673.823 173.107 674.503 172.48C675.196 171.853 676.036 171.54 677.023 171.54C678.009 171.54 678.843 171.853 679.523 172.48C680.216 173.107 680.716 173.92 681.023 174.92ZM678.943 174.1C678.503 172.993 677.863 172.44 677.023 172.44C676.183 172.44 675.543 172.993 675.103 174.1C674.663 175.207 674.443 176.627 674.443 178.36C674.443 180.093 674.663 181.513 675.103 182.62C675.543 183.727 676.183 184.28 677.023 184.28C677.863 184.28 678.503 183.727 678.943 182.62C679.383 181.513 679.603 180.093 679.603 178.36C679.603 176.627 679.383 175.207 678.943 174.1ZM686.591 178.46C686.591 180.833 686.631 182.42 686.711 183.22L686.751 183.62C686.778 183.86 686.905 184.033 687.131 184.14C687.358 184.233 687.798 184.347 688.451 184.48L688.391 185.06C687.551 185.02 686.638 185 685.651 185C684.665 185 683.751 185.02 682.911 185.06L682.851 184.48C683.531 184.347 683.991 184.227 684.231 184.12C684.471 184.013 684.605 183.847 684.631 183.62C684.738 182.833 684.791 181.407 684.791 179.34C684.791 175.993 684.751 173.907 684.671 173.08L684.631 172.68C684.605 172.44 684.485 172.273 684.271 172.18C684.058 172.073 683.631 171.953 682.991 171.82L683.051 171.24C683.891 171.28 685.425 171.3 687.651 171.3C689.891 171.3 691.558 171.26 692.651 171.18V171.48C692.651 172.533 692.731 173.513 692.891 174.42L692.351 174.66C692.005 173.567 691.591 172.873 691.111 172.58C690.631 172.287 689.725 172.14 688.391 172.14C687.538 172.14 687.038 172.2 686.891 172.32C686.825 172.387 686.785 172.473 686.771 172.58C686.665 173.42 686.605 175.113 686.591 177.66C688.391 177.66 689.458 177.62 689.791 177.54C690.138 177.46 690.358 177.313 690.451 177.1C690.558 176.887 690.678 176.433 690.811 175.74L691.511 175.82C691.405 176.593 691.351 177.333 691.351 178.04C691.351 178.747 691.405 179.493 691.511 180.28L690.811 180.38C690.678 179.687 690.558 179.233 690.451 179.02C690.358 178.807 690.138 178.66 689.791 178.58C689.458 178.5 688.391 178.46 686.591 178.46ZM702.566 174.92C702.886 175.92 703.046 177.067 703.046 178.36C703.046 179.653 702.886 180.8 702.566 181.8C702.259 182.8 701.759 183.613 701.066 184.24C700.386 184.867 699.552 185.18 698.566 185.18C697.579 185.18 696.739 184.867 696.046 184.24C695.366 183.613 694.866 182.8 694.546 181.8C694.239 180.8 694.086 179.653 694.086 178.36C694.086 177.067 694.239 175.92 694.546 174.92C694.866 173.92 695.366 173.107 696.046 172.48C696.739 171.853 697.579 171.54 698.566 171.54C699.552 171.54 700.386 171.853 701.066 172.48C701.759 173.107 702.259 173.92 702.566 174.92ZM700.486 174.1C700.046 172.993 699.406 172.44 698.566 172.44C697.726 172.44 697.086 172.993 696.646 174.1C696.206 175.207 695.986 176.627 695.986 178.36C695.986 180.093 696.206 181.513 696.646 182.62C697.086 183.727 697.726 184.28 698.566 184.28C699.406 184.28 700.046 183.727 700.486 182.62C700.926 181.513 701.146 180.093 701.146 178.36C701.146 176.627 700.926 175.207 700.486 174.1Z" fill="black"/>
<path d="M856.238 174.92C856.558 175.92 856.718 177.067 856.718 178.36C856.718 179.653 856.558 180.8 856.238 181.8C855.931 182.8 855.431 183.613 854.738 184.24C854.058 184.867 853.224 185.18 852.238 185.18C851.251 185.18 850.411 184.867 849.718 184.24C849.038 183.613 848.538 182.8 848.218 181.8C847.911 180.8 847.758 179.653 847.758 178.36C847.758 177.067 847.911 175.92 848.218 174.92C848.538 173.92 849.038 173.107 849.718 172.48C850.411 171.853 851.251 171.54 852.238 171.54C853.224 171.54 854.058 171.853 854.738 172.48C855.431 173.107 855.931 173.92 856.238 174.92ZM854.158 174.1C853.718 172.993 853.078 172.44 852.238 172.44C851.398 172.44 850.758 172.993 850.318 174.1C849.878 175.207 849.658 176.627 849.658 178.36C849.658 180.093 849.878 181.513 850.318 182.62C850.758 183.727 851.398 184.28 852.238 184.28C853.078 184.28 853.718 183.727 854.158 182.62C854.598 181.513 854.818 180.093 854.818 178.36C854.818 176.627 854.598 175.207 854.158 174.1ZM860.946 171.3H864.306C865.56 171.3 866.513 171.607 867.166 172.22C867.82 172.833 868.146 173.593 868.146 174.5C868.146 175.113 867.96 175.7 867.586 176.26C867.213 176.807 866.7 177.24 866.046 177.56C867.1 177.8 867.86 178.213 868.326 178.8C868.793 179.387 869.026 180.18 869.026 181.18C869.026 182.18 868.606 183.067 867.766 183.84C866.926 184.613 865.88 185 864.626 185H860.946C859.906 185 858.966 185.02 858.126 185.06L858.066 184.48C858.746 184.347 859.206 184.227 859.446 184.12C859.686 184.013 859.82 183.847 859.846 183.62C859.953 182.833 860.006 181.407 860.006 179.34C860.006 175.993 859.966 173.907 859.886 173.08L859.846 172.68C859.82 172.44 859.7 172.273 859.486 172.18C859.273 172.073 858.846 171.953 858.206 171.82L858.266 171.24C859.106 171.28 860 171.3 860.946 171.3ZM866.266 174.5C866.266 172.927 865.253 172.14 863.226 172.14C862.746 172.14 862.433 172.167 862.286 172.22C862.153 172.273 862.06 172.393 862.006 172.58C861.86 173.26 861.786 174.947 861.786 177.64C862.72 177.48 863.713 177.4 864.766 177.4C865.766 176.747 866.266 175.78 866.266 174.5ZM864.026 184.28C864.866 184.28 865.593 184 866.206 183.44C866.82 182.88 867.126 182.113 867.126 181.14C867.126 179.207 865.766 178.24 863.046 178.24C862.646 178.24 862.226 178.26 861.786 178.3C861.786 180.927 861.84 182.58 861.946 183.26L862.006 183.64C862.126 184.067 862.8 184.28 864.026 184.28ZM879.226 174.92C879.546 175.92 879.706 177.067 879.706 178.36C879.706 179.653 879.546 180.8 879.226 181.8C878.919 182.8 878.419 183.613 877.726 184.24C877.046 184.867 876.213 185.18 875.226 185.18C874.239 185.18 873.399 184.867 872.706 184.24C872.026 183.613 871.526 182.8 871.206 181.8C870.899 180.8 870.746 179.653 870.746 178.36C870.746 177.067 870.899 175.92 871.206 174.92C871.526 173.92 872.026 173.107 872.706 172.48C873.399 171.853 874.239 171.54 875.226 171.54C876.213 171.54 877.046 171.853 877.726 172.48C878.419 173.107 878.919 173.92 879.226 174.92ZM877.146 174.1C876.706 172.993 876.066 172.44 875.226 172.44C874.386 172.44 873.746 172.993 873.306 174.1C872.866 175.207 872.646 176.627 872.646 178.36C872.646 180.093 872.866 181.513 873.306 182.62C873.746 183.727 874.386 184.28 875.226 184.28C876.066 184.28 876.706 183.727 877.146 182.62C877.586 181.513 877.806 180.093 877.806 178.36C877.806 176.627 877.586 175.207 877.146 174.1ZM883.935 171.3H887.295C888.548 171.3 889.501 171.607 890.155 172.22C890.808 172.833 891.135 173.593 891.135 174.5C891.135 175.113 890.948 175.7 890.575 176.26C890.201 176.807 889.688 177.24 889.035 177.56C890.088 177.8 890.848 178.213 891.315 178.8C891.781 179.387 892.015 180.18 892.015 181.18C892.015 182.18 891.595 183.067 890.755 183.84C889.915 184.613 888.868 185 887.615 185H883.935C882.895 185 881.955 185.02 881.115 185.06L881.055 184.48C881.735 184.347 882.195 184.227 882.435 184.12C882.675 184.013 882.808 183.847 882.835 183.62C882.941 182.833 882.995 181.407 882.995 179.34C882.995 175.993 882.955 173.907 882.875 173.08L882.835 172.68C882.808 172.44 882.688 172.273 882.475 172.18C882.261 172.073 881.835 171.953 881.195 171.82L881.255 171.24C882.095 171.28 882.988 171.3 883.935 171.3ZM889.255 174.5C889.255 172.927 888.241 172.14 886.215 172.14C885.735 172.14 885.421 172.167 885.275 172.22C885.141 172.273 885.048 172.393 884.995 172.58C884.848 173.26 884.775 174.947 884.775 177.64C885.708 177.48 886.701 177.4 887.755 177.4C888.755 176.747 889.255 175.78 889.255 174.5ZM887.015 184.28C887.855 184.28 888.581 184 889.195 183.44C889.808 182.88 890.115 182.113 890.115 181.14C890.115 179.207 888.755 178.24 886.035 178.24C885.635 178.24 885.215 178.26 884.775 178.3C884.775 180.927 884.828 182.58 884.935 183.26L884.995 183.64C885.115 184.067 885.788 184.28 887.015 184.28ZM902.214 174.92C902.534 175.92 902.694 177.067 902.694 178.36C902.694 179.653 902.534 180.8 902.214 181.8C901.907 182.8 901.407 183.613 900.714 184.24C900.034 184.867 899.201 185.18 898.214 185.18C897.227 185.18 896.387 184.867 895.694 184.24C895.014 183.613 894.514 182.8 894.194 181.8C893.887 180.8 893.734 179.653 893.734 178.36C893.734 177.067 893.887 175.92 894.194 174.92C894.514 173.92 895.014 173.107 895.694 172.48C896.387 171.853 897.227 171.54 898.214 171.54C899.201 171.54 900.034 171.853 900.714 172.48C901.407 173.107 901.907 173.92 902.214 174.92ZM900.134 174.1C899.694 172.993 899.054 172.44 898.214 172.44C897.374 172.44 896.734 172.993 896.294 174.1C895.854 175.207 895.634 176.627 895.634 178.36C895.634 180.093 895.854 181.513 896.294 182.62C896.734 183.727 897.374 184.28 898.214 184.28C899.054 184.28 899.694 183.727 900.134 182.62C900.574 181.513 900.794 180.093 900.794 178.36C900.794 176.627 900.574 175.207 900.134 174.1ZM906.923 171.3H910.283C911.536 171.3 912.49 171.607 913.143 172.22C913.796 172.833 914.123 173.593 914.123 174.5C914.123 175.113 913.936 175.7 913.563 176.26C913.19 176.807 912.676 177.24 912.023 177.56C913.076 177.8 913.836 178.213 914.303 178.8C914.77 179.387 915.003 180.18 915.003 181.18C915.003 182.18 914.583 183.067 913.743 183.84C912.903 184.613 911.856 185 910.603 185H906.923C905.883 185 904.943 185.02 904.103 185.06L904.043 184.48C904.723 184.347 905.183 184.227 905.423 184.12C905.663 184.013 905.796 183.847 905.823 183.62C905.93 182.833 905.983 181.407 905.983 179.34C905.983 175.993 905.943 173.907 905.863 173.08L905.823 172.68C905.796 172.44 905.676 172.273 905.463 172.18C905.25 172.073 904.823 171.953 904.183 171.82L904.243 171.24C905.083 171.28 905.976 171.3 906.923 171.3ZM912.243 174.5C912.243 172.927 911.23 172.14 909.203 172.14C908.723 172.14 908.41 172.167 908.263 172.22C908.13 172.273 908.036 172.393 907.983 172.58C907.836 173.26 907.763 174.947 907.763 177.64C908.696 177.48 909.69 177.4 910.743 177.4C911.743 176.747 912.243 175.78 912.243 174.5ZM910.003 184.28C910.843 184.28 911.57 184 912.183 183.44C912.796 182.88 913.103 182.113 913.103 181.14C913.103 179.207 911.743 178.24 909.023 178.24C908.623 178.24 908.203 178.26 907.763 178.3C907.763 180.927 907.816 182.58 907.923 183.26L907.983 183.64C908.103 184.067 908.776 184.28 910.003 184.28Z" fill="black"/>
<line x1="357.5" y1="190" x2="357.5" y2="65" stroke="black"/>
<line x1="567.5" y1="190" x2="567.5" y2="65" stroke="black"/>
<line x1="777.5" y1="190" x2="777.5" y2="65" stroke="black"/>
<rect x="420.5" y="72.5" width="84" height="84" rx="9.5" fill="#81934F" stroke="black"/>
<rect x="630.5" y="72.5" width="84" height="84" rx="9.5" fill="#F0F0F0" stroke="black"/>
<rect x="840.5" y="72.5" width="84" height="84" rx="9.5" fill="#0B0B0B" stroke="black"/>
<rect x="0.5" y="0.5" width="1137" height="223" rx="58.5" stroke="black"/>
<rect x="211.5" y="72.5" width="84" height="84" rx="9.5" fill="url(#paint0_linear_519_73)" stroke="black"/>
<defs>
<linearGradient id="paint0_linear_519_73" x1="253.5" y1="72" x2="253.5" y2="157" gradientUnits="userSpaceOnUse">
<stop stop-color="#27311C"/>
<stop offset="0.474847" stop-color="#5E6A3A"/>
<stop offset="1" stop-color="#3F4722"/>
</linearGradient>
</defs>
</svg>
