<svg width="1138" height="224" viewBox="0 0 1138 224" fill="none" xmlns="http://www.w3.org/2000/svg">
<path d="M336.335 137.68C336.229 138.467 336.175 139.893 336.175 141.96C336.175 145.307 336.215 147.387 336.295 148.2L336.335 148.62C336.362 148.86 336.489 149.033 336.715 149.14C336.942 149.233 337.382 149.347 338.035 149.48L337.975 150.06C337.135 150.02 336.222 150 335.235 150C334.249 150 333.335 150.02 332.495 150.06L332.435 149.48C333.115 149.347 333.575 149.227 333.815 149.12C334.055 149.013 334.189 148.847 334.215 148.62C334.322 147.833 334.375 146.407 334.375 144.34C334.375 140.993 334.335 138.907 334.255 138.08L334.215 137.68C334.189 137.44 334.069 137.273 333.855 137.18C333.642 137.073 333.215 136.953 332.575 136.82L332.635 136.24C333.475 136.28 334.355 136.3 335.275 136.3C336.195 136.3 337.075 136.28 337.915 136.24L337.975 136.82C337.335 136.953 336.909 137.073 336.695 137.18C336.482 137.273 336.362 137.44 336.335 137.68ZM342.151 142.66L342.131 145.42C342.131 147.14 342.185 148.26 342.291 148.78L342.331 149.04C342.345 149.133 342.491 149.227 342.771 149.32C343.065 149.4 343.345 149.453 343.611 149.48L343.551 150.06C342.911 150.02 342.178 150 341.351 150C340.525 150 339.791 150.02 339.151 150.06L339.211 149.48C339.465 149.453 339.731 149.4 340.011 149.32C340.305 149.227 340.458 149.133 340.471 149.04C340.578 148.573 340.631 147.64 340.631 146.24C340.631 143.973 340.578 142.587 340.471 142.08L339.191 141.7L339.151 141.18C340.005 141.18 340.885 141.06 341.791 140.82L342.171 141V141.96C343.651 141.187 344.938 140.8 346.031 140.8C346.698 140.8 347.205 140.933 347.551 141.2C347.898 141.467 348.071 141.967 348.071 142.7V145.42C348.071 147.14 348.118 148.26 348.211 148.78L348.271 149.04C348.285 149.133 348.431 149.227 348.711 149.32C349.005 149.4 349.285 149.453 349.551 149.48L349.491 150.06C348.851 150.02 348.118 150 347.291 150C346.465 150 345.731 150.02 345.091 150.06L345.151 149.48C345.405 149.453 345.671 149.4 345.951 149.32C346.245 149.227 346.398 149.133 346.411 149.04C346.518 148.573 346.571 147.367 346.571 145.42V143.48C346.571 142.96 346.418 142.6 346.111 142.4C345.805 142.2 345.285 142.1 344.551 142.1C343.818 142.1 343.018 142.287 342.151 142.66ZM353.783 150.18C352.396 150.18 351.703 149.513 351.703 148.18C351.716 147.007 351.723 145.933 351.723 144.96C351.723 143.973 351.709 142.947 351.683 141.88L350.403 141.9L350.343 141.68L350.803 140.9C350.989 140.94 351.269 140.967 351.643 140.98L351.563 139.14L352.883 137.96L353.263 138.14C353.236 139.127 353.223 140.067 353.223 140.96L356.163 140.94L356.263 141.18L355.543 141.98C355.089 141.927 354.316 141.893 353.223 141.88V144.56C353.223 146.227 353.243 147.42 353.283 148.14C353.323 148.74 353.676 149.04 354.343 149.04C354.876 149.04 355.463 148.887 356.103 148.58L356.343 149.24C355.396 149.867 354.543 150.18 353.783 150.18ZM363.186 143.6C363.186 142.987 363.012 142.533 362.666 142.24C362.319 141.933 361.932 141.78 361.506 141.78C360.879 141.78 360.339 142.027 359.886 142.52C359.432 143.013 359.132 143.62 358.986 144.34L363.126 144.18C363.166 143.98 363.186 143.787 363.186 143.6ZM361.446 150.18C360.032 150.18 358.966 149.78 358.246 148.98C357.526 148.167 357.166 147.093 357.166 145.76C357.166 144.413 357.559 143.253 358.346 142.28C359.146 141.293 360.346 140.8 361.946 140.8C362.759 140.8 363.466 141.087 364.066 141.66C364.679 142.233 364.986 143.087 364.986 144.22L364.306 145.04C364.226 145.027 363.592 145.02 362.406 145.02C361.232 145.02 360.052 145.067 358.866 145.16V145.34C358.866 146.553 359.119 147.467 359.626 148.08C360.132 148.68 360.826 148.98 361.706 148.98C362.586 148.98 363.512 148.767 364.486 148.34L364.726 148.94C363.699 149.767 362.606 150.18 361.446 150.18ZM371.985 140.68C372.092 140.68 372.265 140.84 372.505 141.16C372.759 141.467 372.925 141.773 373.005 142.08L372.705 142.46C372.225 142.273 371.725 142.18 371.205 142.18C370.685 142.18 370.212 142.4 369.785 142.84C369.359 143.267 369.145 143.96 369.145 144.92C369.159 147.267 369.219 148.633 369.325 149.02C369.339 149.127 369.525 149.227 369.885 149.32C370.259 149.4 370.645 149.453 371.045 149.48L370.985 150.06C370.345 150.02 369.532 150 368.545 150C367.572 150 366.765 150.02 366.125 150.06L366.185 149.48C366.452 149.453 366.732 149.4 367.025 149.32C367.319 149.227 367.472 149.133 367.485 149.04C367.592 148.573 367.645 147.64 367.645 146.24C367.645 143.973 367.592 142.587 367.485 142.08L366.205 141.7L366.165 141.18C367.019 141.18 367.899 141.06 368.805 140.82L369.185 141C369.159 141.2 369.145 141.747 369.145 142.64C369.532 142 370.019 141.513 370.605 141.18C371.205 140.847 371.665 140.68 371.985 140.68ZM301.971 168.18C301.971 169.553 302.225 170.96 302.731 172.4C303.251 173.84 304.018 175.147 305.031 176.32L304.411 176.9C302.878 175.647 301.771 174.253 301.091 172.72C300.425 171.173 300.091 169.66 300.091 168.18C300.091 164.953 301.531 162.167 304.411 159.82L305.031 160.38C302.991 162.78 301.971 165.38 301.971 168.18ZM317.841 165.16L318.121 165.3C318.121 166.167 318.161 166.827 318.241 167.28L317.721 167.46C317.547 166.78 317.301 166.307 316.981 166.04C316.674 165.773 316.281 165.64 315.801 165.64C315.321 165.64 314.941 165.767 314.661 166.02C314.381 166.273 314.241 166.573 314.241 166.92C314.241 167.52 314.587 168.013 315.281 168.4L317.321 169.52C318.201 170.013 318.641 170.727 318.641 171.66C318.641 172.34 318.367 172.933 317.821 173.44C317.287 173.933 316.521 174.18 315.521 174.18C314.521 174.18 313.494 174.013 312.441 173.68C312.601 172.747 312.681 171.98 312.681 171.38L313.201 171.2C313.321 171.68 313.407 172.007 313.461 172.18C313.527 172.353 313.634 172.567 313.781 172.82C313.941 173.073 314.141 173.24 314.381 173.32C314.621 173.4 314.974 173.44 315.441 173.44C315.907 173.44 316.294 173.307 316.601 173.04C316.907 172.773 317.061 172.453 317.061 172.08C317.061 171.52 316.747 171.067 316.121 170.72L313.961 169.52C313.081 169.053 312.641 168.34 312.641 167.38C312.641 166.7 312.901 166.1 313.421 165.58C313.941 165.06 314.667 164.8 315.601 164.8C316.534 164.8 317.281 164.92 317.841 165.16ZM326.037 167.6C326.037 166.987 325.864 166.533 325.517 166.24C325.171 165.933 324.784 165.78 324.357 165.78C323.731 165.78 323.191 166.027 322.737 166.52C322.284 167.013 321.984 167.62 321.837 168.34L325.977 168.18C326.017 167.98 326.037 167.787 326.037 167.6ZM324.297 174.18C322.884 174.18 321.817 173.78 321.097 172.98C320.377 172.167 320.017 171.093 320.017 169.76C320.017 168.413 320.411 167.253 321.197 166.28C321.997 165.293 323.197 164.8 324.797 164.8C325.611 164.8 326.317 165.087 326.917 165.66C327.531 166.233 327.837 167.087 327.837 168.22L327.157 169.04C327.077 169.027 326.444 169.02 325.257 169.02C324.084 169.02 322.904 169.067 321.717 169.16V169.34C321.717 170.553 321.971 171.467 322.477 172.08C322.984 172.68 323.677 172.98 324.557 172.98C325.437 172.98 326.364 172.767 327.337 172.34L327.577 172.94C326.551 173.767 325.457 174.18 324.297 174.18ZM337.637 169.42C337.637 171.14 337.684 172.26 337.777 172.78L337.837 173.04C337.85 173.133 337.997 173.227 338.277 173.32C338.57 173.4 338.85 173.453 339.117 173.48L339.057 174.06C338.417 174.02 337.684 174 336.857 174C336.03 174 335.297 174.02 334.657 174.06L334.717 173.48C334.97 173.453 335.237 173.4 335.517 173.32C335.81 173.227 335.964 173.133 335.977 173.04C336.084 172.573 336.137 171.367 336.137 169.42V167.48C336.137 166.96 335.984 166.6 335.677 166.4C335.37 166.2 335.004 166.1 334.577 166.1C334.15 166.1 333.817 166.12 333.577 166.16C333.337 166.187 333.124 166.227 332.937 166.28C332.684 166.347 332.337 166.473 331.897 166.66V169.42C331.897 171.073 331.95 172.193 332.057 172.78L332.117 173.04C332.13 173.133 332.277 173.227 332.557 173.32C332.85 173.4 333.13 173.453 333.397 173.48L333.337 174.06C332.697 174.02 331.964 174 331.137 174C330.31 174 329.577 174.02 328.937 174.06L328.997 173.48C329.25 173.453 329.517 173.4 329.797 173.32C330.09 173.227 330.244 173.133 330.257 173.04C330.35 172.573 330.397 171.64 330.397 170.24C330.397 167.973 330.344 166.587 330.237 166.08L328.957 165.7L328.917 165.18C329.77 165.18 330.65 165.06 331.557 164.82L331.937 165C331.924 165.333 331.917 165.653 331.917 165.96C333.397 165.187 334.657 164.8 335.697 164.8C336.737 164.8 337.357 165.193 337.557 165.98C338.957 165.193 340.224 164.8 341.357 164.8C342.024 164.8 342.53 164.933 342.877 165.2C343.224 165.467 343.397 165.967 343.397 166.7V169.42C343.397 171.14 343.444 172.26 343.537 172.78L343.597 173.04C343.61 173.133 343.757 173.227 344.037 173.32C344.33 173.4 344.61 173.453 344.877 173.48L344.817 174.06C344.177 174.02 343.444 174 342.617 174C341.79 174 341.057 174.02 340.417 174.06L340.477 173.48C340.73 173.453 340.997 173.4 341.277 173.32C341.57 173.227 341.724 173.133 341.737 173.04C341.844 172.573 341.897 171.367 341.897 169.42V167.48C341.897 166.96 341.744 166.6 341.437 166.4C341.13 166.2 340.584 166.1 339.797 166.1C339.024 166.1 338.304 166.287 337.637 166.66V169.42ZM348.735 162.44C348.535 162.64 348.288 162.74 347.995 162.74C347.702 162.74 347.455 162.64 347.255 162.44C347.055 162.227 346.955 161.973 346.955 161.68C346.955 161.373 347.055 161.12 347.255 160.92C347.455 160.72 347.702 160.62 347.995 160.62C348.288 160.62 348.535 160.72 348.735 160.92C348.935 161.12 349.035 161.373 349.035 161.68C349.035 161.973 348.935 162.227 348.735 162.44ZM348.815 165L348.775 169.42C348.775 171.14 348.828 172.26 348.935 172.78L348.975 173.04C348.988 173.133 349.155 173.227 349.475 173.32C349.808 173.4 350.115 173.453 350.395 173.48L350.335 174.06C349.695 174.02 348.915 174 347.995 174C347.075 174 346.295 174.02 345.655 174.06L345.715 173.48C345.995 173.453 346.295 173.4 346.615 173.32C346.935 173.227 347.102 173.133 347.115 173.04C347.222 172.573 347.275 171.64 347.275 170.24C347.275 167.973 347.222 166.587 347.115 166.08L345.835 165.7L345.795 165.18C346.648 165.18 347.528 165.06 348.435 164.82L348.815 165ZM360.723 173.26C361.683 173.26 362.443 172.873 363.003 172.1C363.563 171.313 363.843 170.433 363.843 169.46C363.843 168.473 363.603 167.653 363.123 167C362.643 166.347 361.969 166.02 361.103 166.02C360.449 166.02 359.703 166.233 358.863 166.66C358.863 169.873 358.923 171.96 359.043 172.92C359.629 173.147 360.189 173.26 360.723 173.26ZM358.863 165.96C359.969 165.2 361.036 164.82 362.063 164.82C363.103 164.82 363.956 165.273 364.623 166.18C365.289 167.073 365.623 168.153 365.623 169.42C365.623 170.687 365.189 171.8 364.323 172.76C363.456 173.72 362.189 174.2 360.523 174.2C359.416 174.2 358.309 173.967 357.203 173.5C357.309 172.327 357.363 170.507 357.363 168.04C357.363 164.027 357.323 161.68 357.243 161L357.203 160.66L355.923 160.28L355.883 159.76C356.736 159.76 357.616 159.64 358.523 159.4L358.903 159.58C358.876 161.06 358.863 163.187 358.863 165.96ZM371.785 165.78C371.239 165.78 370.765 165.92 370.365 166.2C369.965 166.467 369.672 166.807 369.485 167.22C369.125 167.98 368.945 168.707 368.945 169.4C368.945 170.493 369.165 171.407 369.605 172.14C370.045 172.86 370.739 173.22 371.685 173.22C372.192 173.22 372.639 173.107 373.025 172.88C373.412 172.64 373.705 172.333 373.905 171.96C374.292 171.267 374.499 170.573 374.525 169.88C374.525 167.147 373.612 165.78 371.785 165.78ZM371.885 164.8C373.405 164.8 374.512 165.187 375.205 165.96C375.899 166.733 376.245 167.813 376.245 169.2C376.245 170.573 375.845 171.747 375.045 172.72C374.259 173.693 373.105 174.18 371.585 174.18C370.065 174.18 368.959 173.8 368.265 173.04C367.572 172.267 367.225 171.193 367.225 169.82C367.225 168.447 367.619 167.267 368.405 166.28C369.205 165.293 370.365 164.8 371.885 164.8ZM380.531 159.58C380.505 161.247 380.491 163.687 380.491 166.9C380.491 170.113 380.565 172.16 380.711 173.04C380.725 173.133 380.898 173.227 381.231 173.32C381.565 173.413 381.858 173.467 382.111 173.48L382.051 174.06C381.411 174.02 380.638 174 379.731 174C378.825 174 378.051 174.02 377.411 174.06L377.471 173.48C377.751 173.453 378.045 173.4 378.351 173.32C378.671 173.227 378.838 173.133 378.851 173.04C378.945 172.173 378.991 170.507 378.991 168.04C378.991 164.027 378.951 161.68 378.871 161L378.831 160.66L377.551 160.28L377.511 159.76C378.365 159.76 379.245 159.64 380.151 159.4L380.531 159.58ZM390.02 172.88C389.1 173.747 388.094 174.18 387 174.18C385.907 174.18 385.007 173.787 384.3 173C383.607 172.2 383.26 171.067 383.26 169.6C383.26 168.12 383.674 166.947 384.5 166.08C385.34 165.213 386.374 164.78 387.6 164.78C388.267 164.78 389.067 165.013 390 165.48C390 163.013 389.96 161.5 389.88 160.94L389.84 160.66L388.56 160.28L388.52 159.76C389.374 159.76 390.254 159.64 391.16 159.4L391.54 159.58C391.514 161.247 391.5 163.607 391.5 166.66C391.5 169.713 391.514 171.46 391.54 171.9C391.567 172.34 391.62 172.62 391.7 172.74C391.794 172.847 391.927 172.927 392.1 172.98C392.38 173.06 392.707 173.113 393.08 173.14L393.02 173.72C392.54 173.76 391.814 173.88 390.84 174.08C390.44 173.907 390.167 173.507 390.02 172.88ZM388.12 166C387.067 166 386.287 166.347 385.78 167.04C385.287 167.72 385.04 168.567 385.04 169.58C385.04 170.593 385.26 171.407 385.7 172.02C386.14 172.62 386.767 172.92 387.58 172.92C388.394 172.92 389.167 172.687 389.9 172.22C389.967 171.153 390 169.2 390 166.36C389.307 166.12 388.68 166 388.12 166ZM403.019 168.18C403.019 165.38 401.999 162.78 399.959 160.38L400.579 159.82C403.459 162.167 404.899 164.953 404.899 168.18C404.899 169.66 404.559 171.173 403.879 172.72C403.213 174.253 402.113 175.647 400.579 176.9L399.959 176.32C400.973 175.147 401.733 173.84 402.239 172.4C402.759 170.96 403.019 169.553 403.019 168.18Z" fill="black"/>
<path d="M542.335 137.68C542.229 138.467 542.175 139.893 542.175 141.96C542.175 145.307 542.215 147.387 542.295 148.2L542.335 148.62C542.362 148.86 542.489 149.033 542.715 149.14C542.942 149.233 543.382 149.347 544.035 149.48L543.975 150.06C543.135 150.02 542.222 150 541.235 150C540.249 150 539.335 150.02 538.495 150.06L538.435 149.48C539.115 149.347 539.575 149.227 539.815 149.12C540.055 149.013 540.189 148.847 540.215 148.62C540.322 147.833 540.375 146.407 540.375 144.34C540.375 140.993 540.335 138.907 540.255 138.08L540.215 137.68C540.189 137.44 540.069 137.273 539.855 137.18C539.642 137.073 539.215 136.953 538.575 136.82L538.635 136.24C539.475 136.28 540.355 136.3 541.275 136.3C542.195 136.3 543.075 136.28 543.915 136.24L543.975 136.82C543.335 136.953 542.909 137.073 542.695 137.18C542.482 137.273 542.362 137.44 542.335 137.68ZM548.151 142.66L548.131 145.42C548.131 147.14 548.185 148.26 548.291 148.78L548.331 149.04C548.345 149.133 548.491 149.227 548.771 149.32C549.065 149.4 549.345 149.453 549.611 149.48L549.551 150.06C548.911 150.02 548.178 150 547.351 150C546.525 150 545.791 150.02 545.151 150.06L545.211 149.48C545.465 149.453 545.731 149.4 546.011 149.32C546.305 149.227 546.458 149.133 546.471 149.04C546.578 148.573 546.631 147.64 546.631 146.24C546.631 143.973 546.578 142.587 546.471 142.08L545.191 141.7L545.151 141.18C546.005 141.18 546.885 141.06 547.791 140.82L548.171 141V141.96C549.651 141.187 550.938 140.8 552.031 140.8C552.698 140.8 553.205 140.933 553.551 141.2C553.898 141.467 554.071 141.967 554.071 142.7V145.42C554.071 147.14 554.118 148.26 554.211 148.78L554.271 149.04C554.285 149.133 554.431 149.227 554.711 149.32C555.005 149.4 555.285 149.453 555.551 149.48L555.491 150.06C554.851 150.02 554.118 150 553.291 150C552.465 150 551.731 150.02 551.091 150.06L551.151 149.48C551.405 149.453 551.671 149.4 551.951 149.32C552.245 149.227 552.398 149.133 552.411 149.04C552.518 148.573 552.571 147.367 552.571 145.42V143.48C552.571 142.96 552.418 142.6 552.111 142.4C551.805 142.2 551.285 142.1 550.551 142.1C549.818 142.1 549.018 142.287 548.151 142.66ZM559.783 150.18C558.396 150.18 557.703 149.513 557.703 148.18C557.716 147.007 557.723 145.933 557.723 144.96C557.723 143.973 557.709 142.947 557.683 141.88L556.403 141.9L556.343 141.68L556.803 140.9C556.989 140.94 557.269 140.967 557.643 140.98L557.563 139.14L558.883 137.96L559.263 138.14C559.236 139.127 559.223 140.067 559.223 140.96L562.163 140.94L562.263 141.18L561.543 141.98C561.089 141.927 560.316 141.893 559.223 141.88V144.56C559.223 146.227 559.243 147.42 559.283 148.14C559.323 148.74 559.676 149.04 560.343 149.04C560.876 149.04 561.463 148.887 562.103 148.58L562.343 149.24C561.396 149.867 560.543 150.18 559.783 150.18ZM569.186 143.6C569.186 142.987 569.012 142.533 568.666 142.24C568.319 141.933 567.932 141.78 567.506 141.78C566.879 141.78 566.339 142.027 565.886 142.52C565.432 143.013 565.132 143.62 564.986 144.34L569.126 144.18C569.166 143.98 569.186 143.787 569.186 143.6ZM567.446 150.18C566.032 150.18 564.966 149.78 564.246 148.98C563.526 148.167 563.166 147.093 563.166 145.76C563.166 144.413 563.559 143.253 564.346 142.28C565.146 141.293 566.346 140.8 567.946 140.8C568.759 140.8 569.466 141.087 570.066 141.66C570.679 142.233 570.986 143.087 570.986 144.22L570.306 145.04C570.226 145.027 569.592 145.02 568.406 145.02C567.232 145.02 566.052 145.067 564.866 145.16V145.34C564.866 146.553 565.119 147.467 565.626 148.08C566.132 148.68 566.826 148.98 567.706 148.98C568.586 148.98 569.512 148.767 570.486 148.34L570.726 148.94C569.699 149.767 568.606 150.18 567.446 150.18ZM577.985 140.68C578.092 140.68 578.265 140.84 578.505 141.16C578.759 141.467 578.925 141.773 579.005 142.08L578.705 142.46C578.225 142.273 577.725 142.18 577.205 142.18C576.685 142.18 576.212 142.4 575.785 142.84C575.359 143.267 575.145 143.96 575.145 144.92C575.159 147.267 575.219 148.633 575.325 149.02C575.339 149.127 575.525 149.227 575.885 149.32C576.259 149.4 576.645 149.453 577.045 149.48L576.985 150.06C576.345 150.02 575.532 150 574.545 150C573.572 150 572.765 150.02 572.125 150.06L572.185 149.48C572.452 149.453 572.732 149.4 573.025 149.32C573.319 149.227 573.472 149.133 573.485 149.04C573.592 148.573 573.645 147.64 573.645 146.24C573.645 143.973 573.592 142.587 573.485 142.08L572.205 141.7L572.165 141.18C573.019 141.18 573.899 141.06 574.805 140.82L575.185 141C575.159 141.2 575.145 141.747 575.145 142.64C575.532 142 576.019 141.513 576.605 141.18C577.205 140.847 577.665 140.68 577.985 140.68ZM513.792 168.18C513.792 169.553 514.045 170.96 514.552 172.4C515.072 173.84 515.838 175.147 516.852 176.32L516.232 176.9C514.698 175.647 513.592 174.253 512.912 172.72C512.245 171.173 511.912 169.66 511.912 168.18C511.912 164.953 513.352 162.167 516.232 159.82L516.852 160.38C514.812 162.78 513.792 165.38 513.792 168.18ZM532.641 169.42C532.641 171.14 532.688 172.26 532.781 172.78L532.841 173.04C532.854 173.133 533.001 173.227 533.281 173.32C533.574 173.4 533.854 173.453 534.121 173.48L534.061 174.06C533.421 174.02 532.688 174 531.861 174C531.034 174 530.301 174.02 529.661 174.06L529.721 173.48C529.974 173.453 530.241 173.4 530.521 173.32C530.814 173.227 530.968 173.133 530.981 173.04C531.088 172.573 531.141 171.367 531.141 169.42V167.48C531.141 166.96 530.988 166.6 530.681 166.4C530.374 166.2 530.008 166.1 529.581 166.1C529.154 166.1 528.821 166.12 528.581 166.16C528.341 166.187 528.128 166.227 527.941 166.28C527.688 166.347 527.341 166.473 526.901 166.66V169.42C526.901 171.073 526.954 172.193 527.061 172.78L527.121 173.04C527.134 173.133 527.281 173.227 527.561 173.32C527.854 173.4 528.134 173.453 528.401 173.48L528.341 174.06C527.701 174.02 526.968 174 526.141 174C525.314 174 524.581 174.02 523.941 174.06L524.001 173.48C524.254 173.453 524.521 173.4 524.801 173.32C525.094 173.227 525.248 173.133 525.261 173.04C525.354 172.573 525.401 171.64 525.401 170.24C525.401 167.973 525.348 166.587 525.241 166.08L523.961 165.7L523.921 165.18C524.774 165.18 525.654 165.06 526.561 164.82L526.941 165C526.928 165.333 526.921 165.653 526.921 165.96C528.401 165.187 529.661 164.8 530.701 164.8C531.741 164.8 532.361 165.193 532.561 165.98C533.961 165.193 535.228 164.8 536.361 164.8C537.028 164.8 537.534 164.933 537.881 165.2C538.228 165.467 538.401 165.967 538.401 166.7V169.42C538.401 171.14 538.448 172.26 538.541 172.78L538.601 173.04C538.614 173.133 538.761 173.227 539.041 173.32C539.334 173.4 539.614 173.453 539.881 173.48L539.821 174.06C539.181 174.02 538.448 174 537.621 174C536.794 174 536.061 174.02 535.421 174.06L535.481 173.48C535.734 173.453 536.001 173.4 536.281 173.32C536.574 173.227 536.728 173.133 536.741 173.04C536.848 172.573 536.901 171.367 536.901 169.42V167.48C536.901 166.96 536.748 166.6 536.441 166.4C536.134 166.2 535.588 166.1 534.801 166.1C534.028 166.1 533.308 166.287 532.641 166.66V169.42ZM546.979 167.6C546.979 166.987 546.805 166.533 546.459 166.24C546.112 165.933 545.725 165.78 545.299 165.78C544.672 165.78 544.132 166.027 543.679 166.52C543.225 167.013 542.925 167.62 542.779 168.34L546.919 168.18C546.959 167.98 546.979 167.787 546.979 167.6ZM545.239 174.18C543.825 174.18 542.759 173.78 542.039 172.98C541.319 172.167 540.959 171.093 540.959 169.76C540.959 168.413 541.352 167.253 542.139 166.28C542.939 165.293 544.139 164.8 545.739 164.8C546.552 164.8 547.259 165.087 547.859 165.66C548.472 166.233 548.779 167.087 548.779 168.22L548.099 169.04C548.019 169.027 547.385 169.02 546.199 169.02C545.025 169.02 543.845 169.067 542.659 169.16V169.34C542.659 170.553 542.912 171.467 543.419 172.08C543.925 172.68 544.619 172.98 545.499 172.98C546.379 172.98 547.305 172.767 548.279 172.34L548.519 172.94C547.492 173.767 546.399 174.18 545.239 174.18ZM556.938 172.88C556.018 173.747 555.012 174.18 553.918 174.18C552.825 174.18 551.925 173.787 551.218 173C550.525 172.2 550.178 171.067 550.178 169.6C550.178 168.12 550.592 166.947 551.418 166.08C552.258 165.213 553.292 164.78 554.518 164.78C555.185 164.78 555.985 165.013 556.918 165.48C556.918 163.013 556.878 161.5 556.798 160.94L556.758 160.66L555.478 160.28L555.438 159.76C556.292 159.76 557.172 159.64 558.078 159.4L558.458 159.58C558.432 161.247 558.418 163.607 558.418 166.66C558.418 169.713 558.432 171.46 558.458 171.9C558.485 172.34 558.538 172.62 558.618 172.74C558.712 172.847 558.845 172.927 559.018 172.98C559.298 173.06 559.625 173.113 559.998 173.14L559.938 173.72C559.458 173.76 558.732 173.88 557.758 174.08C557.358 173.907 557.085 173.507 556.938 172.88ZM555.038 166C553.985 166 553.205 166.347 552.698 167.04C552.205 167.72 551.958 168.567 551.958 169.58C551.958 170.593 552.178 171.407 552.618 172.02C553.058 172.62 553.685 172.92 554.498 172.92C555.312 172.92 556.085 172.687 556.818 172.22C556.885 171.153 556.918 169.2 556.918 166.36C556.225 166.12 555.598 166 555.038 166ZM563.797 162.44C563.597 162.64 563.351 162.74 563.057 162.74C562.764 162.74 562.517 162.64 562.317 162.44C562.117 162.227 562.017 161.973 562.017 161.68C562.017 161.373 562.117 161.12 562.317 160.92C562.517 160.72 562.764 160.62 563.057 160.62C563.351 160.62 563.597 160.72 563.797 160.92C563.997 161.12 564.097 161.373 564.097 161.68C564.097 161.973 563.997 162.227 563.797 162.44ZM563.877 165L563.837 169.42C563.837 171.14 563.891 172.26 563.997 172.78L564.037 173.04C564.051 173.133 564.217 173.227 564.537 173.32C564.871 173.4 565.177 173.453 565.457 173.48L565.397 174.06C564.757 174.02 563.977 174 563.057 174C562.137 174 561.357 174.02 560.717 174.06L560.777 173.48C561.057 173.453 561.357 173.4 561.677 173.32C561.997 173.227 562.164 173.133 562.177 173.04C562.284 172.573 562.337 171.64 562.337 170.24C562.337 167.973 562.284 166.587 562.177 166.08L560.897 165.7L560.857 165.18C561.711 165.18 562.591 165.06 563.497 164.82L563.877 165ZM569.525 174.18C568.165 174.18 567.485 173.487 567.485 172.1V169.42C567.485 167.633 567.438 166.52 567.345 166.08L566.165 165.7L566.125 165.18C566.912 165.18 567.758 165.06 568.665 164.82L569.045 165C569.005 167.387 568.985 169.553 568.985 171.5C568.985 172.393 569.525 172.84 570.605 172.84C571.058 172.84 571.545 172.767 572.065 172.62C572.585 172.46 572.998 172.287 573.305 172.1C573.358 171.38 573.385 170.533 573.385 169.56C573.385 167.747 573.332 166.587 573.225 166.08L571.965 165.7L571.925 165.18C572.778 165.18 573.658 165.06 574.565 164.82L574.945 165C574.905 166 574.885 167.653 574.885 169.96L574.945 172.3C574.945 172.527 575.032 172.707 575.205 172.84C575.392 172.96 575.572 173.04 575.745 173.08C575.918 173.107 576.158 173.127 576.465 173.14L576.405 173.72C575.925 173.76 575.198 173.88 574.225 174.08C573.825 173.907 573.552 173.507 573.405 172.88C572.125 173.747 570.832 174.18 569.525 174.18ZM585.961 169.42C585.961 171.14 586.008 172.26 586.101 172.78L586.161 173.04C586.175 173.133 586.321 173.227 586.601 173.32C586.895 173.4 587.175 173.453 587.441 173.48L587.381 174.06C586.741 174.02 586.008 174 585.181 174C584.355 174 583.621 174.02 582.981 174.06L583.041 173.48C583.295 173.453 583.561 173.4 583.841 173.32C584.135 173.227 584.288 173.133 584.301 173.04C584.408 172.573 584.461 171.367 584.461 169.42V167.48C584.461 166.96 584.308 166.6 584.001 166.4C583.695 166.2 583.328 166.1 582.901 166.1C582.475 166.1 582.141 166.12 581.901 166.16C581.661 166.187 581.448 166.227 581.261 166.28C581.008 166.347 580.661 166.473 580.221 166.66V169.42C580.221 171.073 580.275 172.193 580.381 172.78L580.441 173.04C580.455 173.133 580.601 173.227 580.881 173.32C581.175 173.4 581.455 173.453 581.721 173.48L581.661 174.06C581.021 174.02 580.288 174 579.461 174C578.635 174 577.901 174.02 577.261 174.06L577.321 173.48C577.575 173.453 577.841 173.4 578.121 173.32C578.415 173.227 578.568 173.133 578.581 173.04C578.675 172.573 578.721 171.64 578.721 170.24C578.721 167.973 578.668 166.587 578.561 166.08L577.281 165.7L577.241 165.18C578.095 165.18 578.975 165.06 579.881 164.82L580.261 165C580.248 165.333 580.241 165.653 580.241 165.96C581.721 165.187 582.981 164.8 584.021 164.8C585.061 164.8 585.681 165.193 585.881 165.98C587.281 165.193 588.548 164.8 589.681 164.8C590.348 164.8 590.855 164.933 591.201 165.2C591.548 165.467 591.721 165.967 591.721 166.7V169.42C591.721 171.14 591.768 172.26 591.861 172.78L591.921 173.04C591.935 173.133 592.081 173.227 592.361 173.32C592.655 173.4 592.935 173.453 593.201 173.48L593.141 174.06C592.501 174.02 591.768 174 590.941 174C590.115 174 589.381 174.02 588.741 174.06L588.801 173.48C589.055 173.453 589.321 173.4 589.601 173.32C589.895 173.227 590.048 173.133 590.061 173.04C590.168 172.573 590.221 171.367 590.221 169.42V167.48C590.221 166.96 590.068 166.6 589.761 166.4C589.455 166.2 588.908 166.1 588.121 166.1C587.348 166.1 586.628 166.287 585.961 166.66V169.42ZM603.199 168.18C603.199 165.38 602.179 162.78 600.139 160.38L600.759 159.82C603.639 162.167 605.079 164.953 605.079 168.18C605.079 169.66 604.739 171.173 604.059 172.72C603.392 174.253 602.292 175.647 600.759 176.9L600.139 176.32C601.152 175.147 601.912 173.84 602.419 172.4C602.939 170.96 603.199 169.553 603.199 168.18Z" fill="black"/>
<path d="M754.335 137.68C754.229 138.467 754.175 139.893 754.175 141.96C754.175 145.307 754.215 147.387 754.295 148.2L754.335 148.62C754.362 148.86 754.489 149.033 754.715 149.14C754.942 149.233 755.382 149.347 756.035 149.48L755.975 150.06C755.135 150.02 754.222 150 753.235 150C752.249 150 751.335 150.02 750.495 150.06L750.435 149.48C751.115 149.347 751.575 149.227 751.815 149.12C752.055 149.013 752.189 148.847 752.215 148.62C752.322 147.833 752.375 146.407 752.375 144.34C752.375 140.993 752.335 138.907 752.255 138.08L752.215 137.68C752.189 137.44 752.069 137.273 751.855 137.18C751.642 137.073 751.215 136.953 750.575 136.82L750.635 136.24C751.475 136.28 752.355 136.3 753.275 136.3C754.195 136.3 755.075 136.28 755.915 136.24L755.975 136.82C755.335 136.953 754.909 137.073 754.695 137.18C754.482 137.273 754.362 137.44 754.335 137.68ZM760.151 142.66L760.131 145.42C760.131 147.14 760.185 148.26 760.291 148.78L760.331 149.04C760.345 149.133 760.491 149.227 760.771 149.32C761.065 149.4 761.345 149.453 761.611 149.48L761.551 150.06C760.911 150.02 760.178 150 759.351 150C758.525 150 757.791 150.02 757.151 150.06L757.211 149.48C757.465 149.453 757.731 149.4 758.011 149.32C758.305 149.227 758.458 149.133 758.471 149.04C758.578 148.573 758.631 147.64 758.631 146.24C758.631 143.973 758.578 142.587 758.471 142.08L757.191 141.7L757.151 141.18C758.005 141.18 758.885 141.06 759.791 140.82L760.171 141V141.96C761.651 141.187 762.938 140.8 764.031 140.8C764.698 140.8 765.205 140.933 765.551 141.2C765.898 141.467 766.071 141.967 766.071 142.7V145.42C766.071 147.14 766.118 148.26 766.211 148.78L766.271 149.04C766.285 149.133 766.431 149.227 766.711 149.32C767.005 149.4 767.285 149.453 767.551 149.48L767.491 150.06C766.851 150.02 766.118 150 765.291 150C764.465 150 763.731 150.02 763.091 150.06L763.151 149.48C763.405 149.453 763.671 149.4 763.951 149.32C764.245 149.227 764.398 149.133 764.411 149.04C764.518 148.573 764.571 147.367 764.571 145.42V143.48C764.571 142.96 764.418 142.6 764.111 142.4C763.805 142.2 763.285 142.1 762.551 142.1C761.818 142.1 761.018 142.287 760.151 142.66ZM771.783 150.18C770.396 150.18 769.703 149.513 769.703 148.18C769.716 147.007 769.723 145.933 769.723 144.96C769.723 143.973 769.709 142.947 769.683 141.88L768.403 141.9L768.343 141.68L768.803 140.9C768.989 140.94 769.269 140.967 769.643 140.98L769.563 139.14L770.883 137.96L771.263 138.14C771.236 139.127 771.223 140.067 771.223 140.96L774.163 140.94L774.263 141.18L773.543 141.98C773.089 141.927 772.316 141.893 771.223 141.88V144.56C771.223 146.227 771.243 147.42 771.283 148.14C771.323 148.74 771.676 149.04 772.343 149.04C772.876 149.04 773.463 148.887 774.103 148.58L774.343 149.24C773.396 149.867 772.543 150.18 771.783 150.18ZM781.186 143.6C781.186 142.987 781.012 142.533 780.666 142.24C780.319 141.933 779.932 141.78 779.506 141.78C778.879 141.78 778.339 142.027 777.886 142.52C777.432 143.013 777.132 143.62 776.986 144.34L781.126 144.18C781.166 143.98 781.186 143.787 781.186 143.6ZM779.446 150.18C778.032 150.18 776.966 149.78 776.246 148.98C775.526 148.167 775.166 147.093 775.166 145.76C775.166 144.413 775.559 143.253 776.346 142.28C777.146 141.293 778.346 140.8 779.946 140.8C780.759 140.8 781.466 141.087 782.066 141.66C782.679 142.233 782.986 143.087 782.986 144.22L782.306 145.04C782.226 145.027 781.592 145.02 780.406 145.02C779.232 145.02 778.052 145.067 776.866 145.16V145.34C776.866 146.553 777.119 147.467 777.626 148.08C778.132 148.68 778.826 148.98 779.706 148.98C780.586 148.98 781.512 148.767 782.486 148.34L782.726 148.94C781.699 149.767 780.606 150.18 779.446 150.18ZM789.985 140.68C790.092 140.68 790.265 140.84 790.505 141.16C790.759 141.467 790.925 141.773 791.005 142.08L790.705 142.46C790.225 142.273 789.725 142.18 789.205 142.18C788.685 142.18 788.212 142.4 787.785 142.84C787.359 143.267 787.145 143.96 787.145 144.92C787.159 147.267 787.219 148.633 787.325 149.02C787.339 149.127 787.525 149.227 787.885 149.32C788.259 149.4 788.645 149.453 789.045 149.48L788.985 150.06C788.345 150.02 787.532 150 786.545 150C785.572 150 784.765 150.02 784.125 150.06L784.185 149.48C784.452 149.453 784.732 149.4 785.025 149.32C785.319 149.227 785.472 149.133 785.485 149.04C785.592 148.573 785.645 147.64 785.645 146.24C785.645 143.973 785.592 142.587 785.485 142.08L784.205 141.7L784.165 141.18C785.019 141.18 785.899 141.06 786.805 140.82L787.185 141C787.159 141.2 787.145 141.747 787.145 142.64C787.532 142 788.019 141.513 788.605 141.18C789.205 140.847 789.665 140.68 789.985 140.68ZM731.26 168.18C731.26 169.553 731.514 170.96 732.02 172.4C732.54 173.84 733.307 175.147 734.32 176.32L733.7 176.9C732.167 175.647 731.06 174.253 730.38 172.72C729.714 171.173 729.38 169.66 729.38 168.18C729.38 164.953 730.82 162.167 733.7 159.82L734.32 160.38C732.28 162.78 731.26 165.38 731.26 168.18ZM747.31 164.68C747.416 164.68 747.59 164.84 747.83 165.16C748.083 165.467 748.25 165.773 748.33 166.08L748.03 166.46C747.55 166.273 747.05 166.18 746.53 166.18C746.01 166.18 745.536 166.4 745.11 166.84C744.683 167.267 744.47 167.96 744.47 168.92C744.483 171.267 744.543 172.633 744.65 173.02C744.663 173.127 744.85 173.227 745.21 173.32C745.583 173.4 745.97 173.453 746.37 173.48L746.31 174.06C745.67 174.02 744.856 174 743.87 174C742.896 174 742.09 174.02 741.45 174.06L741.51 173.48C741.776 173.453 742.056 173.4 742.35 173.32C742.643 173.227 742.796 173.133 742.81 173.04C742.916 172.573 742.97 171.64 742.97 170.24C742.97 167.973 742.916 166.587 742.81 166.08L741.53 165.7L741.49 165.18C742.343 165.18 743.223 165.06 744.13 164.82L744.51 165C744.483 165.2 744.47 165.747 744.47 166.64C744.856 166 745.343 165.513 745.93 165.18C746.53 164.847 746.99 164.68 747.31 164.68ZM754.721 167.6C754.721 166.987 754.548 166.533 754.201 166.24C753.854 165.933 753.468 165.78 753.041 165.78C752.414 165.78 751.874 166.027 751.421 166.52C750.968 167.013 750.668 167.62 750.521 168.34L754.661 168.18C754.701 167.98 754.721 167.787 754.721 167.6ZM752.981 174.18C751.568 174.18 750.501 173.78 749.781 172.98C749.061 172.167 748.701 171.093 748.701 169.76C748.701 168.413 749.094 167.253 749.881 166.28C750.681 165.293 751.881 164.8 753.481 164.8C754.294 164.8 755.001 165.087 755.601 165.66C756.214 166.233 756.521 167.087 756.521 168.22L755.841 169.04C755.761 169.027 755.128 169.02 753.941 169.02C752.768 169.02 751.588 169.067 750.401 169.16V169.34C750.401 170.553 750.654 171.467 751.161 172.08C751.668 172.68 752.361 172.98 753.241 172.98C754.121 172.98 755.048 172.767 756.021 172.34L756.261 172.94C755.234 173.767 754.141 174.18 752.981 174.18ZM765.821 164.08C765.927 164.08 766.101 164.24 766.341 164.56C766.594 164.867 766.761 165.173 766.841 165.48L766.541 165.86C766.301 165.74 766.014 165.68 765.681 165.68C765.347 165.68 765.034 165.753 764.741 165.9C765.207 166.473 765.441 167.227 765.441 168.16C765.441 169.093 765.134 169.893 764.521 170.56C763.907 171.213 763.001 171.54 761.801 171.54C761.494 171.54 761.201 171.52 760.921 171.48C760.427 172.12 760.181 172.56 760.181 172.8C760.181 173.107 760.614 173.26 761.481 173.26H762.981C765.501 173.26 766.761 174.073 766.761 175.7C766.761 176.607 766.254 177.427 765.241 178.16C764.241 178.893 762.894 179.26 761.201 179.26C760.214 179.26 759.361 179.093 758.641 178.76C757.921 178.44 757.561 177.98 757.561 177.38C757.561 176.527 758.247 175.547 759.621 174.44C758.781 174.253 758.361 173.933 758.361 173.48C758.361 173.027 758.961 172.313 760.161 171.34C758.814 170.913 758.141 169.84 758.141 168.12C758.141 167.24 758.447 166.473 759.061 165.82C759.687 165.153 760.561 164.82 761.681 164.82C762.814 164.82 763.661 165.02 764.221 165.42C764.381 165.167 764.627 164.88 764.961 164.56C765.294 164.24 765.581 164.08 765.821 164.08ZM759.241 176.72C759.241 177.24 759.434 177.66 759.821 177.98C760.207 178.3 760.841 178.46 761.721 178.46C762.601 178.46 763.381 178.18 764.061 177.62C764.741 177.073 765.081 176.487 765.081 175.86C765.081 175.46 764.907 175.133 764.561 174.88C764.214 174.627 763.674 174.5 762.941 174.5H760.241C759.574 175.247 759.241 175.987 759.241 176.72ZM761.821 165.64C761.434 165.64 761.094 165.733 760.801 165.92C760.521 166.093 760.314 166.32 760.181 166.6C759.954 167.133 759.841 167.7 759.841 168.3C759.841 168.9 759.987 169.453 760.281 169.96C760.587 170.467 761.074 170.72 761.741 170.72C762.221 170.72 762.614 170.58 762.921 170.3C763.241 170.007 763.447 169.707 763.541 169.4C763.647 169.093 763.707 168.773 763.721 168.44C763.721 166.573 763.087 165.64 761.821 165.64ZM770.685 174.18C769.325 174.18 768.645 173.487 768.645 172.1V169.42C768.645 167.633 768.599 166.52 768.505 166.08L767.325 165.7L767.285 165.18C768.072 165.18 768.919 165.06 769.825 164.82L770.205 165C770.165 167.387 770.145 169.553 770.145 171.5C770.145 172.393 770.685 172.84 771.765 172.84C772.219 172.84 772.705 172.767 773.225 172.62C773.745 172.46 774.159 172.287 774.465 172.1C774.519 171.38 774.545 170.533 774.545 169.56C774.545 167.747 774.492 166.587 774.385 166.08L773.125 165.7L773.085 165.18C773.939 165.18 774.819 165.06 775.725 164.82L776.105 165C776.065 166 776.045 167.653 776.045 169.96L776.105 172.3C776.105 172.527 776.192 172.707 776.365 172.84C776.552 172.96 776.732 173.04 776.905 173.08C777.079 173.107 777.319 173.127 777.625 173.14L777.565 173.72C777.085 173.76 776.359 173.88 775.385 174.08C774.985 173.907 774.712 173.507 774.565 172.88C773.285 173.747 771.992 174.18 770.685 174.18ZM781.441 159.58C781.415 161.247 781.401 163.687 781.401 166.9C781.401 170.113 781.475 172.16 781.621 173.04C781.635 173.133 781.808 173.227 782.141 173.32C782.475 173.413 782.768 173.467 783.021 173.48L782.961 174.06C782.321 174.02 781.548 174 780.641 174C779.735 174 778.961 174.02 778.321 174.06L778.381 173.48C778.661 173.453 778.955 173.4 779.261 173.32C779.581 173.227 779.748 173.133 779.761 173.04C779.855 172.173 779.901 170.507 779.901 168.04C779.901 164.027 779.861 161.68 779.781 161L779.741 160.66L778.461 160.28L778.421 159.76C779.275 159.76 780.155 159.64 781.061 159.4L781.441 159.58ZM789.211 169.8C788.117 169.827 787.284 170.033 786.711 170.42C786.137 170.807 785.851 171.227 785.851 171.68C785.851 172.133 785.964 172.467 786.191 172.68C786.431 172.88 786.811 172.98 787.331 172.98C787.851 172.98 788.477 172.76 789.211 172.32V169.8ZM790.671 174.18C789.871 174.18 789.404 173.747 789.271 172.88C788.097 173.747 787.084 174.18 786.231 174.18C785.657 174.18 785.171 174.007 784.771 173.66C784.371 173.3 784.171 172.747 784.171 172C784.171 171.253 784.564 170.58 785.351 169.98C786.151 169.38 787.437 169.02 789.211 168.9V167.04C789.211 166.667 789.071 166.38 788.791 166.18C788.524 165.98 788.144 165.88 787.651 165.88C787.157 165.88 786.764 166.02 786.471 166.3C786.177 166.567 786.031 166.913 786.031 167.34C786.031 167.5 786.051 167.68 786.091 167.88L785.651 168.08C785.384 167.933 785.131 167.733 784.891 167.48C784.664 167.227 784.551 167.047 784.551 166.94C784.551 166.82 784.637 166.653 784.811 166.44C784.997 166.213 785.244 165.973 785.551 165.72C785.857 165.467 786.264 165.253 786.771 165.08C787.291 164.893 787.871 164.8 788.511 164.8C789.151 164.8 789.671 164.96 790.071 165.28C790.471 165.587 790.671 166.153 790.671 166.98C790.671 167.793 790.711 169.52 790.791 172.16C790.804 172.8 791.044 173.12 791.511 173.12C791.711 173.12 791.917 173.067 792.131 172.96L792.331 173.48C791.824 173.947 791.271 174.18 790.671 174.18ZM798.911 164.68C799.018 164.68 799.191 164.84 799.431 165.16C799.685 165.467 799.851 165.773 799.931 166.08L799.631 166.46C799.151 166.273 798.651 166.18 798.131 166.18C797.611 166.18 797.138 166.4 796.711 166.84C796.285 167.267 796.071 167.96 796.071 168.92C796.085 171.267 796.145 172.633 796.251 173.02C796.265 173.127 796.451 173.227 796.811 173.32C797.185 173.4 797.571 173.453 797.971 173.48L797.911 174.06C797.271 174.02 796.458 174 795.471 174C794.498 174 793.691 174.02 793.051 174.06L793.111 173.48C793.378 173.453 793.658 173.4 793.951 173.32C794.245 173.227 794.398 173.133 794.411 173.04C794.518 172.573 794.571 171.64 794.571 170.24C794.571 167.973 794.518 166.587 794.411 166.08L793.131 165.7L793.091 165.18C793.945 165.18 794.825 165.06 795.731 164.82L796.111 165C796.085 165.2 796.071 165.747 796.071 166.64C796.458 166 796.945 165.513 797.531 165.18C798.131 164.847 798.591 164.68 798.911 164.68ZM809.73 168.18C809.73 165.38 808.71 162.78 806.67 160.38L807.29 159.82C810.17 162.167 811.61 164.953 811.61 168.18C811.61 169.66 811.27 171.173 810.59 172.72C809.924 174.253 808.824 175.647 807.29 176.9L806.67 176.32C807.684 175.147 808.444 173.84 808.95 172.4C809.47 170.96 809.73 169.553 809.73 168.18Z" fill="black"/>
<line x1="453.5" y1="169" x2="453.5" y2="44" stroke="black"/>
<line x1="663.5" y1="169" x2="663.5" y2="44" stroke="black"/>
<path d="M298.513 108H284.45L310.054 35.2727H326.318L351.957 108H337.895L318.47 50.1875H317.902L298.513 108ZM298.974 79.4844H337.327V90.0668H298.974V79.4844ZM376.664 109.101C373.208 109.101 370.095 108.485 367.325 107.254C364.579 106 362.401 104.153 360.791 101.714C359.205 99.276 358.412 96.2694 358.412 92.6946C358.412 89.617 358.98 87.072 360.116 85.0597C361.252 83.0473 362.803 81.4375 364.768 80.2301C366.733 79.0227 368.947 78.1113 371.409 77.4957C373.895 76.8565 376.463 76.3949 379.115 76.1108C382.311 75.7794 384.903 75.4834 386.892 75.223C388.88 74.9389 390.324 74.5128 391.224 73.9446C392.147 73.3527 392.609 72.4413 392.609 71.2102V70.9972C392.609 68.322 391.816 66.2505 390.23 64.7827C388.644 63.3149 386.359 62.581 383.376 62.581C380.227 62.581 377.73 63.2675 375.883 64.6406C374.06 66.0137 372.829 67.6354 372.19 69.5057L360.187 67.8011C361.134 64.4867 362.697 61.7169 364.875 59.4915C367.053 57.2424 369.716 55.5616 372.865 54.4489C376.013 53.3125 379.493 52.7443 383.305 52.7443C385.933 52.7443 388.549 53.0521 391.153 53.6676C393.757 54.2831 396.136 55.3011 398.291 56.7216C400.445 58.1184 402.173 60.0241 403.475 62.4389C404.801 64.8537 405.464 67.8722 405.464 71.4943V108H393.106V100.507H392.68C391.899 102.022 390.798 103.443 389.377 104.768C387.981 106.071 386.217 107.124 384.086 107.929C381.979 108.71 379.505 109.101 376.664 109.101ZM380.002 99.6548C382.583 99.6548 384.82 99.1458 386.714 98.1278C388.608 97.0862 390.064 95.7131 391.082 94.0085C392.124 92.304 392.645 90.4455 392.645 88.4332V82.0057C392.242 82.3371 391.556 82.6449 390.585 82.929C389.638 83.2131 388.573 83.4616 387.389 83.6747C386.205 83.8878 385.033 84.0772 383.873 84.2429C382.713 84.4086 381.707 84.5507 380.855 84.669C378.937 84.9294 377.221 85.3556 375.706 85.9474C374.19 86.5393 372.995 87.3679 372.119 88.4332C371.243 89.4749 370.805 90.8243 370.805 92.4815C370.805 94.849 371.669 96.6364 373.397 97.8438C375.126 99.0511 377.327 99.6548 380.002 99.6548Z" fill="black"/>
<path d="M508.134 108H496.486L522.658 35.2727H535.335L561.507 108H549.859L529.298 48.483H528.73L508.134 108ZM510.087 79.5199H547.871V88.7528H510.087V79.5199ZM587.031 109.207C583.574 109.207 580.449 108.568 577.656 107.29C574.862 105.988 572.649 104.106 571.015 101.643C569.405 99.1813 568.6 96.1629 568.6 92.5881C568.6 89.5104 569.192 86.9773 570.376 84.9886C571.56 83 573.158 81.4257 575.17 80.2656C577.182 79.1056 579.431 78.2296 581.917 77.6378C584.403 77.0459 586.936 76.5961 589.517 76.2884C592.784 75.9096 595.435 75.6018 597.471 75.3651C599.507 75.1046 600.987 74.6903 601.91 74.1222C602.833 73.554 603.295 72.6307 603.295 71.3523V71.1037C603.295 68.0024 602.419 65.5994 600.667 63.8949C598.939 62.1903 596.359 61.3381 592.926 61.3381C589.351 61.3381 586.534 62.1312 584.474 63.7173C582.438 65.2798 581.029 67.0199 580.248 68.9375L570.27 66.6648C571.453 63.3504 573.181 60.6752 575.454 58.6392C577.751 56.5795 580.39 55.0881 583.373 54.1648C586.356 53.2178 589.493 52.7443 592.784 52.7443C594.962 52.7443 597.27 53.0047 599.708 53.5256C602.171 54.0227 604.467 54.946 606.598 56.2955C608.752 57.6449 610.516 59.5743 611.889 62.0838C613.262 64.5696 613.949 67.8011 613.949 71.7784V108H603.579V100.543H603.153C602.467 101.916 601.437 103.265 600.064 104.591C598.69 105.917 596.927 107.018 594.772 107.893C592.618 108.769 590.038 109.207 587.031 109.207ZM589.339 100.685C592.275 100.685 594.784 100.105 596.868 98.9446C598.975 97.7846 600.573 96.2694 601.662 94.3991C602.774 92.5052 603.331 90.4811 603.331 88.3267V81.2955C602.952 81.6742 602.218 82.0294 601.129 82.3608C600.064 82.6686 598.844 82.9408 597.471 83.1776C596.098 83.3906 594.761 83.5919 593.458 83.7812C592.156 83.947 591.067 84.089 590.191 84.2074C588.132 84.4678 586.25 84.9058 584.545 85.5213C582.864 86.1368 581.515 87.0246 580.497 88.1847C579.502 89.321 579.005 90.8362 579.005 92.7301C579.005 95.358 579.976 97.3466 581.917 98.696C583.859 100.022 586.333 100.685 589.339 100.685Z" fill="black"/>
<path d="M718.79 108H709.557L736.261 35.2727H745.352L772.057 108H762.824L741.091 46.7784H740.523L718.79 108ZM722.199 79.5909H759.415V87.4034H722.199V79.5909ZM798.3 109.278C794.843 109.278 791.706 108.627 788.889 107.325C786.072 106 783.835 104.094 782.178 101.608C780.52 99.0985 779.692 96.0682 779.692 92.517C779.692 89.392 780.307 86.8589 781.538 84.9176C782.769 82.9527 784.415 81.4138 786.474 80.3011C788.534 79.1884 790.807 78.3598 793.293 77.8153C795.802 77.2472 798.323 76.7973 800.857 76.4659C804.171 76.0398 806.858 75.7202 808.918 75.5071C811.001 75.2704 812.516 74.8797 813.463 74.3352C814.434 73.7907 814.919 72.8437 814.919 71.4943V71.2102C814.919 67.7064 813.96 64.9839 812.043 63.0426C810.149 61.1013 807.272 60.1307 803.413 60.1307C799.412 60.1307 796.276 61.0066 794.003 62.7585C791.73 64.5104 790.132 66.3807 789.209 68.3693L781.254 65.5284C782.675 62.214 784.569 59.6335 786.936 57.7869C789.327 55.9167 791.931 54.6146 794.749 53.8807C797.589 53.1231 800.383 52.7443 803.129 52.7443C804.881 52.7443 806.893 52.9574 809.166 53.3835C811.463 53.786 813.676 54.6264 815.807 55.9048C817.961 57.1832 819.749 59.1127 821.169 61.6932C822.589 64.2737 823.3 67.7301 823.3 72.0625V108H814.919V100.614H814.493C813.925 101.797 812.978 103.064 811.652 104.413C810.326 105.763 808.563 106.911 806.361 107.858C804.159 108.805 801.472 109.278 798.3 109.278ZM799.578 101.75C802.893 101.75 805.686 101.099 807.959 99.7969C810.255 98.4948 811.983 96.8139 813.143 94.7543C814.327 92.6946 814.919 90.5284 814.919 88.2557V80.5852C814.564 81.0114 813.783 81.402 812.575 81.7571C811.392 82.0885 810.018 82.3845 808.456 82.6449C806.917 82.8816 805.414 83.0947 803.946 83.2841C802.502 83.4498 801.33 83.5919 800.43 83.7102C798.252 83.9943 796.216 84.456 794.322 85.0952C792.452 85.7107 790.937 86.6458 789.777 87.9006C788.641 89.1316 788.072 90.8125 788.072 92.9432C788.072 95.8551 789.15 98.0568 791.304 99.5483C793.482 101.016 796.24 101.75 799.578 101.75Z" fill="black"/>
<rect x="0.5" y="0.5" width="1137" height="223" rx="58.5" stroke="black"/>
</svg>
